<?xml version="1.0" encoding="utf-8"?>
<!-- Generator: Adobe Illustrator 21.0.0, SVG Export Plug-In . SVG Version: 6.00 Build 0)  -->
<svg version="1.1" id="Layer_1" xmlns="http://www.w3.org/2000/svg" xmlns:xlink="http://www.w3.org/1999/xlink" x="0px" y="0px"
	 viewBox="0 0 930 300" style="enable-background:new 0 0 930 300;" xml:space="preserve">
<style type="text/css">
	.st0{fill:#43B8C8;}
	.st1{clip-path:url(#SVGID_2_);}
	.st2{fill:#389BA8;}
	.st3{fill:#2F7F8A;}
	.st4{fill:none;stroke:#F1F1F2;stroke-width:5;stroke-miterlimit:10;}
	.st5{fill:#005984;}
	.st6{fill:#DCE3DB;}
	.st7{fill:#004566;}
	.st8{fill:#FEB784;}
	.st9{fill:#3A4461;}
	.st10{fill:#FF5B62;}
	.st11{fill:#FEC9A3;}
	.st12{fill:#ED4C54;}
	.st13{fill:#09C6A2;}
	.st14{fill:#666666;}
	.st15{fill:#FFFFFF;}
	.st16{fill:#B6B6B8;}
	.st17{fill:#C2C2C4;}
	.st18{fill:#B0B0B0;}
	.st19{fill:#ECF0F1;}
	.st20{fill:#828282;}
	.st21{fill:#21D0C3;}
	.st22{fill:#FAD24D;}
	.st23{fill:#51BBB2;}
	.st24{fill:#15BDB2;}
	.st25{fill:#FCB42A;}
	.st26{clip-path:url(#SVGID_4_);}
	.st27{fill:#252D4C;}
	.st28{fill:#F5A30A;}
	.st29{fill:#FFDF42;}
	.st30{opacity:0.1;fill:#231F20;enable-background:new    ;}
	.st31{clip-path:url(#SVGID_6_);}
	.st32{fill:#0B2E44;}
	.st33{fill:#BABABA;}
	.st34{opacity:0.1;enable-background:new    ;}
	.st35{opacity:0.4;fill:#FFFFFF;enable-background:new    ;}
	.st36{opacity:0.5;fill:#FFFFFF;enable-background:new    ;}
	.st37{fill:#CC2128;}
	.st38{fill:#6FBD46;}
</style>
<title>обслуживаниеПК</title>
<rect id="Background_1" y="0" class="st0" width="930" height="300"/>
<g>
	<defs>
		<rect id="SVGID_1_" y="0" width="930" height="300"/>
	</defs>
	<clipPath id="SVGID_2_">
		<use xlink:href="#SVGID_1_"  style="overflow:visible;"/>
	</clipPath>
	<g class="st1">
		<path class="st2" d="M492.4,333.1v-42.5l-26-3.1c-1.5-9.1-3.9-18.1-7.1-26.8l21-15.6L459,208.4l-24.1,10.4
			c-5.9-7.1-12.5-13.7-19.6-19.6l10.4-24.1L389,153.9l-15.6,21c-8.7-3.2-17.6-5.6-26.8-7.1l-3.1-26H301l-3.1,26
			c-9.1,1.5-18.1,3.9-26.8,7.1l-15.6-21l-36.8,21.2l10.4,24.1c-7.1,5.9-13.7,12.5-19.6,19.6l-24.1-10.4l-21.2,36.8l21,15.6
			c-3.2,8.7-5.6,17.6-7.1,26.8l-26,3.1v42.5l26,3.1c1.5,9.1,3.9,18.1,7.1,26.8l-21,15.6l21.2,36.8l24.1-10.3
			c5.9,7.1,12.5,13.7,19.6,19.6l-10.4,24.1l36.8,21.2l15.6-21c8.7,3.2,17.7,5.6,26.8,7.1l3,26h42.5l3.1-26
			c9.1-1.5,18.1-3.9,26.8-7.1l15.6,21l36.8-21.2l-10.4-24.1c7.1-5.9,13.7-12.4,19.6-19.6l24.1,10.3l21.2-36.8l-21-15.6
			c3.2-8.7,5.6-17.6,7.1-26.8L492.4,333.1z M322.2,368.7c-31.4,0-56.9-25.5-56.9-56.9s25.5-56.9,56.9-56.9
			c31.4,0,56.9,25.5,56.9,56.9S353.6,368.7,322.2,368.7L322.2,368.7z"/>
		<path class="st3" d="M322.2,232.4c-43.9,0-79.5,35.6-79.5,79.5s35.6,79.5,79.5,79.5s79.5-35.6,79.5-79.5S366.1,232.4,322.2,232.4
			L322.2,232.4z M322.2,368.7c-31.4,0-56.9-25.5-56.9-56.9s25.5-56.9,56.9-56.9c31.4,0,56.9,25.5,56.9,56.9v0
			C379.1,343.3,353.6,368.7,322.2,368.7L322.2,368.7z"/>
		<path class="st2" d="M974.4-86.8l5.3-58.8l-35.6-7.5c-1-12.8-3.2-25.5-6.5-37.9l31-19l-24.8-53.6l-34.6,11.3
			c-7.3-10.6-15.5-20.5-24.7-29.6l17.3-32l-48.2-34l-24.3,27.1c-11.6-5.6-23.7-10-36.2-13.2l-1-36.4l-58.8-5.3l-7.5,35.6
			c-12.8,1-25.5,3.2-37.9,6.6l-19-31l-53.6,24.8l11.3,34.6c-10.6,7.3-20.5,15.5-29.5,24.7l-32-17.4l-34,48.2l27.1,24.3
			c-5.6,11.6-10,23.7-13.3,36.1l-36.4,1l-5.3,58.8l35.6,7.5c1,12.8,3.2,25.5,6.5,37.9l-31,19l24.8,53.6l34.6-11.3
			c7.3,10.6,15.5,20.5,24.7,29.5l-17.3,32l48.2,34l24.3-27.1c11.6,5.6,23.7,10,36.1,13.3l1,36.4l58.8,5.3l7.5-35.6
			c12.8-1,25.5-3.2,37.9-6.6l19,31l53.6-24.8l-11.3-34.6c10.6-7.3,20.5-15.5,29.6-24.7l32,17.3l34-48.2l-27.1-24.3
			c5.6-11.6,10-23.7,13.3-36.2L974.4-86.8z M734.4-58.8c-43.5-3.9-75.5-42.3-71.6-85.8c0,0,0-0.1,0-0.1
			c3.9-43.5,42.3-75.5,85.8-71.6c0,0,0.1,0,0.1,0c43.5,3.9,75.5,42.3,71.6,85.8c0,0,0,0.1,0,0.1C816.3-87,778-54.9,734.5-58.8
			C734.5-58.8,734.4-58.8,734.4-58.8L734.4-58.8z"/>
		<path class="st2" d="M137.5,35.8V6.9l-17.7-2.1c-1-6.2-2.7-12.3-4.9-18.2L129.2-24l-14.4-25l-16.3,7c-4-4.8-8.5-9.2-13.3-13.2
			l7-16.3L67.2-86L56.5-71.7c-5.9-2.2-12-3.8-18.2-4.9l-2.1-17.7H7.4L5.3-76.6c-6.2,1-12.3,2.7-18.2,4.9L-23.5-86l-25,14.4l7,16.3
			c-4.8,4-9.3,8.5-13.3,13.3l-16.3-7L-85.5-24l14.3,10.6c-2.2,5.9-3.8,12-4.9,18.2l-17.7,2.1v28.9l17.7,2.1c1,6.2,2.7,12.3,4.9,18.2
			l-14.3,10.6l14.4,25l16.3-7c4,4.8,8.5,9.3,13.3,13.3l-7,16.3l25,14.4l10.6-14.3c5.9,2.2,12,3.8,18.2,4.9l2,17.6h28.9l2.1-17.7
			c6.2-1,12.3-2.7,18.2-4.9l10.6,14.3l25-14.4l-7-16.3c4.8-4,9.3-8.5,13.3-13.3l16.3,7l14.4-25l-14.3-10.6c2.2-5.9,3.8-12,4.9-18.2
			L137.5,35.8z M21.9,60C0.5,60-16.8,42.7-16.8,21.3S0.5-17.3,21.9-17.3S60.5,0,60.5,21.3c0,0,0,0,0,0C60.5,42.7,43.2,60,21.9,60z"
			/>
		<path class="st3" d="M21.9-32.7c-29.8,0-54,24.2-54,54s24.2,54,54,54s54-24.2,54-54l0,0C75.8-8.5,51.7-32.7,21.9-32.7z M21.9,60
			C0.5,60-16.8,42.7-16.8,21.4S0.5-17.3,21.9-17.3S60.5,0,60.5,21.4c0,0,0,0,0,0C60.5,42.7,43.2,60,21.9,60L21.9,60z"/>
	</g>
</g>
<path class="st4" d="M348.1,150.2l-5.4,17.3c-0.6,2.3,0.7,4.7,3,5.3l72.3,20.8c2.1,0.6,4.2-0.6,4.9-2.6l5.4-18.2"/>
<path class="st4" d="M362.4,109l13.3-44.8c0.7-2.3,3.1-3.6,5.4-2.9l72,21.8c2.1,0.6,3.2,2.8,2.7,4.9l-12.6,44.5"/>
<path class="st4" d="M79.5,132.5l275.7,79.9c8.2,2.4,16.8-2.2,19.4-10.4l5.8-19.3"/>
<path class="st5" d="M329.9,83.8l66.9,20.7L383,149.2l-66.9-20.7L329.9,83.8z"/>
<path class="st6" d="M333,89.7l58,17.9l-11,35.7l-58-17.9L333,89.7z"/>
<path class="st7" d="M346.2,137.8l6.7,2.1l-2.1,6.7l-6.7-2.1L346.2,137.8z"/>
<path class="st5" d="M367.7,159.1l-44.6-13.8c1.1-3.7,5.1-5.8,8.8-4.6c0,0,0,0,0,0l31.2,9.7C366.8,151.5,368.9,155.4,367.7,159.1
	C367.7,159.1,367.7,159.1,367.7,159.1z"/>
<path class="st8" d="M441.8,34c0.7-1.5,0-3.4-1.6-4s-3.4,0-4,1.6c-0.1,0.2-0.2,0.5-0.2,0.7c0.4-1.6-0.6-3.3-2.2-3.7
	c-1.6-0.4-3.1,0.5-3.7,2c0.5-1.6-0.3-3.3-1.9-3.9c-1.6-0.5-3.3,0.3-3.9,1.9c0,0.1,0,0.1-0.1,0.2c0.5-1.6-0.4-3.3-2.1-3.8
	s-3.3,0.4-3.8,2.1l-8.3,27.8l23.4,7L441.8,34z"/>
<path class="st9" d="M437.7,51.9c2.1,0.6,4,1.7,5.6,3.2c4.1,3.7,7.4,8.1,13.5,8.6c7.6,0.5,14.1-5.2,14.6-12.8c0-0.3,0-0.7,0-1
	l-8,4.3c-1.5,0.8-3.3,0.3-4.1-1.2l-2.2-4.1c-0.8-1.5-0.3-3.3,1.2-4.1l8.8-4.8c-4.2-4-10.4-4.9-15.5-2.3c-4,2.1-7.8,3.4-12.3,2
	l-20.9-6.3c-2.1-0.6-4-1.7-5.6-3.2c-4.1-3.7-7.4-8.1-13.5-8.6c-7.6-0.5-14.1,5.2-14.6,12.8c0,0.3,0,0.7,0,1l8-4.3
	c1.5-0.8,3.3-0.3,4.1,1.2l2.3,4.2c0.8,1.5,0.3,3.3-1.2,4.1l-8.8,4.8c4.2,4,10.4,4.9,15.5,2.3c4-2.1,7.8-3.4,12.3-2L437.7,51.9z"/>
<path class="st10" d="M433.5,61.8l-8.3,27.8l-23.4-7l8.3-27.8L433.5,61.8z"/>
<path class="st11" d="M423.3,58.8c1.7-5.7,7.6-8.9,13.3-7.2c0,0,0,0,0,0l4.4,1.3l0.9-2.9c1-3.2,4.4-5.1,7.6-4.1l-4.4,14.6l-11.6,1.3
	L423.3,58.8z"/>
<path class="st9" d="M416.8,45.6l15.6,4.7c-3-4.8-5.5-9.8-7.6-15l-6.4-1.9c-2.1-0.6-4-1.7-5.6-3.2c-4.1-3.7-7.4-8.1-13.5-8.6
	c-7.6-0.5-14.1,5.2-14.6,12.8c0,0.3,0,0.7,0,1l8-4.3c1.5-0.8,3.3-0.3,4.1,1.2l2.2,4.1c0.8,1.5,0.3,3.3-1.2,4.1c0,0,0,0,0,0l-8.8,4.8
	c4.2,4,10.4,4.9,15.5,2.3C408.5,45.6,412.3,44.3,416.8,45.6z"/>
<path class="st11" d="M441.8,34l-2.6,8.8c-0.5,1.6-2.2,2.5-3.8,2s-2.5-2.2-2-3.8l0,0l2.7-8.8c0.3-1.7,1.9-2.8,3.5-2.5
	s2.8,1.9,2.5,3.5C442,33.5,441.9,33.8,441.8,34z"/>
<path class="st11" d="M436,32.2l-2.7,8.8c-0.5,1.6-2.3,2.5-3.9,1.9c-1.5-0.5-2.4-2.1-2-3.7l2.6-8.8c0.5-1.6,2.2-2.6,3.8-2.1
	S436.5,30.6,436,32.2L436,32.2z"/>
<path class="st11" d="M430.1,30.5l-2.6,8.8c-0.4,1.6-2.1,2.6-3.7,2.2c-1.6-0.4-2.6-2.1-2.2-3.7c0-0.1,0-0.1,0.1-0.2l2.6-8.8
	c0.4-1.6,2.1-2.6,3.7-2.2s2.6,2.1,2.2,3.7C430.1,30.4,430.1,30.4,430.1,30.5z"/>
<path class="st11" d="M424.3,28.8l-2.6,8.8c-0.4,1.6-2.1,2.6-3.7,2.2c-1.6-0.4-2.6-2.1-2.2-3.7c0-0.1,0-0.1,0.1-0.2l2.6-8.8
	c0.5-1.6,2.3-2.5,3.9-1.9C423.8,25.6,424.7,27.2,424.3,28.8L424.3,28.8z"/>
<path class="st12" d="M417.4,57l-8.3,27.8l-7.3-2.2l8.3-27.8L417.4,57z"/>
<polygon class="st13" points="339.5,111.9 347.2,107.8 352.3,117.2 372.3,106.9 376.3,114.6 348.7,128.9 "/>
<path class="st5" d="M410.6,109.9l66.9,20.7l-13.8,44.6l-66.9-20.7L410.6,109.9z"/>
<path class="st6" d="M413.7,115.7l58,17.9l-11,35.7l-58-17.9L413.7,115.7z"/>
<path class="st7" d="M427,163.8l6.7,2.1l-2.1,6.7l-6.7-2.1L427,163.8z"/>
<path class="st5" d="M448.5,185.2l-44.6-13.8c1.1-3.7,5.1-5.8,8.8-4.6c0,0,0,0,0,0l31.2,9.7C447.5,177.5,449.6,181.5,448.5,185.2
	C448.5,185.2,448.5,185.2,448.5,185.2z"/>
<polygon class="st13" points="420.3,138 428,133.8 433.1,143.3 453.1,133 457.1,140.7 429.5,154.9 "/>
<path class="st4" d="M85.5,164.5L108.6,89c1.8-5.9,8-9.2,13.9-7.5l87.4,24.9c9.8,2.9,20-2.6,23.1-12.3l9.5-30.5"/>
<line class="st4" x1="101.4" y1="159.4" x2="269.5" y2="210.5"/>
<ellipse class="st3" cx="635.3" cy="248.7" rx="118.1" ry="9.3"/>
<path class="st14" d="M512.2,19h246.3c8.1,0,14.7,6.6,14.7,14.7v151.7H497.5V33.7C497.5,25.6,504.1,19,512.2,19z"/>
<path class="st6" d="M507.5,175.4h255.7V33.7c0-2.6-2.1-4.7-4.7-4.7H512.2c-2.6,0-4.7,2.1-4.7,4.7L507.5,175.4L507.5,175.4z"/>
<path class="st15" d="M773.2,185.4v16.1c0,8.1-7.3,14.7-16.2,14.7H513.7c-8.9,0-16.2-6.6-16.2-14.7v-16.1H773.2z"/>
<circle class="st16" cx="635.3" cy="200.2" r="5.1"/>
<path class="st17" d="M667.1,239.4l23.4,7.5H580.1l18.9-7.5v-23.1h68.1L667.1,239.4z"/>
<path class="st18" d="M667.1,239.4L599,216.2h68.1L667.1,239.4z"/>
<path class="st19" d="M599,239.4h68.1l23.4,7.5v3.2H580.1v-3.2L599,239.4z"/>
<path class="st15" d="M561,50.3h170.9c2.7,0,4.9,2.2,4.9,4.9v120.3H533.9V55.2c0-2.7,2.2-4.9,4.9-4.9L561,50.3z"/>
<path class="st20" d="M538.8,50.3h193c2.7,0,4.9,2.2,4.9,4.9v9.8H533.9v-9.8C533.9,52.5,536.1,50.3,538.8,50.3L538.8,50.3z"/>
<path class="st15" d="M616.1,55.4h106c0.7,0,1.3,0.6,1.3,1.3v2.4c0,0.7-0.6,1.3-1.3,1.3h-106c-0.7,0-1.3-0.6-1.3-1.3v-2.4
	C614.8,55.9,615.4,55.4,616.1,55.4z"/>
<path class="st21" d="M545.5,54.5c1.6,0,2.8,1.3,2.8,2.8s-1.3,2.8-2.8,2.8c-1.6,0-2.8-1.3-2.8-2.8l0,0
	C542.6,55.7,543.9,54.5,545.5,54.5z"/>
<path class="st22" d="M556.5,54.5c1.6,0,2.8,1.3,2.8,2.8s-1.3,2.8-2.8,2.8c-1.6,0-2.8-1.3-2.8-2.8l0,0
	C553.7,55.7,555,54.5,556.5,54.5z"/>
<path class="st10" d="M567.6,54.5c1.6,0,2.8,1.3,2.8,2.8s-1.3,2.8-2.8,2.8c-1.6,0-2.8-1.3-2.8-2.8l0,0
	C564.8,55.7,566.1,54.5,567.6,54.5z"/>
<path class="st21" d="M635.1,93.4h28.4l18.8,54.2L635.1,93.4z"/>
<path class="st23" d="M682.3,147.6l-18.8-54.2h37.7L682.3,147.6z"/>
<path class="st24" d="M682.3,147.6l18.8-54.2h28.4L682.3,147.6z"/>
<path class="st23" d="M700.6,93.4l-8.5-15.6H719l9.8,15.6H700.6z"/>
<path class="st21" d="M692.1,77.8l8.5,15.6h-37.9l8.5-15.6H692.1z"/>
<path class="st24" d="M671.2,77.8l-8.5,15.6h-28.2l11-15.6H671.2z"/>
<rect x="548.2" y="77.8" class="st25" width="18.3" height="4.4"/>
<rect x="570" y="77.8" class="st10" width="27.2" height="4.4"/>
<rect x="548.2" y="91.9" class="st21" width="18.3" height="4.4"/>
<rect x="570" y="91.9" class="st10" width="32.8" height="4.4"/>
<rect x="605.3" y="91.9" class="st25" width="4.8" height="4.4"/>
<rect x="548.2" y="106.1" class="st10" width="12.1" height="4.4"/>
<rect x="563.8" y="106.1" class="st21" width="24.5" height="4.4"/>
<rect x="591.8" y="106.1" class="st25" width="18.3" height="4.4"/>
<rect x="548.2" y="120.2" class="st25" width="18.3" height="4.4"/>
<rect x="571.1" y="120.2" class="st10" width="38.5" height="4.4"/>
<rect x="611.4" y="120.2" class="st21" width="16" height="4.4"/>
<rect x="548.2" y="134.3" class="st10" width="22.5" height="4.4"/>
<rect x="575" y="134.3" class="st21" width="22.5" height="4.4"/>
<rect x="601.7" y="134.3" class="st25" width="22.5" height="4.4"/>
<rect x="548.2" y="148.4" class="st25" width="18.3" height="4.4"/>
<rect x="570" y="148.4" class="st21" width="11" height="4.4"/>
<rect x="583" y="148.4" class="st10" width="11" height="4.4"/>
<g>
	<defs>
		<rect id="SVGID_3_" y="0" width="930" height="300"/>
	</defs>
	<clipPath id="SVGID_4_">
		<use xlink:href="#SVGID_3_"  style="overflow:visible;"/>
	</clipPath>
	<g class="st26">
		<circle class="st27" cx="824.6" cy="198.4" r="127.4"/>
		<path class="st15" d="M824.6,84.6c62.8,0,113.8,50.9,113.8,113.8s-50.9,113.8-113.8,113.8s-113.8-50.9-113.8-113.8
			C710.9,135.5,761.8,84.6,824.6,84.6C824.6,84.6,824.6,84.6,824.6,84.6z"/>
		<path class="st10" d="M839.5,180.5c-17-7.7-24.5-27.7-16.9-44.7c3-6.7,8.2-12.2,14.6-15.8V147l16.2,8l16-8v-26.9
			c16.4,8.9,22.5,29.4,13.6,45.8c-3.5,6.5-9,11.6-15.7,14.6c0.1,0.7,0.2,1.5,0.2,2.2v121c-9,3.7-18.5,6.2-28.2,7.4V182.7
			C839.3,182,839.4,181.2,839.5,180.5L839.5,180.5z"/>
		<path class="st12" d="M860.5,306.4c-4.6,1.5-9.4,2.8-14.2,3.7V193c0-3.9,3.2-7.1,7.1-7.1l0,0c3.9,0,7.1,3.2,7.1,7.1L860.5,306.4
			L860.5,306.4z"/>
		<path class="st22" d="M767.9,233.2h3.7v-3.6c0-1.6,1.3-2.8,2.8-2.8h24.4c1.5,0,2.8,1.3,2.8,2.8v3.6h3.7c3.2,0,5.7,2.6,5.8,5.8
			v72.4l-1.7-0.2l-1.2-0.2l-1.8-0.3l-0.3-0.1l-0.8-0.1l-1.5-0.3h-0.1l-0.8-0.2h-0.2l-1.5-0.3l-0.8-0.2l-0.3-0.1l-2-0.5h-0.2
			l-0.8-0.2h-0.1l-1.5-0.4l0,0l-0.8-0.2h-0.1c-0.7-0.2-1.4-0.4-2.1-0.6h-0.1l-0.8-0.2l-1.6-0.5l-0.8-0.3l0,0
			c-0.8-0.3-1.5-0.5-2.2-0.8h-0.1c-0.8-0.3-1.5-0.5-2.3-0.8l-0.8-0.3l-1.5-0.6l-0.8-0.3c-3.3-1.3-6.5-2.8-9.6-4.5l-0.7-0.4l-2.1-1.1
			h0l-2-1.2l-0.1-0.1c-0.7-0.4-1.3-0.8-2-1.2l-0.7-0.4l-1.9-1.2l-0.1-0.1v-54.8C762.2,235.7,764.8,233.2,767.9,233.2L767.9,233.2z"
			/>
		<rect x="779.8" y="158.5" class="st24" width="13.5" height="68.2"/>
		<path class="st21" d="M780.5,120.1h12.1l8,31.5l-6.8,8.5h-14.6l-6.8-8.5L780.5,120.1z"/>
		<path class="st28" d="M771.7,240.3L771.7,240.3c2.1,0,3.8,1.7,3.8,3.8V301c-2.6-1.2-5.1-2.6-7.6-4v-52.9
			C768,242,769.6,240.3,771.7,240.3z M805.2,310.5c-2.5-0.4-5.1-1-7.6-1.6v-64.8c0-2.1,1.7-3.8,3.8-3.8l0,0c2.1,0,3.8,1.7,3.8,3.8
			L805.2,310.5L805.2,310.5z M790.4,306.9c-2.6-0.8-5.1-1.7-7.6-2.7v-60.1c0-2.1,1.7-3.8,3.8-3.8l0,0c2.1,0,3.8,1.7,3.8,3.8
			L790.4,306.9L790.4,306.9L790.4,306.9z"/>
	</g>
</g>
<g id="Security">
	<path class="st5" d="M280.8,135l-68.2,7.4l-19.9,64.5c0,0-10.3,46,38.7,88.4c64.3-7.5,81.7-51.3,81.7-51.3l19.9-64.5L280.8,135z"/>
	<path class="st29" d="M275.8,151.4l-54.3,5.9l-15.8,51.3c0,0-8.2,36.6,30.8,70.3c51.2-5.9,65-40.8,65-40.8l15.8-51.3L275.8,151.4z"
		/>
	<polygon class="st13" points="219.9,213.5 236,204.8 246.7,224.6 288.7,202.9 297.1,219.2 239.2,249 	"/>
	<path class="st30" d="M313.1,244l19.9-64.4L280.8,135l-49.4,160.3C295.7,287.8,313.1,244,313.1,244z"/>
</g>
<g>
	<defs>
		<rect id="SVGID_5_" y="0" width="930" height="300"/>
	</defs>
	<clipPath id="SVGID_6_">
		<use xlink:href="#SVGID_5_"  style="overflow:visible;"/>
	</clipPath>
	<g class="st31">
		<g id="Button">
			
				<ellipse transform="matrix(0.2902 -0.957 0.957 0.2902 -66.0597 188.1614)" class="st32" cx="93.8" cy="138.6" rx="35.1" ry="35.1"/>
			<ellipse transform="matrix(0.2902 -0.957 0.957 0.2902 -66.0598 188.1614)" class="st33" cx="93.8" cy="138.6" rx="26" ry="26"/>
			
				<ellipse transform="matrix(0.2902 -0.957 0.957 0.2902 -66.0598 188.1614)" class="st32" cx="93.8" cy="138.6" rx="17.4" ry="17.4"/>
		</g>
		<g id="Push">
			<path class="st11" d="M33,208.8l-14.7,49.6c0,0,14.8,28.2,17.8,41.6s13.6,21.5,14.1,21.7l70.7,21.4c0,0,18.9,0.3,26.7-23.4
				l24.6-81.2c0,0-4.4-23.6-20.9-6.3l-6.5-2l3.8-12.4c0,0-6.6-23.2-23.4-7.1l-3.5,11.5l-6.5-2l6.1-20c0,0-5.9-25.4-22.9-6.9
				l-6.1,20.1l-7-2.1l18.4-60.7c0,0-3.8-26.7-21.9-6.6L45.7,263.2c0,0-2.2-3.9-2-11.5l5.2-24C48.9,227.7,50.3,201.9,33,208.8z"/>
			<path class="st34" d="M92.3,136.3c-2.8,0.5-6.2,2.7-10.4,7.3l-36.7,121l7.5,2L92.3,136.3z"/>
			<path class="st34" d="M102.1,189.7c-1.3,1-2.5,2.2-3.6,3.4l-6.1,20.1l-7-2.1l18.4-60.7c-0.2-1.1-0.4-2.2-0.7-3.3l-0.3,1.1
				l-19.8,65.5l10.9,3.3L102.1,189.7z"/>
			<path class="st34" d="M127.5,208.6c-0.7,0.6-1.5,1.2-2.3,2l-3.5,11.4l-6.5-2l6.1-20c-0.4-1.4-0.8-2.7-1.3-4.1l-7.5,24.8l10.4,3.1
				L127.5,208.6z"/>
			<path class="st34" d="M151.3,232.1l-6.5-2l3.8-12.4c-0.3-1.1-0.7-2.2-1.2-3.2l-5.2,17.1l10.6,3.2l1.7-5.7
				C153.4,230,152.3,231,151.3,232.1z"/>
			<path class="st35" d="M34.9,218.6c1.4-6.4-2.3-8.3-2.4-8.3l-3.6,12.2l4.4,1.3L34.9,218.6z"/>
			<path class="st36" d="M94.6,140.9c-3.7-1.1-7.7,1.5-9,5.9l13.3,4C100.1,146.5,98.2,142,94.6,140.9z"/>
		</g>
	</g>
</g>
<rect x="234.2" y="1.1" transform="matrix(0.3107 -0.9505 0.9505 0.3107 129.6905 264.3766)" class="st9" width="25.9" height="83.4"/>
<rect x="221.6" y="12.8" transform="matrix(0.3107 -0.9505 0.9505 0.3107 132.7978 263.3703)" class="st15" width="52.7" height="54.7"/>
<path class="st27" d="M181.3,65.4l11.9-36.3c0.7-2,2.8-3.1,4.8-2.4l98.3,32.1c2,0.7,3.1,2.8,2.4,4.8l-11.9,36.3
	c-0.7,2-2.8,3.1-4.8,2.4l-98.3-32.1C181.7,69.6,180.7,67.4,181.3,65.4z"/>
<ellipse transform="matrix(0.3107 -0.9505 0.9505 0.3107 105.7386 213.3642)" class="st37" cx="200" cy="33.8" rx="2.5" ry="2.5"/>
<ellipse transform="matrix(0.3107 -0.9505 0.9505 0.3107 97.5211 216.0105)" class="st38" cx="197.7" cy="40.8" rx="2.5" ry="2.5"/>
<path class="st34" d="M187.2,47.3l-5.9,18.2c-0.7,2,0.4,4.1,2.4,4.8l98.3,32.1c2,0.6,4.1-0.4,4.8-2.4l5.9-18.2L187.2,47.3z"/>
<rect x="230.9" y="36.1" transform="matrix(0.3107 -0.9505 0.9505 0.3107 88.4877 277.6345)" class="st9" width="9.6" height="83.4"/>
</svg>
