<?xml version="1.0" encoding="utf-8"?>
<!-- Generator: Adobe Illustrator 22.1.0, SVG Export Plug-In . SVG Version: 6.00 Build 0)  -->
<svg version="1.1" id="Слой_1" xmlns="http://www.w3.org/2000/svg" xmlns:xlink="http://www.w3.org/1999/xlink" x="0px" y="0px"
	 viewBox="0 0 300 200" style="enable-background:new 0 0 300 200;" xml:space="preserve">
<style type="text/css">
	.st0{fill:#71A9CC;}
	.st1{fill-rule:evenodd;clip-rule:evenodd;fill:#ECEDEF;}
	.st2{fill-rule:evenodd;clip-rule:evenodd;fill:#FFFFFF;}
	.st3{fill-rule:evenodd;clip-rule:evenodd;fill:#4089C6;}
	.st4{fill-rule:evenodd;clip-rule:evenodd;fill:#3399CC;}
	.st5{fill:#FFFFFF;}
	.st6{fill:#ECEDEF;}
	.st7{fill-rule:evenodd;clip-rule:evenodd;fill:#71A9CC;}
</style>
<polygon class="st0" points="300.2,199.9 -0.2,199.9 -0.2,0 300.2,0 300.2,199.9 "/>
<g>
	<path class="st1" d="M-0.2,141.7v-19.8c5.4,0,9.9,4.4,9.9,9.9C9.7,137.3,5.3,141.7-0.2,141.7L-0.2,141.7L-0.2,141.7z M4,103.4
		c1.8,0.2,3.6,0.7,5.3,1.3h0c0.1,0.1,0.3,0.1,0.5,0.2l0.1,0.1c0.1,0.1,0.3,0.1,0.4,0.2l0.2,0.1c0.1,0.1,0.2,0.1,0.3,0.1l0.3,0.1
		l0.2,0.1c0.1,0.1,0.3,0.1,0.4,0.2l0.1,0.1c0.1,0.1,0.3,0.1,0.4,0.2l0,0c1.6,0.8,3.2,1.7,4.7,2.8l3.7-3.7l5.9,5.9l-3.7,3.7
		c1.1,1.5,2,3,2.8,4.6l0,0.1c0.1,0.2,0.1,0.3,0.2,0.5l0,0.1c0,0.1,0.1,0.3,0.2,0.4l0.1,0.2c0,0.1,0.1,0.2,0.1,0.3
		c0.1,0.1,0.1,0.2,0.2,0.4l0,0.1c0,0.2,0.1,0.3,0.2,0.5l0,0.1c0.1,0.2,0.1,0.3,0.2,0.5l0,0c0.6,1.7,1,3.5,1.3,5.3h5.2v8.4h-5.2
		c-0.3,1.8-0.7,3.6-1.3,5.3l0,0c0,0.2-0.1,0.3-0.2,0.5l0,0.1c0,0.1-0.1,0.2-0.1,0.4l-0.1,0.2c0,0.1-0.1,0.2-0.1,0.3
		c-0.1,0.1-0.1,0.2-0.1,0.3l-0.1,0.2c0,0.1-0.1,0.3-0.2,0.4l0,0.1c-0.1,0.2-0.2,0.3-0.2,0.5h0c-0.8,1.6-1.7,3.2-2.8,4.7l3.7,3.7
		l-5.9,5.9l-3.7-3.7c-1.5,1.1-3,2.1-4.7,2.8l0,0c-0.2,0.1-0.3,0.2-0.5,0.2l-0.1,0.1c-0.1,0.1-0.3,0.1-0.4,0.2l-0.2,0.1
		c-0.1,0.1-0.2,0.1-0.3,0.1c-0.1,0.1-0.2,0.1-0.2,0.1c-0.1,0-0.2,0.1-0.3,0.1c-0.1,0-0.3,0.1-0.4,0.1l-0.2,0.1
		c-0.1,0.1-0.3,0.1-0.4,0.2h0c-1.7,0.6-3.5,1-5.3,1.3v5.3h-4.2v-17.7c8.8,0,16-7.2,16-16c0-8.8-7.2-16-16-16V98.1H4V103.4L4,103.4z"
		/>
</g>
<g>
	<path class="st2" d="M270.6,125c3.1,0,5.6,2.5,5.6,5.6c0,3.1-2.5,5.6-5.6,5.6c-3.1,0-5.6-2.5-5.6-5.6
		C265,127.5,267.5,125,270.6,125L270.6,125L270.6,125z M270.6,127.1c1.9,0,3.5,1.6,3.5,3.5c0,1.9-1.6,3.5-3.5,3.5
		c-1.9,0-3.5-1.6-3.5-3.5C267.1,128.7,268.7,127.1,270.6,127.1L270.6,127.1L270.6,127.1z M272.1,120.6c0.6,0.1,1.3,0.2,1.9,0.5h0
		c0,0,0.1,0,0.2,0.1l0,0c0,0,0.1,0,0.1,0.1l0.1,0c0,0,0.1,0,0.1,0l0.1,0l0.1,0c0,0,0.1,0,0.1,0.1l0,0c0,0,0.1,0,0.2,0.1l0,0
		c0.6,0.3,1.1,0.6,1.6,1l1.3-1.3l2.1,2.1l-1.3,1.3c0.4,0.5,0.7,1.1,1,1.6l0,0c0,0.1,0,0.1,0.1,0.2l0,0c0,0,0,0.1,0.1,0.1l0,0.1
		c0,0,0,0.1,0,0.1c0,0,0,0.1,0.1,0.1l0,0c0,0.1,0,0.1,0.1,0.2l0,0c0,0.1,0,0.1,0.1,0.2l0,0c0.2,0.6,0.4,1.2,0.5,1.9h1.8v2.9h-1.8
		c-0.1,0.6-0.3,1.3-0.5,1.9l0,0c0,0.1,0,0.1-0.1,0.2l0,0c0,0,0,0.1,0,0.1l0,0.1c0,0,0,0.1,0,0.1c0,0,0,0.1,0,0.1l0,0.1
		c0,0,0,0.1-0.1,0.1l0,0c0,0.1-0.1,0.1-0.1,0.2h0c-0.3,0.6-0.6,1.1-1,1.6l1.3,1.3L278,140l-1.3-1.3c-0.5,0.4-1.1,0.7-1.6,1l0,0
		c-0.1,0-0.1,0.1-0.2,0.1l0,0c0,0-0.1,0-0.1,0.1l-0.1,0c0,0-0.1,0-0.1,0c0,0-0.1,0-0.1,0c0,0-0.1,0-0.1,0c0,0-0.1,0-0.1,0l-0.1,0
		c0,0-0.1,0-0.2,0.1h0c-0.6,0.2-1.2,0.4-1.9,0.5v1.9h-2.9v-1.9c-0.6-0.1-1.3-0.2-1.9-0.5h0c-0.1,0-0.1,0-0.2-0.1l0,0
		c0,0-0.1,0-0.1-0.1l-0.1,0c0,0-0.1,0-0.1,0l-0.1,0l-0.1,0c0,0-0.1,0-0.1-0.1l0,0c-0.1,0-0.1,0-0.2-0.1l0,0c-0.6-0.3-1.1-0.6-1.6-1
		l-1.3,1.3l-2.1-2.1l1.3-1.3c-0.4-0.5-0.7-1.1-1-1.6v0c0-0.1-0.1-0.1-0.1-0.2l0,0c0,0,0-0.1-0.1-0.1l0-0.1c0,0,0-0.1,0-0.1
		c0,0,0-0.1,0-0.1l0,0c0-0.1,0-0.1-0.1-0.2l0,0c0-0.1,0-0.1-0.1-0.2v0c-0.2-0.6-0.4-1.2-0.5-1.9h-1.9v-2.9h1.9
		c0.1-0.6,0.3-1.3,0.5-1.9v0c0-0.1,0-0.1,0.1-0.2l0,0c0,0,0-0.1,0.1-0.1l0-0.1c0,0,0-0.1,0-0.1c0,0,0-0.1,0-0.1l0-0.1
		c0,0,0-0.1,0.1-0.1l0,0c0-0.1,0-0.1,0.1-0.2l0,0c0.3-0.6,0.6-1.1,1-1.6l-1.3-1.3l2.1-2.1l1.3,1.3c0.5-0.4,1.1-0.7,1.6-1l0,0
		c0.1,0,0.1-0.1,0.2-0.1l0,0c0,0,0.1,0,0.1-0.1l0.1,0c0,0,0.1,0,0.1,0c0,0,0.1,0,0.1,0c0,0,0.1,0,0.1,0c0,0,0.1,0,0.1,0l0,0
		c0.1,0,0.1,0,0.2-0.1h0c0.6-0.2,1.2-0.4,1.9-0.5v-1.9h2.9V120.6L272.1,120.6z"/>
	<path class="st1" d="M270.6,134.1v-7c1.9,0,3.5,1.6,3.5,3.5C274.1,132.5,272.5,134.1,270.6,134.1L270.6,134.1L270.6,134.1z
		 M272.1,120.6c0.6,0.1,1.3,0.2,1.9,0.5h0c0,0,0.1,0,0.2,0.1l0,0c0,0,0.1,0,0.1,0.1l0.1,0c0,0,0.1,0,0.1,0l0.1,0l0.1,0
		c0,0,0.1,0,0.1,0.1l0,0c0,0,0.1,0,0.2,0.1l0,0c0.6,0.3,1.1,0.6,1.6,1l1.3-1.3l2.1,2.1l-1.3,1.3c0.4,0.5,0.7,1.1,1,1.6l0,0
		c0,0.1,0,0.1,0.1,0.2l0,0c0,0,0,0.1,0.1,0.1l0,0.1c0,0,0,0.1,0,0.1c0,0,0,0.1,0.1,0.1l0,0c0,0.1,0,0.1,0.1,0.2l0,0
		c0,0.1,0,0.1,0.1,0.2l0,0c0.2,0.6,0.4,1.2,0.5,1.9h1.8v2.9h-1.8c-0.1,0.6-0.3,1.3-0.5,1.9l0,0c0,0.1,0,0.1-0.1,0.2l0,0
		c0,0,0,0.1,0,0.1l0,0.1c0,0,0,0.1,0,0.1c0,0,0,0.1,0,0.1l0,0.1c0,0,0,0.1-0.1,0.1l0,0c0,0.1-0.1,0.1-0.1,0.2h0
		c-0.3,0.6-0.6,1.1-1,1.6l1.3,1.3L278,140l-1.3-1.3c-0.5,0.4-1.1,0.7-1.6,1l0,0c-0.1,0-0.1,0.1-0.2,0.1l0,0c0,0-0.1,0-0.1,0.1
		l-0.1,0c0,0-0.1,0-0.1,0c0,0-0.1,0-0.1,0c0,0-0.1,0-0.1,0c0,0-0.1,0-0.1,0l-0.1,0c0,0-0.1,0-0.2,0.1h0c-0.6,0.2-1.2,0.4-1.9,0.5
		v1.9h-1.5v-6.2c3.1,0,5.6-2.5,5.6-5.6c0-3.1-2.5-5.6-5.6-5.6v-6.2h1.5V120.6L272.1,120.6z"/>
</g>
<g>
	<path class="st2" d="M101.5,22.2c1.9,0,3.5,1.6,3.5,3.5c0,1.9-1.6,3.5-3.5,3.5c-1.9,0-3.5-1.6-3.5-3.5
		C98,23.8,99.5,22.2,101.5,22.2L101.5,22.2L101.5,22.2z M101.5,23.6c1.2,0,2.2,1,2.2,2.2c0,1.2-1,2.2-2.2,2.2c-1.2,0-2.2-1-2.2-2.2
		C99.3,24.5,100.3,23.6,101.5,23.6L101.5,23.6L101.5,23.6z M102.4,19.5c0.4,0.1,0.8,0.2,1.2,0.3h0c0,0,0.1,0,0.1,0l0,0
		c0,0,0.1,0,0.1,0l0,0c0,0,0.1,0,0.1,0l0.1,0l0,0c0,0,0.1,0,0.1,0l0,0c0,0,0.1,0,0.1,0l0,0c0.4,0.2,0.7,0.4,1,0.6l0.8-0.8l1.3,1.3
		l-0.8,0.8c0.2,0.3,0.4,0.7,0.6,1l0,0c0,0,0,0.1,0.1,0.1l0,0c0,0,0,0.1,0,0.1l0,0c0,0,0,0,0,0.1c0,0,0,0.1,0,0.1l0,0
		c0,0,0,0.1,0,0.1l0,0c0,0,0,0.1,0,0.1l0,0c0.1,0.4,0.2,0.8,0.3,1.2h1.1v1.8h-1.1c-0.1,0.4-0.2,0.8-0.3,1.2l0,0c0,0,0,0.1,0,0.1l0,0
		c0,0,0,0.1,0,0.1l0,0c0,0,0,0,0,0.1c0,0,0,0,0,0.1l0,0c0,0,0,0.1,0,0.1l0,0c0,0,0,0.1-0.1,0.1h0c-0.2,0.4-0.4,0.7-0.6,1l0.8,0.8
		l-1.3,1.3l-0.8-0.8c-0.3,0.2-0.7,0.5-1,0.6l0,0c0,0-0.1,0-0.1,0l0,0c0,0-0.1,0-0.1,0l0,0c0,0-0.1,0-0.1,0c0,0,0,0-0.1,0
		c0,0,0,0-0.1,0c0,0-0.1,0-0.1,0l0,0c0,0-0.1,0-0.1,0h0c-0.4,0.1-0.8,0.2-1.2,0.3v1.1h-1.8v-1.1c-0.4-0.1-0.8-0.2-1.1-0.3h0
		c0,0-0.1,0-0.1,0l0,0c0,0-0.1,0-0.1,0l0,0c0,0,0,0-0.1,0l-0.1,0l0,0c0,0-0.1,0-0.1,0l0,0c0,0-0.1,0-0.1,0l0,0
		c-0.4-0.2-0.7-0.4-1-0.6l-0.8,0.8l-1.3-1.3l0.8-0.8c-0.2-0.3-0.4-0.7-0.6-1v0c0,0,0-0.1-0.1-0.1l0,0c0,0,0-0.1,0-0.1l0,0
		c0,0,0,0,0-0.1c0,0,0-0.1,0-0.1l0,0c0,0,0-0.1,0-0.1l0,0c0,0,0-0.1,0-0.1v0c-0.1-0.4-0.2-0.8-0.3-1.2h-1.1v-1.8h1.1
		c0.1-0.4,0.2-0.8,0.3-1.2v0c0,0,0-0.1,0-0.1l0,0c0,0,0-0.1,0-0.1l0,0c0,0,0,0,0-0.1c0,0,0,0,0-0.1l0,0c0,0,0-0.1,0-0.1l0,0
		c0,0,0-0.1,0.1-0.1l0,0c0.2-0.4,0.4-0.7,0.6-1l-0.8-0.8l1.3-1.3l0.8,0.8c0.3-0.2,0.7-0.4,1-0.6l0,0c0,0,0.1,0,0.1,0l0,0
		c0,0,0.1,0,0.1,0l0,0c0,0,0.1,0,0.1,0c0,0,0,0,0.1,0c0,0,0,0,0.1,0c0,0,0,0,0.1,0l0,0c0,0,0.1,0,0.1,0h0c0.4-0.1,0.7-0.2,1.1-0.3
		v-1.1h1.8V19.5L102.4,19.5z"/>
	<path class="st1" d="M101.5,27.9v-4.3c1.2,0,2.2,1,2.2,2.2C103.6,26.9,102.6,27.9,101.5,27.9L101.5,27.9L101.5,27.9z M102.4,19.5
		c0.4,0.1,0.8,0.2,1.2,0.3h0c0,0,0.1,0,0.1,0l0,0c0,0,0.1,0,0.1,0l0,0c0,0,0.1,0,0.1,0l0.1,0l0,0c0,0,0.1,0,0.1,0l0,0
		c0,0,0.1,0,0.1,0l0,0c0.4,0.2,0.7,0.4,1,0.6l0.8-0.8l1.3,1.3l-0.8,0.8c0.2,0.3,0.4,0.7,0.6,1l0,0c0,0,0,0.1,0.1,0.1l0,0
		c0,0,0,0.1,0,0.1l0,0c0,0,0,0,0,0.1c0,0,0,0.1,0,0.1l0,0c0,0,0,0.1,0,0.1l0,0c0,0,0,0.1,0,0.1l0,0c0.1,0.4,0.2,0.8,0.3,1.2h1.1v1.8
		h-1.1c-0.1,0.4-0.2,0.8-0.3,1.2l0,0c0,0,0,0.1,0,0.1l0,0c0,0,0,0.1,0,0.1l0,0c0,0,0,0,0,0.1c0,0,0,0,0,0.1l0,0c0,0,0,0.1,0,0.1l0,0
		c0,0,0,0.1-0.1,0.1h0c-0.2,0.4-0.4,0.7-0.6,1l0.8,0.8l-1.3,1.3l-0.8-0.8c-0.3,0.2-0.7,0.5-1,0.6l0,0c0,0-0.1,0-0.1,0l0,0
		c0,0-0.1,0-0.1,0l0,0c0,0-0.1,0-0.1,0c0,0,0,0-0.1,0c0,0,0,0-0.1,0c0,0-0.1,0-0.1,0l0,0c0,0-0.1,0-0.1,0h0
		c-0.4,0.1-0.8,0.2-1.2,0.3v1.1h-0.9v-3.9c1.9,0,3.5-1.6,3.5-3.5c0-1.9-1.6-3.5-3.5-3.5v-3.9h0.9V19.5L102.4,19.5z"/>
</g>
<g>
	<path class="st2" d="M187.3,47.3c21.1,0,38.2,17.1,38.2,38.2c0,21.1-17.1,38.3-38.2,38.3c-21.2,0-38.3-17.1-38.3-38.3
		C149,64.4,166.1,47.3,187.3,47.3L187.3,47.3L187.3,47.3z M187.3,61.8c13,0,23.6,10.6,23.6,23.6c0,13.1-10.6,23.7-23.6,23.7
		c-13.1,0-23.7-10.6-23.7-23.7C163.6,72.4,174.2,61.8,187.3,61.8L187.3,61.8L187.3,61.8z M197.2,17.6c4.4,0.6,8.7,1.6,12.7,3.1h0.1
		c0.3,0.1,0.7,0.3,1.1,0.4l0.3,0.1c0.3,0.1,0.7,0.3,1,0.4l0.4,0.1c0.3,0.1,0.6,0.2,0.8,0.3l0.7,0.3l0.5,0.2c0.3,0.2,0.6,0.3,0.9,0.5
		l0.3,0.1c0.3,0.1,0.7,0.3,1,0.5l0.1,0.1c3.9,1.8,7.6,4.2,11.1,6.8l8.9-8.9l14.1,14.1l-8.9,8.9c2.6,3.5,4.9,7.2,6.7,11.1l0.1,0.1
		c0.2,0.4,0.3,0.7,0.6,1.1l0.1,0.2c0.1,0.3,0.3,0.7,0.4,1l0.2,0.5c0.1,0.3,0.2,0.5,0.2,0.7c0.2,0.3,0.3,0.6,0.4,0.9l0.1,0.3
		c0.1,0.4,0.3,0.7,0.4,1.1l0.1,0.1c0.2,0.4,0.3,0.8,0.4,1.2l0.1,0.1c1.4,4.1,2.4,8.3,3.1,12.7h12.5v20h-12.5
		c-0.7,4.3-1.7,8.6-3.1,12.6l-0.1,0.1c-0.1,0.4-0.2,0.8-0.4,1.1l-0.1,0.3c-0.1,0.3-0.2,0.6-0.3,0.9l-0.2,0.5
		c-0.1,0.3-0.2,0.5-0.2,0.7c-0.2,0.3-0.3,0.5-0.3,0.8l-0.2,0.4c-0.1,0.3-0.3,0.7-0.4,1l-0.1,0.2c-0.2,0.4-0.4,0.8-0.6,1.2h-0.1
		c-1.9,3.9-4.1,7.6-6.7,11.1l8.9,8.9l-14.1,14.1l-8.9-8.9c-3.5,2.7-7.3,4.9-11.2,6.8l0,0c-0.4,0.2-0.7,0.4-1.1,0.5l-0.3,0.1
		c-0.3,0.1-0.7,0.3-0.9,0.5l-0.4,0.1c-0.3,0.1-0.6,0.3-0.8,0.3c-0.2,0.1-0.4,0.2-0.6,0.3c-0.2,0.1-0.4,0.2-0.6,0.3
		c-0.3,0.1-0.6,0.2-0.9,0.3l-0.4,0.1c-0.3,0.1-0.7,0.3-1,0.4h-0.1c-4,1.4-8.3,2.5-12.7,3.1V166h-20v-12.6c-4.4-0.6-8.5-1.6-12.6-3.1
		h-0.1c-0.4-0.1-0.8-0.3-1.2-0.4l-0.2-0.1c-0.3-0.1-0.7-0.3-1-0.4l-0.5-0.1c-0.2-0.1-0.4-0.2-0.7-0.3l-0.7-0.3l-0.4-0.3
		c-0.3-0.1-0.7-0.3-0.9-0.4l-0.3-0.1c-0.4-0.1-0.7-0.3-1.1-0.5l-0.1-0.1c-3.9-1.8-7.7-4.1-11.1-6.8l-8.9,8.9l-14.1-14.1l8.9-8.9
		c-2.6-3.5-4.9-7.2-6.8-11.1v-0.1c-0.2-0.4-0.4-0.7-0.6-1.1l-0.1-0.2c-0.1-0.3-0.3-0.7-0.4-1l-0.3-0.5c-0.1-0.3-0.1-0.5-0.3-0.7
		c-0.1-0.3-0.2-0.6-0.3-0.9l-0.1-0.3c-0.2-0.4-0.3-0.7-0.4-1.1l-0.1-0.1c-0.1-0.4-0.3-0.8-0.4-1.2v-0.1c-1.4-4.1-2.4-8.3-3.1-12.6
		h-12.6v-20h12.6c0.7-4.3,1.7-8.6,3.1-12.7v-0.1c0.2-0.4,0.3-0.8,0.4-1.2l0.1-0.3c0.1-0.3,0.2-0.6,0.4-0.9l0.2-0.5
		c0.1-0.3,0.2-0.5,0.3-0.7c0.2-0.3,0.2-0.5,0.3-0.8l0.2-0.4c0.1-0.3,0.3-0.7,0.4-1l0.1-0.2c0.2-0.4,0.3-0.8,0.6-1.2l0,0
		c1.9-3.9,4.1-7.6,6.8-11.1l-8.9-8.9l14.1-14.1l8.9,8.8c3.5-2.6,7.2-4.9,11.1-6.7l0,0c0.4-0.2,0.8-0.4,1.2-0.5l0.3-0.1
		c0.3-0.1,0.6-0.3,0.9-0.5l0.4-0.1c0.3-0.1,0.6-0.3,0.8-0.3c0.2-0.1,0.4-0.2,0.6-0.3c0.2-0.1,0.4-0.2,0.6-0.3
		c0.3-0.1,0.5-0.2,0.8-0.3l0.3-0.1c0.4-0.1,0.8-0.3,1.2-0.4h0.1c4-1.5,8.2-2.5,12.6-3.1V5.1h20V17.6L197.2,17.6z"/>
	<path class="st1" d="M187.3,109.2V61.8c13,0,23.6,10.6,23.6,23.6C210.9,98.6,200.3,109.2,187.3,109.2L187.3,109.2L187.3,109.2z
		 M197.2,17.6c4.4,0.6,8.7,1.6,12.7,3.1h0.1c0.3,0.1,0.7,0.3,1.1,0.4l0.3,0.1c0.3,0.1,0.7,0.3,1,0.4l0.4,0.1
		c0.3,0.1,0.6,0.2,0.8,0.3l0.7,0.3l0.5,0.2c0.3,0.2,0.6,0.3,0.9,0.5l0.3,0.1c0.3,0.1,0.7,0.3,1,0.5l0.1,0.1
		c3.9,1.8,7.6,4.2,11.1,6.8l8.9-8.9l14.1,14.1l-8.9,8.9c2.6,3.5,4.9,7.2,6.7,11.1l0.1,0.1c0.2,0.4,0.3,0.7,0.6,1.1l0.1,0.2
		c0.1,0.3,0.3,0.7,0.4,1l0.2,0.5c0.1,0.3,0.2,0.5,0.2,0.7c0.2,0.3,0.3,0.6,0.4,0.9l0.1,0.3c0.1,0.4,0.3,0.7,0.4,1.1l0.1,0.1
		c0.2,0.4,0.3,0.8,0.4,1.2l0.1,0.1c1.4,4.1,2.4,8.3,3.1,12.7h12.5v20h-12.5c-0.7,4.3-1.7,8.6-3.1,12.6l-0.1,0.1
		c-0.1,0.4-0.2,0.8-0.4,1.1l-0.1,0.3c-0.1,0.3-0.2,0.6-0.3,0.9l-0.2,0.5c-0.1,0.3-0.2,0.5-0.2,0.7c-0.2,0.3-0.3,0.5-0.3,0.8
		l-0.2,0.4c-0.1,0.3-0.3,0.7-0.4,1l-0.1,0.2c-0.2,0.4-0.4,0.8-0.6,1.2h-0.1c-1.9,3.9-4.1,7.6-6.7,11.1l8.9,8.9l-14.1,14.1l-8.9-8.9
		c-3.5,2.7-7.3,4.9-11.2,6.8l0,0c-0.4,0.2-0.7,0.4-1.1,0.5l-0.3,0.1c-0.3,0.1-0.7,0.3-0.9,0.5l-0.4,0.1c-0.3,0.1-0.6,0.3-0.8,0.3
		c-0.2,0.1-0.4,0.2-0.6,0.3c-0.2,0.1-0.4,0.2-0.6,0.3c-0.3,0.1-0.6,0.2-0.9,0.3l-0.4,0.1c-0.3,0.1-0.7,0.3-1,0.4h-0.1
		c-4,1.4-8.3,2.5-12.7,3.1V166h-9.9v-42.2c21.1,0,38.2-17.1,38.2-38.3c0-21.1-17.1-38.2-38.2-38.2V5.1h9.9V17.6L197.2,17.6z"/>
</g>
<g>
	<g>
		<path class="st3" d="M54.8,81.7h144.2c2,0,3.6,1.6,3.6,3.6v92H51.2v-92C51.2,83.3,52.8,81.7,54.8,81.7L54.8,81.7L54.8,81.7z"/>
		<path class="st1" d="M58.8,89.7h136c1.1,0,2,0.9,2,2v85.6H56.9V91.7C56.9,90.6,57.8,89.7,58.8,89.7L58.8,89.7L58.8,89.7z"/>
		<path class="st2" d="M126.8,89.7h68c1.1,0,2,0.9,2,2v82.3h-70V89.7L126.8,89.7z"/>
		<path class="st3" d="M40.4,176.4h172.9c2.8,0,5.1,2.3,5.1,5.1l0,0c0,2.8-2.3,5-5.1,5H40.4c-2.8,0-5.1-2.3-5.1-5l0,0
			C35.3,178.6,37.6,176.4,40.4,176.4L40.4,176.4L40.4,176.4z"/>
		<path class="st4" d="M42.2,173.9h169.3c1,0,1.8,0.8,1.8,1.8l0,0c0,1-0.8,1.8-1.8,1.8H42.2c-1,0-1.8-0.8-1.8-1.8l0,0
			C40.4,174.7,41.2,173.9,42.2,173.9L42.2,173.9L42.2,173.9z"/>
		<path class="st1" d="M126.8,88c1.2,0,2.3-1,2.3-2.3c0-1.2-1-2.3-2.3-2.3c-1.3,0-2.3,1-2.3,2.3C124.6,87,125.6,88,126.8,88
			L126.8,88L126.8,88z"/>
	</g>
	<path class="st4" d="M131.4,84.7c0.6,0,1,0.5,1,1c0,0.6-0.5,1.1-1,1.1c-0.6,0-1.1-0.5-1.1-1.1C130.3,85.2,130.8,84.7,131.4,84.7
		L131.4,84.7L131.4,84.7z M122.3,84.7c0.6,0,1,0.5,1,1c0,0.6-0.5,1.1-1,1.1c-0.6,0-1.1-0.5-1.1-1.1
		C121.3,85.2,121.7,84.7,122.3,84.7L122.3,84.7L122.3,84.7z"/>
</g>
<g>
	<g>
		<path class="st5" d="M267.2,193.8c4.8,0,8.7-3.9,8.7-8.7c0-4.8-3.9-8.7-8.7-8.7c-4.8,0-8.7,3.9-8.7,8.7
			C258.5,189.9,262.3,193.8,267.2,193.8z"/>
		<path class="st5" d="M243.4,193.4L243.4,193.4c0.1,0.2,0.1,0.3,0.2,0.5l0,0c0,0.1,0.1,0.3,0.1,0.4l0,0.1c0.1,0.1,0.1,0.2,0.1,0.3
			c0.1,0.1,0.1,0.1,0.1,0.2l0.1,0.2c0,0.1,0.1,0.2,0.1,0.4l0,0.1c0.1,0.1,0.1,0.3,0.2,0.4v0.1c0.7,1.3,1.5,2.7,2.4,3.9h40.6
			c0.9-1.2,1.7-2.6,2.4-3.9h0c0-0.1,0.1-0.3,0.2-0.4l0-0.1c0-0.1,0.1-0.2,0.1-0.4l0.1-0.1c0-0.1,0.1-0.2,0.1-0.3
			c0-0.1,0.1-0.2,0.1-0.3l0.1-0.2c0-0.1,0.1-0.2,0.1-0.3l0-0.1c0.1-0.1,0.1-0.3,0.1-0.4l0,0c0.5-1.5,0.9-3,1.1-4.6h4.6v-7.3h-4.6
			c-0.2-1.6-0.6-3.1-1.1-4.6l0,0c0-0.1-0.1-0.3-0.1-0.4l0,0c0-0.1-0.1-0.3-0.1-0.4l0-0.1c-0.1-0.1-0.1-0.2-0.2-0.3
			c0-0.1,0-0.1-0.1-0.2l-0.1-0.2c0-0.1-0.1-0.2-0.1-0.4l0-0.1c-0.1-0.1-0.1-0.3-0.2-0.4l0,0c-0.7-1.4-1.5-2.8-2.5-4.1l3.3-3.3
			l-5.2-5.2l-3.3,3.3c-1.3-1-2.6-1.8-4.1-2.5l0,0c-0.1,0-0.3-0.1-0.4-0.2l-0.1,0c-0.1-0.1-0.2-0.1-0.3-0.2L277,162l-0.2-0.1
			c-0.1-0.1-0.2-0.1-0.3-0.1l-0.1,0c-0.1-0.1-0.2-0.1-0.4-0.1l-0.1,0c-0.1,0-0.3-0.1-0.4-0.1h0c-1.5-0.5-3.1-0.9-4.6-1.1v-4.6h-7.3
			v4.6c-1.6,0.2-3.1,0.6-4.6,1.1h0c-0.1,0-0.3,0.1-0.4,0.1l-0.1,0c-0.1,0.1-0.2,0.1-0.3,0.1c-0.1,0-0.1,0.1-0.2,0.1
			c-0.1,0-0.1,0-0.2,0.1c-0.1,0-0.2,0.1-0.3,0.1l-0.1,0.1c-0.1,0.1-0.2,0.1-0.3,0.2l-0.1,0c-0.1,0.1-0.3,0.1-0.4,0.2
			c-1.4,0.7-2.8,1.5-4.1,2.5l-3.3-3.2l-5.2,5.2l3.3,3.3c-1,1.3-1.8,2.7-2.5,4.1c-0.1,0.1-0.1,0.3-0.2,0.4l0,0.1
			c0,0.1-0.1,0.2-0.1,0.4l-0.1,0.1c0,0.1-0.1,0.2-0.1,0.3c0,0.1-0.1,0.2-0.1,0.3l-0.1,0.2c-0.1,0.1-0.1,0.2-0.1,0.3l0,0.1
			c0,0.1-0.1,0.3-0.2,0.4v0c-0.5,1.5-0.9,3-1.1,4.6h-4.6v7.3h4.6C242.5,190.4,242.9,191.9,243.4,193.4z M267.2,171.1
			c7.7,0,14,6.3,14,14c0,7.8-6.3,14-14,14c-7.8,0-14-6.3-14-14C253.1,177.4,259.4,171.1,267.2,171.1z"/>
	</g>
	<g>
		<path class="st6" d="M275.8,185.1c0-4.8-3.9-8.7-8.7-8.7v17.4C271.9,193.8,275.8,189.9,275.8,185.1z"/>
		<path class="st6" d="M287.4,200c0.9-1.2,1.7-2.6,2.4-3.9h0c0-0.1,0.1-0.3,0.2-0.4l0-0.1c0-0.1,0.1-0.2,0.1-0.4l0.1-0.1
			c0-0.1,0.1-0.2,0.1-0.3c0-0.1,0.1-0.2,0.1-0.3l0.1-0.2c0-0.1,0.1-0.2,0.1-0.3l0-0.1c0.1-0.1,0.1-0.3,0.1-0.4l0,0
			c0.5-1.5,0.9-3,1.1-4.6h4.6v-7.3H292c-0.2-1.6-0.6-3.1-1.1-4.6l0,0c0-0.1-0.1-0.3-0.1-0.4l0,0c0-0.1-0.1-0.3-0.1-0.4l0-0.1
			c-0.1-0.1-0.1-0.2-0.2-0.3c0-0.1,0-0.1-0.1-0.2l-0.1-0.2c0-0.1-0.1-0.2-0.1-0.4l0-0.1c-0.1-0.1-0.1-0.3-0.2-0.4l0,0
			c-0.7-1.4-1.5-2.8-2.5-4.1l3.3-3.3l-5.2-5.2l-3.3,3.3c-1.3-1-2.6-1.8-4.1-2.5l0,0c-0.1,0-0.3-0.1-0.4-0.2l-0.1,0
			c-0.1-0.1-0.2-0.1-0.3-0.2L277,162l-0.2-0.1c-0.1-0.1-0.2-0.1-0.3-0.1l-0.1,0c-0.1-0.1-0.2-0.1-0.4-0.1l-0.1,0
			c-0.1,0-0.3-0.1-0.4-0.1h0c-1.5-0.5-3.1-0.9-4.6-1.1v-4.6h-3.6v15.5c7.7,0,14,6.3,14,14c0,7.8-6.3,14-14,14v0.8H287.4z"/>
	</g>
</g>
<g>
	<path class="st5" d="M25,13c-7.2,0-12.9,5.8-12.9,12.9c0,7.2,5.8,12.9,12.9,12.9c7.1,0,12.9-5.8,12.9-12.9C37.9,18.8,32.1,13,25,13
		z"/>
	<path class="st5" d="M62.1,20.5c-0.4-2.4-0.9-4.7-1.7-6.9l-0.1,0c-0.1-0.2-0.1-0.4-0.2-0.6l0-0.1c-0.1-0.2-0.2-0.4-0.2-0.6L59.8,12
		c-0.1-0.1-0.2-0.3-0.2-0.5c0-0.1-0.1-0.2-0.1-0.4L59.4,11c-0.1-0.2-0.2-0.4-0.2-0.5l-0.1-0.1c-0.1-0.2-0.2-0.4-0.3-0.6l0-0.1
		c-1-2.1-2.2-4.1-3.7-6L58.7,0H-0.2v58.8L2.7,56c1.9,1.4,3.9,2.7,6.1,3.7l0,0C9,59.8,9.2,59.9,9.4,60L9.5,60
		c0.2,0.1,0.3,0.1,0.5,0.2l0.2,0.1l0.4,0.1c0.2,0.1,0.3,0.1,0.4,0.2l0.3,0.1c0.2,0.1,0.4,0.1,0.5,0.2l0.1,0.1
		c0.2,0.1,0.4,0.1,0.6,0.2h0.1c2.2,0.8,4.5,1.4,6.9,1.7v6.9h10.9V63c2.4-0.3,4.7-0.9,6.9-1.7h0.1c0.2-0.1,0.4-0.1,0.6-0.2l0.2-0.1
		c0.2-0.1,0.3-0.1,0.5-0.2c0.1,0,0.2-0.1,0.3-0.1c0.1,0,0.2-0.1,0.3-0.1c0.2,0,0.3-0.1,0.5-0.2l0.2-0.1c0.2-0.1,0.3-0.2,0.5-0.3
		l0.2-0.1c0.2-0.1,0.4-0.2,0.6-0.3c2.1-1,4.2-2.2,6.1-3.7l4.8,4.9l7.7-7.7l-4.8-4.9c1.4-1.9,2.6-4,3.7-6.1h0
		c0.1-0.2,0.2-0.4,0.3-0.6l0.1-0.1c0.1-0.2,0.2-0.4,0.2-0.5l0.1-0.2c0-0.1,0.1-0.3,0.2-0.4c0-0.1,0.1-0.2,0.1-0.4l0.1-0.3
		c0.1-0.2,0.2-0.4,0.2-0.5l0.1-0.2c0.1-0.2,0.2-0.4,0.2-0.6l0.1,0c0.8-2.2,1.3-4.5,1.7-6.9h6.8V20.5H62.1z M25,46.8
		c-11.6,0-20.9-9.3-20.9-20.9C4.2,14.4,13.5,5.1,25,5.1c11.5,0,20.8,9.3,20.8,20.8C45.9,37.5,36.5,46.8,25,46.8z"/>
</g>
<g>
	<path class="st6" d="M37.9,25.9C37.9,18.8,32.1,13,25,13v25.8C32.1,38.8,37.9,33.1,37.9,25.9z"/>
	<path class="st6" d="M60.4,13.6L60.4,13.6c-0.1-0.2-0.2-0.5-0.3-0.7l0-0.1c-0.1-0.2-0.2-0.4-0.2-0.6L59.8,12
		c-0.1-0.1-0.2-0.3-0.2-0.5c0-0.1-0.1-0.2-0.1-0.4L59.4,11c-0.1-0.2-0.2-0.4-0.2-0.5l-0.1-0.1c-0.1-0.2-0.2-0.4-0.3-0.6l0-0.1
		c-1-2.1-2.2-4.1-3.7-6l3.7-3.7H25v5.2c11.5,0,20.8,9.3,20.8,20.8c0,11.5-9.4,20.9-20.8,20.9v23h5.4V63c2.4-0.3,4.7-0.9,6.9-1.7h0.1
		c0.2-0.1,0.4-0.1,0.6-0.2l0.2-0.1c0.2-0.1,0.3-0.1,0.5-0.2c0.1,0,0.2-0.1,0.3-0.1c0.1,0,0.2-0.1,0.3-0.1c0.2,0,0.3-0.1,0.5-0.2
		l0.2-0.1c0.2-0.1,0.3-0.2,0.5-0.3l0.2-0.1c0.2-0.1,0.4-0.2,0.6-0.3c2.1-1,4.2-2.2,6.1-3.7l4.8,4.9l7.7-7.7l-4.8-4.9
		c1.4-1.9,2.6-4,3.7-6.1h0c0.1-0.2,0.2-0.4,0.3-0.6l0.1-0.1c0.1-0.2,0.2-0.4,0.2-0.5l0.1-0.2c0-0.1,0.1-0.3,0.2-0.4
		c0-0.1,0.1-0.2,0.1-0.4l0.1-0.3c0.1-0.2,0.2-0.4,0.2-0.5l0.1-0.2c0.1-0.2,0.2-0.4,0.2-0.6l0.1,0c0.8-2.2,1.3-4.5,1.7-6.9h6.8V20.5
		h-6.8C61.7,18.1,61.2,15.8,60.4,13.6z"/>
</g>
<g>
	<path class="st3" d="M161.8,106.9c4.9,0,9.1,3.1,10.8,7.4h-4.2c-1.4-2.2-3.8-3.6-6.6-3.6c-4.3,0-7.8,3.5-7.8,7.8
		c0,4.3,3.5,7.8,7.8,7.8c0.5,0,1.1,0,1.6-0.2v3.8c-0.5,0.1-1,0.1-1.6,0.1c-6.4,0-11.6-5.2-11.6-11.6
		C150.2,112.1,155.4,106.9,161.8,106.9L161.8,106.9L161.8,106.9z"/>
	<path class="st1" d="M170.8,114.3h-2.4c-1.4-2.2-3.8-3.6-6.6-3.6c-4.3,0-7.8,3.5-7.8,7.8c0,1.9,0.7,3.7,1.8,5
		c1.1,2.6,3.4,4.3,6.1,4.3c0.5,0,0.9,0,1.4-0.2v2.3c-0.5,0.1-1,0.1-1.5,0.1c-3.2,0-6-1.3-8.1-3.3c-1.2-1.9-1.9-4.2-1.9-6.7
		c0-6.4,4.5-11.6,10.1-11.6C165.8,108.4,169.1,110.8,170.8,114.3L170.8,114.3L170.8,114.3z"/>
	<path class="st3" d="M149.6,120.6h24.5c2.4,0,4.4,2,4.4,4.4v27.3c0,2.4-2,4.4-4.4,4.4h-24.5c-2.4,0-4.4-2-4.4-4.4V125
		C145.2,122.6,147.2,120.6,149.6,120.6L149.6,120.6L149.6,120.6z"/>
	<path class="st7" d="M161.8,120.6h12.3c2.4,0,4.4,2,4.4,4.4v27.3c0,2.4-2,4.4-4.4,4.4h-12.3V120.6L161.8,120.6z"/>
	<path class="st4" d="M161.8,132.4c2.5,0,4.5,2,4.5,4.5c0,1.8-1,3.3-2.5,4c0.1,0.5,0.1,0.9,0.1,1.4c0,2.8-0.9,5.1-2.1,5.1
		c-1.1,0-2-2.3-2-5.1c0-0.5,0-1,0.1-1.4c-1.5-0.7-2.5-2.3-2.5-4C157.3,134.4,159.4,132.4,161.8,132.4L161.8,132.4L161.8,132.4z"/>
	<path class="st3" d="M161.8,140.3c1.8,0,3.3-1.5,3.3-3.3c0-1.8-1.5-3.3-3.3-3.3c-1.8,0-3.3,1.5-3.3,3.3
		C158.5,138.8,160,140.3,161.8,140.3L161.8,140.3L161.8,140.3z"/>
</g>
<g>
	<path class="st7" d="M113.4,142c-2.7,0-4.9,2.2-4.9,4.9c0,2.7,2.2,4.9,4.9,4.9c2.7,0,4.9-2.2,4.9-4.9
		C118.4,144.2,116.2,142,113.4,142L113.4,142z M110.4,136.8c0,1.2-0.1,2.4-0.3,3.5c1-0.5,2.2-0.8,3.4-0.8c4.1,0,7.4,3.3,7.4,7.4
		c0,4.1-3.3,7.4-7.4,7.4c-3.3,0-6-2.1-7-5.1c-3.9,5.6-10.4,9.2-17.8,9.2c-12,0-21.7-9.7-21.7-21.8H110.4L110.4,136.8z"/>
	<path class="st7" d="M71.4,157.1h34.7c0.7,0,1.3,0.6,1.3,1.3v1.3H70.2v-1.3C70.2,157.6,70.7,157.1,71.4,157.1L71.4,157.1z"/>
	<path class="st7" d="M79.6,130.4L79.6,130.4c0.9,0,1.7-0.7,1.7-1.6v-9.1c0-0.9-0.7-1.6-1.7-1.6c-0.9,0-1.6,0.7-1.6,1.6v9.1
		C78,129.6,78.7,130.4,79.6,130.4L79.6,130.4z"/>
	<path class="st7" d="M88,133.5L88,133.5c0.9,0,1.6-0.7,1.6-1.6V109c0-0.9-0.7-1.6-1.6-1.6c-0.9,0-1.6,0.7-1.6,1.6v22.8
		C86.3,132.7,87.1,133.5,88,133.5L88,133.5z"/>
	<path class="st7" d="M96.8,130.2L96.8,130.2c0.9,0,1.7-0.7,1.7-1.7v-13.6c0-0.9-0.7-1.7-1.7-1.7c-0.9,0-1.6,0.7-1.6,1.7v13.6
		C95.2,129.5,95.9,130.2,96.8,130.2L96.8,130.2z"/>
</g>
</svg>
