<svg id="Layer_1" data-name="Layer 1" xmlns="http://www.w3.org/2000/svg" xmlns:xlink="http://www.w3.org/1999/xlink" viewBox="0 0 930 300"><defs><style>.cls-1{fill:none;}.cls-2{fill:#ffd980;}.cls-3{clip-path:url(#clip-path);}.cls-4{fill:#f7c040;}.cls-5{fill:#edaa30;}.cls-6{fill:#67e385;}.cls-7{fill:#2bab47;}.cls-8{fill:#546a79;}.cls-9{fill:#28384c;}.cls-10{fill:#f4821f;}.cls-11{fill:url(#linear-gradient);}.cls-12{fill:#38454f;}.cls-13{fill:#283238;}.cls-14{fill:#fff;}.cls-15{fill:#ff5b62;}.cls-16{fill:#ed4c54;}.cls-17{fill:#fad24d;}.cls-18{fill:#f5a30a;}.cls-19{fill:#7c7f95;}.cls-20{fill:#999aac;}.cls-21{fill:#005984;}.cls-22{fill:#231f20;opacity:0.1;}</style><clipPath id="clip-path"><rect class="cls-1" width="930" height="300"/></clipPath><linearGradient id="linear-gradient" x1="1217.42" y1="-335.33" x2="1743.54" y2="-335.33" gradientTransform="matrix(0.17, 0, 0, -0.17, 193.63, 111.71)" gradientUnits="userSpaceOnUse"><stop offset="0" stop-color="#21672f"/><stop offset="0.49" stop-color="#578a32"/><stop offset="1" stop-color="#8eae36"/></linearGradient></defs><title>обслуживание_сервер</title><rect id="Background_1" data-name="Background 1" class="cls-2" width="930" height="300"/><g class="cls-3"><path class="cls-4" d="M492.37,333.1V290.64l-26-3.06a144.91,144.91,0,0,0-7.15-26.76l21-15.64L459,208.42l-24.06,10.36a147,147,0,0,0-19.58-19.58l10.36-24.06-36.76-21.23-15.63,21a145.79,145.79,0,0,0-26.77-7.15l-3.06-26H301l-3.06,26a144.74,144.74,0,0,0-26.76,7.15l-15.64-21-36.76,21.23,10.36,24.06a147,147,0,0,0-19.57,19.58l-24.06-10.36-21.23,36.76,21,15.63a145.65,145.65,0,0,0-7.15,26.76l-26,3.06V333.1l26,3.06a144.91,144.91,0,0,0,7.15,26.76l-21,15.64,21.23,36.76L209.57,405a147,147,0,0,0,19.58,19.57l-10.36,24.06,36.76,21.23,15.63-21A145.65,145.65,0,0,0,298,456L301,482h42.46l3.06-26a144.91,144.91,0,0,0,26.76-7.15l15.64,21,36.76-21.23-10.36-24.06A147,147,0,0,0,434.9,405L459,415.32l21.23-36.76-21-15.63a145.65,145.65,0,0,0,7.15-26.76ZM322.24,368.73a56.86,56.86,0,1,1,56.86-56.86A56.86,56.86,0,0,1,322.24,368.73Z"/><path class="cls-5" d="M322.24,232.37a79.5,79.5,0,1,0,79.5,79.5A79.5,79.5,0,0,0,322.24,232.37Zm0,136.37a56.86,56.86,0,1,1,56.86-56.86A56.86,56.86,0,0,1,322.24,368.73Z"/><path class="cls-4" d="M974.38-86.81l5.31-58.78-35.61-7.49A201.44,201.44,0,0,0,937.53-191l31-19L943.74-263.6l-34.6,11.33a204.33,204.33,0,0,0-24.65-29.56l17.35-32-48.24-34-24.27,27.07A202.66,202.66,0,0,0,793.16-334l-1-36.38-58.78-5.31-7.49,35.61A201.2,201.2,0,0,0,688-333.53l-19-31L615.4-339.74l11.33,34.6a204.29,204.29,0,0,0-29.55,24.66l-32-17.35-34,48.24,27.07,24.27A202.47,202.47,0,0,0,545-189.17l-36.38,1-5.31,58.78,35.61,7.49A201.44,201.44,0,0,0,545.47-84l-31,19L539.26-11.4l34.6-11.33A204.29,204.29,0,0,0,598.52,6.82l-17.35,32,48.24,34,24.27-27.07A202.47,202.47,0,0,0,689.83,59l1,36.38,58.78,5.31,7.49-35.61A201.44,201.44,0,0,0,795,58.53l19,31L867.6,64.74l-11.33-34.6A204.29,204.29,0,0,0,885.82,5.48l32,17.35,34-48.24L924.75-49.68A202.47,202.47,0,0,0,938-85.83Zm-240,28a79,79,0,0,1-71.6-85.84,79,79,0,0,1,85.84-71.6,79,79,0,0,1,71.6,85.84A79,79,0,0,1,734.38-58.77Z"/><path class="cls-4" d="M137.48,35.8V6.94L119.81,4.86a98.49,98.49,0,0,0-4.86-18.19L129.2-24l-14.43-25-16.35,7A99.9,99.9,0,0,0,85.12-55.21l7-16.35L67.17-86,56.55-71.73a99.09,99.09,0,0,0-18.19-4.86L36.28-94.26H7.42L5.34-76.59a98.37,98.37,0,0,0-18.19,4.86L-23.47-86l-25,14.43,7,16.35A99.88,99.88,0,0,0-54.72-41.9l-16.35-7L-85.5-24l14.25,10.63A99,99,0,0,0-76.11,4.86L-93.78,6.94V35.8l17.67,2.08a98.49,98.49,0,0,0,4.86,18.19L-85.5,66.69l14.43,25,16.35-7a99.88,99.88,0,0,0,13.31,13.3l-7,16.35,25,14.43,10.63-14.25a99,99,0,0,0,18.19,4.86L7.42,137H36.28l2.08-17.67a98.49,98.49,0,0,0,18.19-4.86l10.63,14.25,25-14.43-7-16.35a99.88,99.88,0,0,0,13.3-13.31l16.35,7,14.43-25L114.95,56.06a99,99,0,0,0,4.86-18.19ZM21.85,60A38.65,38.65,0,1,1,60.5,21.37,38.65,38.65,0,0,1,21.85,60Z"/><path class="cls-5" d="M21.85-32.67a54,54,0,1,0,54,54A54,54,0,0,0,21.85-32.67Zm0,92.68A38.65,38.65,0,1,1,60.5,21.37,38.65,38.65,0,0,1,21.85,60Z"/></g><path class="cls-6" d="M445,253.52A13.49,13.49,0,1,1,431.51,267,13.49,13.49,0,0,1,445,253.52Z"/><path class="cls-7" d="M445,253.52A13.49,13.49,0,1,1,431.51,267,13.49,13.49,0,0,1,445,253.52Z"/><path class="cls-6" d="M445,19.64a13.49,13.49,0,1,1-13.49,13.49A13.49,13.49,0,0,1,445,19.64Z"/><path class="cls-7" d="M445,19.64a13.49,13.49,0,1,1-13.49,13.49A13.49,13.49,0,0,1,445,19.64Z"/><path class="cls-8" d="M409,231a4.5,4.5,0,0,0-4.5,4.5v14.13a18,18,0,1,0,9,0V240h63v9.63a18,18,0,1,0,9,0V235.53A4.5,4.5,0,0,0,481,231H449.5V195h-9v36Zm9,36a9,9,0,1,1-9-9A9,9,0,0,1,418,267Zm72,0a9,9,0,1,1-9-9A9,9,0,0,1,490,267Z"/><path class="cls-8" d="M463,33.13a18,18,0,0,0,13.49,17.35v9.63h-63V50.48a18,18,0,1,0-9,0V64.61a4.5,4.5,0,0,0,4.5,4.5H440.5v36h9v-36H481a4.5,4.5,0,0,0,4.5-4.5V50.48A18,18,0,1,0,463,33.13Zm-63,0a9,9,0,1,1,9,9A9,9,0,0,1,400,33.13Zm90,0a9,9,0,1,1-9-9A9,9,0,0,1,490,33.13Z"/><path class="cls-8" d="M458,154.57v-9H592v9Z"/><path class="cls-9" d="M457,84H433V97.4A53.72,53.72,0,0,0,416.9,104L409,96l-18,18,7.94,7.94a53.72,53.72,0,0,0-6.55,16.09h-13.4v24h13.4a53.72,53.72,0,0,0,6.55,16.09l-7.94,7.94,18,18,7.94-7.94A53.72,53.72,0,0,0,433,202.74v13.4h24v-13.4a53.72,53.72,0,0,0,16.09-6.55l7.94,7.94,18-18-7.94-7.94a53.72,53.72,0,0,0,6.55-16.09h13.4v-24h-13.4A53.72,53.72,0,0,0,491.12,122l7.94-7.94L481,96,473.1,104A53.72,53.72,0,0,0,457,97.4Z"/><g id="Слой_1"><g id="_2524933709808" data-name=" 2524933709808"><path class="cls-10" d="M411.28,134c.95-2.44,2.33-4,7.34-4,3,0,5.79.37,7.34,4l11.84,28.59h-10.9l-2.5-6.67H412.84l-2.5,6.67h-11Zm4,14.59h6.67L419,140.46c-.1-.24-.27-.68-.34-.68s-.34.44-.44.68l-2.94,8.12Z"/><path class="cls-10" d="M452.84,152.23c.17.51.41.68.61.68s.34-.17.51-.68l7.61-21.79h11l-11.13,27.31c-1.12,2.77-2.94,5.18-8,5.18s-7-2.4-8.12-5.18l-11.17-27.31h11.07l7.61,21.79Z"/><polygon class="cls-10" points="477.54 162.49 477.54 130.37 488 130.37 488 162.49 477.54 162.49"/></g><polygon class="cls-11" points="488.23 169.42 399.33 169.42 399.33 167.33 488.23 167.33 488.23 169.42"/></g><rect class="cls-9" x="581.43" y="43.31" width="146.56" height="184.27"/><path class="cls-12" d="M733.19,272.26H576.48a4.48,4.48,0,0,1-4.48-4.48V232.13a4.48,4.48,0,0,1,4.48-4.48H733.19a4.48,4.48,0,0,1,4.48,4.48v35.64A4.48,4.48,0,0,1,733.19,272.26Z"/><path class="cls-9" d="M591.12,285h0a9.56,9.56,0,0,1-9.56-9.56v-3.19h19.12v3.19A9.56,9.56,0,0,1,591.12,285Z"/><path class="cls-9" d="M718.56,285h0a9.56,9.56,0,0,1-9.56-9.56v-3.19h19.12v3.19A9.56,9.56,0,0,1,718.56,285Z"/><circle class="cls-8" cx="724.93" cy="243.58" r="3.19"/><circle class="cls-8" cx="712.18" cy="243.58" r="3.19"/><circle class="cls-8" cx="718.56" cy="256.33" r="3.19"/><circle class="cls-8" cx="705.81" cy="256.33" r="3.19"/><circle class="cls-8" cx="699.44" cy="243.58" r="3.19"/><circle class="cls-8" cx="693.07" cy="256.33" r="3.19"/><circle class="cls-8" cx="686.7" cy="243.58" r="3.19"/><circle class="cls-8" cx="680.32" cy="256.33" r="3.19"/><circle class="cls-8" cx="673.95" cy="243.58" r="3.19"/><circle class="cls-8" cx="667.58" cy="256.33" r="3.19"/><path class="cls-8" d="M733.19,219.08H576.48A4.48,4.48,0,0,1,572,214.6V179a4.48,4.48,0,0,1,4.48-4.48H733.19a4.48,4.48,0,0,1,4.48,4.48V214.6A4.48,4.48,0,0,1,733.19,219.08Z"/><path class="cls-12" d="M733.19,165.91H576.48a4.48,4.48,0,0,1-4.48-4.48V125.78a4.48,4.48,0,0,1,4.48-4.48H733.19a4.48,4.48,0,0,1,4.48,4.48v35.64A4.48,4.48,0,0,1,733.19,165.91Z"/><circle class="cls-12" cx="724.93" cy="190.41" r="3.19"/><circle class="cls-12" cx="712.18" cy="190.41" r="3.19"/><circle class="cls-12" cx="718.56" cy="203.15" r="3.19"/><circle class="cls-12" cx="705.81" cy="203.15" r="3.19"/><circle class="cls-12" cx="699.44" cy="190.41" r="3.19"/><circle class="cls-12" cx="693.07" cy="203.15" r="3.19"/><circle class="cls-12" cx="686.7" cy="190.41" r="3.19"/><circle class="cls-12" cx="680.32" cy="203.15" r="3.19"/><circle class="cls-12" cx="673.95" cy="190.41" r="3.19"/><circle class="cls-12" cx="667.58" cy="203.15" r="3.19"/><circle class="cls-8" cx="724.93" cy="137.23" r="3.19"/><circle class="cls-8" cx="712.18" cy="137.23" r="3.19"/><circle class="cls-8" cx="718.56" cy="149.98" r="3.19"/><circle class="cls-8" cx="705.81" cy="149.98" r="3.19"/><circle class="cls-8" cx="699.44" cy="137.23" r="3.19"/><circle class="cls-8" cx="693.07" cy="149.98" r="3.19"/><circle class="cls-8" cx="686.7" cy="137.23" r="3.19"/><circle class="cls-8" cx="680.32" cy="149.98" r="3.19"/><circle class="cls-8" cx="673.95" cy="137.23" r="3.19"/><circle class="cls-8" cx="667.58" cy="149.98" r="3.19"/><circle class="cls-13" cx="597.49" cy="143.6" r="9.56"/><circle class="cls-6" cx="597.49" cy="143.6" r="6.37"/><circle class="cls-13" cx="597.49" cy="196.78" r="9.56"/><circle class="cls-6" cx="597.49" cy="196.78" r="6.37"/><path class="cls-8" d="M733.19,112.81H576.48a4.48,4.48,0,0,1-4.48-4.48V72.68a4.48,4.48,0,0,1,4.48-4.48H733.19a4.48,4.48,0,0,1,4.48,4.48v35.64A4.48,4.48,0,0,1,733.19,112.81Z"/><path class="cls-12" d="M733.19,59.63H576.48A4.48,4.48,0,0,1,572,55.15V19.51A4.48,4.48,0,0,1,576.48,15H733.19a4.48,4.48,0,0,1,4.48,4.48V55.15A4.48,4.48,0,0,1,733.19,59.63Z"/><circle class="cls-12" cx="724.93" cy="84.13" r="3.19"/><circle class="cls-12" cx="712.18" cy="84.13" r="3.19"/><circle class="cls-12" cx="718.56" cy="96.88" r="3.19"/><circle class="cls-12" cx="705.81" cy="96.88" r="3.19"/><circle class="cls-12" cx="699.44" cy="84.13" r="3.19"/><circle class="cls-12" cx="693.07" cy="96.88" r="3.19"/><circle class="cls-12" cx="686.7" cy="84.13" r="3.19"/><circle class="cls-12" cx="680.32" cy="96.88" r="3.19"/><circle class="cls-12" cx="673.95" cy="84.13" r="3.19"/><circle class="cls-12" cx="667.58" cy="96.88" r="3.19"/><circle class="cls-8" cx="724.93" cy="30.96" r="3.19"/><circle class="cls-8" cx="712.18" cy="30.96" r="3.19"/><circle class="cls-8" cx="718.56" cy="43.7" r="3.19"/><circle class="cls-8" cx="705.81" cy="43.7" r="3.19"/><circle class="cls-8" cx="699.44" cy="30.96" r="3.19"/><circle class="cls-8" cx="693.07" cy="43.7" r="3.19"/><circle class="cls-8" cx="686.7" cy="30.96" r="3.19"/><circle class="cls-8" cx="680.32" cy="43.7" r="3.19"/><circle class="cls-8" cx="673.95" cy="30.96" r="3.19"/><circle class="cls-8" cx="667.58" cy="43.7" r="3.19"/><circle class="cls-13" cx="597.49" cy="37.33" r="9.56"/><circle class="cls-6" cx="597.49" cy="37.33" r="6.37"/><circle class="cls-13" cx="597.49" cy="90.5" r="9.56"/><circle class="cls-6" cx="597.49" cy="90.5" r="6.37"/><circle class="cls-13" cx="597.49" cy="249.95" r="9.56"/><circle class="cls-6" cx="597.49" cy="249.95" r="6.37"/><g class="cls-3"><circle class="cls-6" cx="824.64" cy="198.36" r="127.36"/><path class="cls-14" d="M824.64,84.59A113.78,113.78,0,1,1,710.86,198.37,113.77,113.77,0,0,1,824.64,84.59Z"/><path class="cls-15" d="M839.48,180.52a33.77,33.77,0,0,1-2.21-60.44V147l16.21,8,16-8V120.06a33.78,33.78,0,0,1-2.15,60.44,14,14,0,0,1,.18,2.23l0,121a113.19,113.19,0,0,1-28.21,7.43l0-128.45a14.08,14.08,0,0,1,.18-2.23Z"/><path class="cls-16" d="M860.49,306.37a113.25,113.25,0,0,1-14.2,3.71V193a7.12,7.12,0,0,1,7.1-7.1h0a7.14,7.14,0,0,1,7.1,7.1V306.37Z"/><path class="cls-17" d="M767.87,233.16h3.69v-3.61a2.81,2.81,0,0,1,2.81-2.81h24.4a2.82,2.82,0,0,1,2.81,2.81v3.61h3.69a5.77,5.77,0,0,1,5.75,5.75v72.42l-1.66-.21-1.15-.16-1.83-.28-.35-.06-.83-.14-1.54-.28-.11,0-.82-.16-.15,0-1.49-.3-.81-.17-.31-.07-2-.45-.15,0-.81-.2-.07,0-1.51-.39h0l-.8-.22-.14,0c-.71-.19-1.41-.39-2.11-.6l-.14,0-.79-.24-1.57-.49-.78-.25h0c-.75-.25-1.49-.5-2.24-.76l-.08,0c-.76-.27-1.52-.54-2.27-.83l-.76-.29-1.52-.6-.76-.31q-4.9-2-9.57-4.46l-.72-.38-2.1-1.14-.05,0-2-1.17-.12-.07q-1-.59-2-1.21l-.69-.42-1.89-1.22-.14-.09V238.92a5.77,5.77,0,0,1,5.75-5.75Z"/><rect class="cls-12" x="779.82" y="158.51" width="13.52" height="68.22"/><path class="cls-8" d="M780.52,120.08h12.1l8,31.49-6.76,8.54H779.28l-6.76-8.54Z"/><path class="cls-18" d="M771.73,240.31h0a3.8,3.8,0,0,1,3.79,3.79V301q-3.87-1.85-7.57-4V244.1A3.8,3.8,0,0,1,771.73,240.31Zm33.47,70.17c-2.55-.44-5.08-1-7.57-1.57V244.1a3.8,3.8,0,0,1,3.79-3.79h0a3.8,3.8,0,0,1,3.79,3.79v66.38Zm-14.84-3.6q-3.85-1.21-7.57-2.69V244.1a3.8,3.8,0,0,1,3.79-3.79h0a3.8,3.8,0,0,1,3.79,3.79v62.78h0Z"/></g><g class="cls-3"><path class="cls-8" d="M4.29,54H297.45a7.42,7.42,0,0,1,7.42,7.42V354.58a7.42,7.42,0,0,1-7.42,7.42H4.29a7.42,7.42,0,0,1-7.42-7.42V61.42A7.42,7.42,0,0,1,4.29,54Z"/><path class="cls-8" d="M24.87,54h126a28,28,0,0,1,28,28V334a28,28,0,0,1-28,28h-126a28,28,0,0,1-28-28V82A28,28,0,0,1,24.87,54Z"/><path class="cls-19" d="M3.05,54H172.68a6.18,6.18,0,0,1,6.18,6.18V355.82a6.18,6.18,0,0,1-6.18,6.18H3.05a6.18,6.18,0,0,1-6.18-6.18V60.18A6.18,6.18,0,0,1,3.05,54Z"/><path class="cls-12" d="M190.51,54.11A14,14,0,0,0,177.3,72.74l0,.06h0v0h0v.07h0l0,.14v0h0l.07.2h0a27.89,27.89,0,0,1,1.12,4.83v0h0v0h0l0,.15v0h0v0h0l0,.18h0v0h0c0,.06,0,.12,0,.18h0v0h0v0s0,.1,0,.14h0v0h0v0h0v.14h0v0h0v0h0v0h0v.1h0v0h0v.11h0v.05h0v.62h0v.43h0v0h0V334.68h0v.21h0V335h0v0h0v.13h0v0h0v.09h0v0h0s0,.09,0,.13h0a28.06,28.06,0,0,1-1.31,7.14,14,14,0,0,0,26.64,8.63v0A55.94,55.94,0,0,0,206.87,334V82a55.86,55.86,0,0,0-3.14-18.52A14,14,0,0,0,190.51,54.11Z"/><path class="cls-8" d="M164.87,82V334a14,14,0,0,1-14,14h-126a14,14,0,0,1-14-14V82a14,14,0,0,1,14-14h126A14,14,0,0,1,164.87,82Z"/><path class="cls-12" d="M150.87,124h-126a14,14,0,0,1-14-14V82a14,14,0,0,1,14-14h126a14,14,0,0,1,14,14v28A14,14,0,0,1,150.87,124Z"/><path class="cls-12" d="M24.87,124h126a14,14,0,0,1,14,14v28a14,14,0,0,1-14,14h-126a14,14,0,0,1-14-14V138A14,14,0,0,1,24.87,124Z"/><path class="cls-12" d="M24.87,180h126a14,14,0,0,1,14,14v28a14,14,0,0,1-14,14h-126a14,14,0,0,1-14-14V194A14,14,0,0,1,24.87,180Z"/><path class="cls-8" d="M45.87,194h84a7,7,0,1,1,0,14h-84a7,7,0,1,1,0-14Z"/><path class="cls-8" d="M45.87,138h84a7,7,0,0,1,0,14h-84a7,7,0,0,1,0-14Z"/><path class="cls-8" d="M45.87,82h84a7,7,0,1,1,0,14h-84a7,7,0,1,1,0-14Z"/><path class="cls-20" d="M45.87,82h14a7,7,0,1,1,0,14h-14a7,7,0,1,1,0-14Z"/><path class="cls-20" d="M45.87,138h14a7,7,0,0,1,0,14h-14a7,7,0,0,1,0-14Z"/><path class="cls-20" d="M45.87,194h14a7,7,0,1,1,0,14h-14a7,7,0,1,1,0-14Z"/><path class="cls-12" d="M24.87,236h126a14,14,0,0,1,14,14v28a14,14,0,0,1-14,14h-126a14,14,0,0,1-14-14V250A14,14,0,0,1,24.87,236Z"/><path class="cls-8" d="M45.87,250h84a7,7,0,1,1,0,14h-84a7,7,0,1,1,0-14Z"/><path class="cls-12" d="M24.87,292h126a14,14,0,0,1,14,14v28a14,14,0,0,1-14,14h-126a14,14,0,0,1-14-14V306A14,14,0,0,1,24.87,292Z"/><path class="cls-16" d="M38.87,103a7,7,0,1,1-7-7A7,7,0,0,1,38.87,103Z"/><path class="cls-6" d="M66.87,103a7,7,0,1,1-7-7A7,7,0,0,1,66.87,103Z"/><path class="cls-16" d="M38.87,159a7,7,0,1,1-7-7A7,7,0,0,1,38.87,159Z"/><path class="cls-6" d="M66.87,159a7,7,0,1,1-7-7A7,7,0,0,1,66.87,159Z"/><path class="cls-16" d="M38.87,215a7,7,0,1,1-7-7A7,7,0,0,1,38.87,215Z"/><path class="cls-6" d="M66.87,215a7,7,0,1,1-7-7A7,7,0,0,1,66.87,215Z"/><path class="cls-16" d="M38.87,271a7,7,0,1,1-7-7A7,7,0,0,1,38.87,271Z"/><path class="cls-6" d="M66.87,271a7,7,0,1,1-7-7A7,7,0,0,1,66.87,271Z"/><path class="cls-9" d="M87.87,82a7,7,0,0,1,7,7v14a7,7,0,0,1-14,0V89A7,7,0,0,1,87.87,82Z"/><path class="cls-9" d="M115.87,82a7,7,0,0,1,7,7v14a7,7,0,1,1-14,0V89A7,7,0,0,1,115.87,82Z"/><path class="cls-9" d="M143.87,82a7,7,0,0,1,7,7v14a7,7,0,0,1-14,0V89A7,7,0,0,1,143.87,82Z"/><path class="cls-9" d="M87.87,138a7,7,0,0,1,7,7v14a7,7,0,0,1-14,0V145A7,7,0,0,1,87.87,138Z"/><path class="cls-9" d="M115.87,138a7,7,0,0,1,7,7v14a7,7,0,1,1-14,0V145A7,7,0,0,1,115.87,138Z"/><path class="cls-9" d="M115.87,194a7,7,0,0,1,7,7v14a7,7,0,1,1-14,0V201A7,7,0,0,1,115.87,194Z"/><path class="cls-9" d="M115.87,250a7,7,0,0,1,7,7v14a7,7,0,1,1-14,0V257A7,7,0,0,1,115.87,250Z"/><path class="cls-9" d="M143.87,138a7,7,0,0,1,7,7v14a7,7,0,0,1-14,0V145A7,7,0,0,1,143.87,138Z"/><path class="cls-9" d="M87.87,194a7,7,0,0,1,7,7v14a7,7,0,0,1-14,0V201A7,7,0,0,1,87.87,194Z"/><path class="cls-9" d="M143.87,194a7,7,0,0,1,7,7v14a7,7,0,0,1-14,0V201A7,7,0,0,1,143.87,194Z"/><path class="cls-9" d="M87.87,250a7,7,0,0,1,7,7v14a7,7,0,0,1-14,0V257A7,7,0,0,1,87.87,250Z"/><path class="cls-9" d="M143.87,250a7,7,0,0,1,7,7v14a7,7,0,0,1-14,0V257A7,7,0,0,1,143.87,250Z"/><path class="cls-9" d="M24.87,68h.77a7,7,0,0,1,0,14h-.77v28a7.3,7.3,0,0,1,6.82,7.39,6.71,6.71,0,0,1-6.41,6.6h-.77s-1.3-.09-1.52-.12A13.94,13.94,0,0,1,10.87,110V82a14,14,0,0,1,14-14Z"/><path class="cls-9" d="M24.87,124h.77a7,7,0,0,1,0,14h-.77v28a7.3,7.3,0,0,1,6.82,7.4,6.71,6.71,0,0,1-6.41,6.6h-.77s-1.3-.09-1.52-.12A13.94,13.94,0,0,1,10.87,166V138a14,14,0,0,1,14-14Z"/><path class="cls-9" d="M24.87,180h.77a7,7,0,0,1,0,14h-.77v28a7.3,7.3,0,0,1,6.82,7.4,6.71,6.71,0,0,1-6.41,6.6h-.77s-1.3-.09-1.52-.12A13.94,13.94,0,0,1,10.87,222V194a14,14,0,0,1,14-14Z"/><path class="cls-9" d="M24.87,236h.77a7,7,0,1,1,0,14h-.77v28a7.29,7.29,0,0,1,6.82,7.39,6.71,6.71,0,0,1-6.41,6.6h-.77s-1.3-.09-1.52-.12A13.94,13.94,0,0,1,10.87,278V250a14,14,0,0,1,14-14Z"/><path class="cls-9" d="M24.87,292h.77a7,7,0,0,1,0,14h-.77v28a7.29,7.29,0,0,1,6.82,7.39,6.71,6.71,0,0,1-6.41,6.6h-.77s-1.3-.09-1.52-.12A13.94,13.94,0,0,1,10.87,334V306a14,14,0,0,1,14-14Z"/><path class="cls-9" d="M31.87,110h112a7,7,0,1,1,0,14h-112a7,7,0,0,1,0-14Z"/><path class="cls-9" d="M31.87,166h112a7,7,0,1,1,0,14h-112a7,7,0,1,1,0-14Z"/><path class="cls-9" d="M31.87,222h112a7,7,0,1,1,0,14h-112a7,7,0,1,1,0-14Z"/><path class="cls-9" d="M31.87,278h112a7,7,0,1,1,0,14h-112a7,7,0,1,1,0-14Z"/><path class="cls-20" d="M220.87,68h56a14,14,0,0,1,0,28h-56a14,14,0,0,1,0-28Z"/><path class="cls-9" d="M220.87,201a7,7,0,0,1,7-7h42a7,7,0,0,1,0,14h-42A7,7,0,0,1,220.87,201Z"/><path class="cls-19" d="M220.87,187a7,7,0,0,1,7-7h42a7,7,0,0,1,0,14h-42A7,7,0,0,1,220.87,187Z"/><path class="cls-19" d="M220.87,145a7,7,0,0,1,7-7h42a7,7,0,0,1,0,14h-42A7,7,0,0,1,220.87,145Z"/><path class="cls-9" d="M220.87,159a7,7,0,0,1,7-7h42a7,7,0,0,1,0,14h-42A7,7,0,0,1,220.87,159Z"/><path class="cls-8" d="M220.87,173a7,7,0,0,1,7-7h42a7,7,0,1,1,0,14h-42A7,7,0,0,1,220.87,173Z"/><path class="cls-9" d="M220.87,285a7,7,0,0,1,7-7h42a7,7,0,0,1,0,14h-42A7,7,0,0,1,220.87,285Z"/><path class="cls-19" d="M220.87,271a7,7,0,0,1,7-7h42a7,7,0,0,1,0,14h-42A7,7,0,0,1,220.87,271Z"/><path class="cls-19" d="M220.87,229a7,7,0,0,1,7-7h42a7,7,0,0,1,0,14h-42A7,7,0,0,1,220.87,229Z"/><path class="cls-9" d="M220.87,243a7,7,0,0,1,7-7h42a7,7,0,1,1,0,14h-42A7,7,0,0,1,220.87,243Z"/><path class="cls-20" d="M45.87,250h14a7,7,0,1,1,0,14h-14a7,7,0,1,1,0-14Z"/><g id="Security"><circle class="cls-14" cx="301.57" cy="130.72" r="43.9"/><polygon class="cls-6" points="269.73 135.09 281.27 123.64 295.36 137.85 325.75 108.82 336.98 120.58 295.1 160.58 269.73 135.09"/></g><g id="Security-2" data-name="Security"><circle class="cls-14" cx="305.36" cy="238.1" r="43.9"/><path class="cls-21" d="M305.68,203.33l-26.25,11-.35,28s1.3,19.5,25.74,30.62c24.71-10.51,26.49-30,26.49-30l.35-28Z"/><path class="cls-6" d="M305.59,210.44l-20.89,8.72-.27,22.26s1,15.51,20.48,24.36C324.56,257.4,326,241.92,326,241.92l.27-22.26Z"/><polygon class="cls-6" points="290.65 241.68 296.03 236.34 302.6 242.96 316.77 229.43 322 234.91 302.48 253.56 290.65 241.68"/><path class="cls-22" d="M331.31,242.9l.35-28-26-11.6-.86,69.54C329.52,262.36,331.31,242.9,331.31,242.9Z"/></g></g></svg>