<?xml version="1.0" encoding="utf-8"?>
<!-- Generator: Adobe Illustrator 22.1.0, SVG Export Plug-In . SVG Version: 6.00 Build 0)  -->
<svg version="1.1" id="Слой_1" xmlns="http://www.w3.org/2000/svg" xmlns:xlink="http://www.w3.org/1999/xlink" x="0px" y="0px"
	 viewBox="0 0 300 200" enable-background="new 0 0 300 200" xml:space="preserve">
<rect fill="#3E5163" width="300" height="200.1"/>
<path fill="none" stroke="#456987" stroke-miterlimit="10" d="M177.2,136.5h-58.4c-3.7,0-6.7-2.3-6.7-5.2V68.7c0-2.9,3-5.2,6.7-5.2
	h58.4c3.7,0,6.7,2.4,6.7,5.2v62.6C183.9,134.1,180.9,136.5,177.2,136.5L177.2,136.5z"/>
<path fill-rule="evenodd" clip-rule="evenodd" fill="none" stroke="#456987" stroke-miterlimit="10" d="M164.6,110
	c1.4-2.3,2.3-4.8,2.7-7.4l7.9-1.4l-2.1-12.2l-7.9,1.4c-0.6-1.1-1.3-2.2-2.2-3.2c-0.9-1-1.8-2-2.8-2.8l2.8-7.5l-11.6-4.3l-2.7,7.5
	c-2.6-0.1-5.2,0.4-7.7,1.3l-5.1-6.1l-9.5,7.9l5.1,6.1c-1.4,2.3-2.3,4.8-2.7,7.4l-7.9,1.4l2.1,12.2l7.9-1.4c0.6,1.1,1.4,2.2,2.2,3.3
	c0.9,1,1.8,1.9,2.8,2.8l-2.7,7.5l11.6,4.3l2.8-7.5c2.6,0.1,5.2-0.3,7.7-1.3l5.1,6.1l9.5-7.9L164.6,110L164.6,110z"/>
<path fill-rule="evenodd" clip-rule="evenodd" fill="none" stroke="#456987" stroke-miterlimit="10" d="M155.7,109.6
	c5.2-4.3,5.8-12,1.5-17.1c-4.3-5.2-12-5.9-17.1-1.6c-5.2,4.3-5.9,12-1.5,17.2C142.8,113.2,150.5,113.9,155.7,109.6L155.7,109.6
	L155.7,109.6z M151.8,105c2.6-2.2,3-6.1,0.8-8.7c-2.2-2.6-6.1-3-8.7-0.8c-2.6,2.2-3,6.1-0.8,8.7C145.3,106.8,149.2,107.2,151.8,105
	L151.8,105L151.8,105z"/>
<path fill="none" stroke="#456987" stroke-miterlimit="10" d="M230.4,52.3H194c-2.3,0-4.2-1.3-4.2-3V13.7c0-1.6,1.9-3,4.2-3h36.5
	c2.3,0,4.2,1.3,4.2,3v35.7C234.6,51,232.7,52.3,230.4,52.3L230.4,52.3z"/>
<g>
	<path fill-rule="evenodd" clip-rule="evenodd" fill="none" stroke="#456987" stroke-miterlimit="10" d="M221.7,37.2
		c0.8-1.3,1.3-2.7,1.5-4.2l4.5-0.8l-1.2-6.9l-4.5,0.8c-0.3-0.6-0.8-1.3-1.3-1.9c-0.5-0.6-1-1.1-1.6-1.6l1.6-4.3l-6.6-2.4l-1.6,4.3
		c-1.5,0-3,0.2-4.4,0.8l-2.9-3.5l-5.4,4.5l2.9,3.5c-0.8,1.3-1.3,2.7-1.5,4.2l-4.5,0.8l1.2,6.9l4.5-0.8c0.4,0.6,0.8,1.3,1.3,1.9
		c0.5,0.6,1,1.1,1.6,1.6l-1.6,4.3l6.6,2.4l1.6-4.3c1.5,0,3-0.2,4.4-0.8l2.9,3.5l5.4-4.5L221.7,37.2L221.7,37.2z"/>
	<path fill-rule="evenodd" clip-rule="evenodd" fill="none" stroke="#456987" stroke-miterlimit="10" d="M216.6,37
		c2.9-2.5,3.3-6.8,0.9-9.8c-2.5-2.9-6.8-3.3-9.8-0.9c-2.9,2.5-3.3,6.8-0.9,9.8C209.3,39,213.6,39.4,216.6,37L216.6,37L216.6,37z
		 M214.4,34.3c1.5-1.3,1.7-3.5,0.4-5c-1.3-1.5-3.5-1.7-5-0.4c-1.5,1.2-1.7,3.5-0.4,5C210.7,35.4,212.9,35.6,214.4,34.3L214.4,34.3
		L214.4,34.3z"/>
</g>
<path fill="none" stroke="#E9AA6D" stroke-width="2" stroke-miterlimit="10" d="M106.4,52.4H69.9c-2.3,0-4.2-1.3-4.2-3V13.8
	c0-1.6,1.9-3,4.2-3h36.5c2.3,0,4.2,1.3,4.2,3v35.7C110.6,51.1,108.7,52.4,106.4,52.4L106.4,52.4z"/>
<g>
	<path fill-rule="evenodd" clip-rule="evenodd" fill="#E9AA6D" d="M97.7,37.4c0.8-1.3,1.3-2.7,1.5-4.2l4.5-0.8l-1.2-6.9L98,26.2
		c-0.3-0.6-0.8-1.3-1.3-1.9c-0.5-0.6-1-1.1-1.6-1.6l1.6-4.3l-6.6-2.4l-1.6,4.3c-1.5,0-3,0.2-4.4,0.8l-2.9-3.5l-5.4,4.5l2.9,3.5
		c-0.8,1.3-1.3,2.7-1.5,4.2l-4.5,0.8l1.2,6.9l4.5-0.8c0.4,0.6,0.8,1.3,1.3,1.9c0.5,0.6,1,1.1,1.6,1.6l-1.6,4.3l6.6,2.4l1.6-4.3
		c1.5,0,3-0.2,4.4-0.8l2.9,3.5l5.4-4.5L97.7,37.4L97.7,37.4z"/>
	<path fill-rule="evenodd" clip-rule="evenodd" fill="#3E5163" d="M92.6,37.1c2.9-2.5,3.3-6.8,0.9-9.8c-2.5-2.9-6.8-3.3-9.8-0.9
		c-2.9,2.5-3.3,6.8-0.9,9.8C85.3,39.2,89.6,39.6,92.6,37.1L92.6,37.1L92.6,37.1z M90.4,34.5c1.5-1.3,1.7-3.5,0.4-5
		c-1.3-1.5-3.5-1.7-5-0.4c-1.5,1.2-1.7,3.5-0.4,5C86.7,35.5,88.9,35.7,90.4,34.5L90.4,34.5L90.4,34.5z"/>
</g>
<path fill="none" stroke="#456987" stroke-miterlimit="10" d="M291.7,52.2h-44.9c-2.8,0-5.1-1.3-5.1-3V13.6c0-1.6,2.3-3,5.1-3h44.9
	c2.8,0,5.1,1.3,5.1,3v35.7C296.9,50.9,294.6,52.2,291.7,52.2L291.7,52.2z"/>
<path fill="none" stroke="#456987" stroke-miterlimit="10" d="M247.5,36.2c-0.7-0.7-0.6-1.8,0.1-2.5c0.7-0.7,1.8-0.6,2.5,0.1
	c0.7,0.7,0.6,1.8-0.1,2.4C249.3,36.9,248.2,36.9,247.5,36.2L247.5,36.2z M276.8,37.6c0.2-0.3,0.2-0.7,0.2-0.7s-1.4,0.6-2.2,0.6
	c-1.1,0.1-1.9-0.7-1.8-2.2c0.1-1.6,1-2.1,2.1-2c0.8,0.1,2,0.7,2,0.7l0-0.4c0-0.6-0.9-1.5-2.1-2.3c-0.7-0.5-1.9-1.3-3.6,0.1
	c-1.6,1.4-2.2,1.6-3,1.6c-0.6,0-12.5,0.3-16.5,0.4c-0.3,0-0.5-0.1-0.6-0.2c0-0.1-0.3-0.3-0.3-0.4c-1.2-1.3-3.2-1.3-4.5-0.1
	c-1.3,1.2-1.3,3.2-0.1,4.5c1.2,1.3,3.2,1.3,4.5,0.1l0.3-0.4c0.1-0.1,0.3-0.2,0.6-0.2c3.9,0.2,16,0.8,16.6,0.8c0.7,0,1.3,0.2,2.9,1.7
	c1.6,1.4,2.7,0.7,3.5,0.3C275.7,39,276.5,38.3,276.8,37.6L276.8,37.6z"/>
<path fill="none" stroke="#456987" stroke-miterlimit="10" d="M261.5,28.5c0.3,0.3,0.8,0.6,1.9,0.9c1.6,0.5,2.2-0.5,2.7-1
	c0.5-0.5,0.9-0.8,1.4-0.9c0.5-0.1,15.9,0.4,16.5,0.4c0.7,0,1.2,0.2,2.7,1.5c1.5,1.3,2.5,0.6,3.2,0.2c0.7-0.4,1.4-1.1,1.7-1.7
	c0.1-0.3,0.2-0.7,0.2-0.7s-1.3,0.6-2,0.6c-1.1,0.1-1.7-0.6-1.7-2c0-1.5,0.8-1.9,1.9-1.9c0.8,0,1.9,0.6,1.9,0.6l0-0.4
	c-0.1-0.5-0.8-1.4-2-2.1c-0.7-0.4-1.8-1.1-3.3,0.2c-1.5,1.3-2,1.5-2.7,1.5c-0.7,0-16,0.8-16.5,0.7c-0.5-0.1-0.9-0.5-1.4-0.9
	c-0.5-0.5-1-1.2-2.6-0.7c-1.4,0.5-2.2,1.2-2.3,1.4c-0.1,0.1-0.1,0.2-0.1,0.3c0,0.3,1.2-0.8,2.5-0.3c0.2,0.1,1.1,1.9,0,3.4
	c-0.1,0.2-2.4,0.2-2.3,0.3C261.1,28.2,261.2,28.3,261.5,28.5L261.5,28.5z"/>
<path fill="none" stroke="#456987" stroke-miterlimit="10" d="M52.2,52.2h-43c-2.7,0-4.9-1.3-4.9-3V13.5c0-1.6,2.2-3,4.9-3h43
	c2.7,0,4.9,1.3,4.9,3v35.7C57.2,50.8,54.9,52.2,52.2,52.2L52.2,52.2z"/>
<path fill="none" stroke="#456987" stroke-miterlimit="10" d="M9.6,36.1C9,35.5,9,34.4,9.7,33.7c0.7-0.7,1.8-0.6,2.5,0.1
	c0.7,0.7,0.6,1.8-0.1,2.4C11.4,36.9,10.3,36.8,9.6,36.1L9.6,36.1z M38.9,37.6c0.2-0.3,0.2-0.7,0.2-0.7s-1.4,0.6-2.2,0.6
	c-1.1,0.1-1.9-0.7-1.8-2.2c0.1-1.6,1-2.1,2.1-2c0.8,0.1,2,0.7,2,0.7l0-0.4c0-0.6-0.9-1.5-2.1-2.3c-0.7-0.5-1.9-1.3-3.6,0.1
	c-1.6,1.4-2.2,1.6-3,1.6c-0.6,0-12.5,0.3-16.5,0.4c-0.3,0-0.5-0.1-0.6-0.2c0-0.1-0.3-0.3-0.3-0.4c-1.2-1.3-3.2-1.3-4.5-0.1
	c-1.3,1.2-1.3,3.2-0.1,4.5c1.2,1.3,3.2,1.3,4.5,0.1l0.3-0.4c0.1-0.1,0.3-0.2,0.6-0.2c3.9,0.2,16,0.8,16.6,0.8c0.7,0,1.3,0.2,2.9,1.7
	c1.6,1.4,2.7,0.7,3.5,0.3C37.8,39,38.6,38.3,38.9,37.6L38.9,37.6z"/>
<path fill="none" stroke="#456987" stroke-miterlimit="10" d="M23.6,28.5c0.3,0.3,0.8,0.6,1.9,0.9c1.6,0.5,2.2-0.5,2.7-1
	c0.5-0.5,0.9-0.8,1.4-0.9c0.5-0.1,15.9,0.4,16.5,0.4c0.7,0,1.2,0.2,2.7,1.5c1.5,1.3,2.5,0.6,3.2,0.2c0.7-0.4,1.4-1.1,1.7-1.7
	c0.1-0.3,0.2-0.7,0.2-0.7s-1.3,0.6-2,0.6c-1.1,0.1-1.7-0.6-1.7-2c0-1.5,0.8-1.9,1.9-1.9c0.8,0,1.9,0.6,1.9,0.6l0-0.4
	c-0.1-0.5-0.8-1.4-2-2.1c-0.7-0.4-1.8-1.1-3.3,0.2c-1.5,1.3-2,1.5-2.7,1.5c-0.7,0-16,0.8-16.5,0.7c-0.5-0.1-0.9-0.5-1.4-0.9
	c-0.5-0.5-1-1.2-2.6-0.7c-1.4,0.5-2.2,1.2-2.3,1.4C23,24.4,23,24.5,23,24.6c0,0.3,1.2-0.8,2.5-0.3c0.2,0.1,1.1,1.9,0,3.4
	c-0.1,0.2-2.4,0.2-2.3,0.3C23.2,28.1,23.3,28.3,23.6,28.5L23.6,28.5z"/>
<path fill="none" stroke="#456987" stroke-miterlimit="10" d="M175.9,52.4h-50.7c-3.2,0-5.8-1.3-5.8-3V13.8c0-1.6,2.6-3,5.8-3h50.7
	c3.2,0,5.8,1.3,5.8,3v35.7C181.7,51.1,179.1,52.4,175.9,52.4L175.9,52.4z"/>
<g>
	<path fill="none" stroke="#456987" stroke-miterlimit="10" d="M129.2,36.4c-0.7-0.7-0.6-1.8,0.1-2.5c0.7-0.7,1.8-0.6,2.5,0.1
		c0.7,0.7,0.6,1.8-0.1,2.4C130.9,37.1,129.9,37.1,129.2,36.4L129.2,36.4z M158.5,37.9c0.2-0.3,0.2-0.7,0.2-0.7s-1.4,0.6-2.2,0.6
		c-1.1,0.1-1.9-0.7-1.8-2.2c0.1-1.6,1-2.1,2.1-2c0.8,0.1,2,0.7,2,0.7l0-0.4c0-0.6-0.9-1.5-2.1-2.3c-0.7-0.5-1.9-1.3-3.6,0.1
		c-1.6,1.4-2.2,1.6-3,1.6c-0.6,0-12.5,0.3-16.5,0.4c-0.3,0-0.5-0.1-0.6-0.2c0-0.1-0.3-0.3-0.3-0.4c-1.2-1.3-3.2-1.3-4.5-0.1
		c-1.3,1.2-1.3,3.2-0.1,4.5c1.2,1.3,3.2,1.3,4.5,0.1l0.3-0.4c0.1-0.1,0.3-0.2,0.6-0.2c3.9,0.2,16,0.8,16.6,0.8
		c0.7,0,1.3,0.2,2.9,1.7c1.6,1.4,2.7,0.7,3.5,0.3C157.4,39.2,158.1,38.6,158.5,37.9L158.5,37.9z"/>
	<path fill="none" stroke="#456987" stroke-miterlimit="10" d="M143.1,28.7c0.3,0.3,0.8,0.6,1.9,0.9c1.6,0.5,2.2-0.5,2.7-1
		c0.5-0.5,0.9-0.8,1.4-0.9c0.5-0.1,15.9,0.4,16.5,0.4c0.7,0,1.2,0.2,2.7,1.5c1.5,1.3,2.5,0.6,3.2,0.2c0.7-0.4,1.4-1.1,1.7-1.7
		c0.1-0.3,0.2-0.7,0.2-0.7s-1.3,0.6-2,0.6c-1.1,0.1-1.7-0.6-1.7-2c0-1.5,0.8-1.9,1.9-1.9c0.8,0,1.9,0.6,1.9,0.6l0-0.4
		c-0.1-0.5-0.8-1.4-2-2.1c-0.7-0.4-1.8-1.1-3.3,0.2c-1.5,1.3-2,1.5-2.7,1.5c-0.7,0-16,0.8-16.5,0.7c-0.5-0.1-0.9-0.5-1.4-0.9
		c-0.5-0.5-1-1.2-2.6-0.7c-1.4,0.5-2.2,1.2-2.3,1.4c-0.1,0.1-0.1,0.2-0.1,0.3c0,0.3,1.2-0.8,2.5-0.3c0.2,0.1,1.1,1.9,0,3.4
		c-0.1,0.2-2.4,0.2-2.3,0.3C142.8,28.4,142.9,28.6,143.1,28.7L143.1,28.7z"/>
</g>
<path fill="none" stroke="#E9AA6D" stroke-width="2" stroke-miterlimit="10" d="M284.8,137.9h-82.3c-5.2,0-9.4-2.4-9.4-5.3V68.8
	c0-2.9,4.3-5.3,9.4-5.3h82.3c5.2,0,9.4,2.4,9.4,5.3v63.8C294.3,135.5,290,137.9,284.8,137.9L284.8,137.9z"/>
<g>
	<path fill="#E9AA6D" d="M206.4,109.2c-1.2-1.2-1.1-3.2,0.1-4.4c1.2-1.2,3.2-1.1,4.4,0.1c1.2,1.2,1.1,3.2-0.1,4.4
		C209.5,110.5,207.5,110.5,206.4,109.2L206.4,109.2z M258.7,111.8c0.3-0.5,0.4-1.3,0.4-1.3s-2.5,1.1-4,1.1c-2,0.1-3.3-1.3-3.3-3.9
		c0.1-2.9,1.7-3.7,3.8-3.5c1.5,0.1,3.6,1.2,3.6,1.2l0-0.8c-0.1-1-1.5-2.7-3.7-4.1c-1.3-0.8-3.5-2.3-6.4,0.2c-2.9,2.5-4,2.9-5.3,2.8
		c-1.1,0-22.4,0.5-29.6,0.6c-0.6-0.1-0.9-0.2-1.1-0.4c-0.1-0.1-0.5-0.6-0.5-0.6c-2.2-2.3-5.8-2.4-8.1-0.2c-2.3,2.2-2.4,5.8-0.2,8.1
		c2.2,2.3,5.8,2.4,8.1,0.2l0.6-0.7c0.2-0.2,0.5-0.4,1-0.4c7,0.3,28.7,1.5,29.8,1.5c1.3,0,2.3,0.4,5.2,3c2.8,2.5,4.9,1.2,6.2,0.5
		C256.7,114.3,258.1,113.1,258.7,111.8L258.7,111.8z"/>
	<path fill="#E9AA6D" d="M231.3,95.5c0.6,0.5,1.5,1.1,3.5,1.7c2.9,0.8,3.9-0.9,4.8-1.7c0.9-0.9,1.6-1.5,2.5-1.6
		c0.9-0.1,28.4,0.7,29.6,0.7c1.2,0,2.2,0.4,4.8,2.6c2.7,2.3,4.6,1,5.8,0.3c1.3-0.8,2.5-1.9,3.1-3.1c0.2-0.5,0.4-1.2,0.4-1.2
		s-2.3,1-3.6,1.1c-1.9,0.1-3.1-1.1-3.1-3.5c0.1-2.7,1.5-3.4,3.4-3.3c1.4,0.1,3.4,1,3.4,1l0-0.7c-0.1-0.9-1.5-2.5-3.5-3.7
		c-1.2-0.7-3.3-2-5.9,0.3c-2.6,2.4-3.6,2.7-4.8,2.7c-1.2,0-28.6,1.4-29.5,1.3c-0.9-0.1-1.6-0.8-2.6-1.7c-0.9-0.9-1.9-2.2-4.7-1.2
		c-2.5,0.8-3.9,2.1-4.2,2.5c-0.1,0.2-0.2,0.4-0.2,0.5c0,0.6,2.1-1.3,4.5-0.5c0.3,0.1,2,3.4,0,6.1c-0.2,0.3-4.2,0.3-4.1,0.5
		C230.7,94.9,230.9,95.2,231.3,95.5L231.3,95.5z"/>
</g>
<path fill="none" stroke="#456987" stroke-miterlimit="10" d="M92.8,137.2H14.9c-4.9,0-8.9-2.4-8.9-5.3V68c0-2.9,4-5.3,8.9-5.3h77.9
	c4.9,0,8.9,2.4,8.9,5.3v63.8C101.7,134.8,97.7,137.2,92.8,137.2L92.8,137.2z"/>
<g>
	<path fill="none" stroke="#456987" stroke-miterlimit="10" d="M18.5,108.5c-1.1-1.2-1.1-3.2,0.1-4.4c1.2-1.2,3-1.1,4.1,0.1
		c1.1,1.2,1.1,3.2-0.1,4.4C21.5,109.8,19.7,109.7,18.5,108.5L18.5,108.5z M68.1,111.1c0.3-0.5,0.4-1.3,0.4-1.3s-2.3,1.1-3.8,1.1
		c-1.9,0.1-3.2-1.3-3.1-3.9c0.1-2.9,1.6-3.7,3.5-3.5c1.4,0.1,3.4,1.2,3.4,1.2l0-0.8c-0.1-1-1.5-2.7-3.5-4.1c-1.2-0.8-3.3-2.3-6,0.2
		c-2.8,2.5-3.8,2.9-5,2.8c-1,0-21.2,0.5-28,0.6c-0.6-0.1-0.9-0.2-1.1-0.4c-0.1-0.1-0.4-0.6-0.5-0.6c-2.1-2.3-5.5-2.4-7.6-0.2
		c-2.2,2.2-2.2,5.8-0.2,8.1c2.1,2.3,5.5,2.4,7.6,0.2l0.5-0.7c0.2-0.2,0.5-0.4,1-0.4c6.6,0.3,27.1,1.5,28.2,1.5c1.2,0,2.2,0.4,4.9,3
		c2.7,2.5,4.6,1.2,5.9,0.5C66.2,113.5,67.5,112.3,68.1,111.1L68.1,111.1z"/>
	<path fill="none" stroke="#456987" stroke-miterlimit="10" d="M42.1,94.8c0.5,0.5,1.4,1.1,3.3,1.7c2.7,0.8,3.6-0.9,4.5-1.7
		c0.9-0.9,1.5-1.5,2.3-1.6c0.8-0.1,26.8,0.7,28,0.7c1.1,0,2,0.4,4.6,2.6c2.5,2.3,4.3,1,5.5,0.3c1.2-0.8,2.4-1.9,3-3.1
		c0.2-0.5,0.4-1.2,0.4-1.2s-2.1,1-3.5,1.1c-1.8,0.1-3-1.1-2.9-3.5c0.1-2.7,1.4-3.4,3.2-3.3c1.3,0.1,3.2,1,3.2,1l0-0.7
		c-0.1-0.9-1.4-2.5-3.3-3.7c-1.1-0.7-3.1-2-5.6,0.3c-2.5,2.4-3.4,2.7-4.6,2.7c-1.1,0-27,1.4-27.9,1.3c-0.8-0.1-1.6-0.8-2.4-1.7
		c-0.9-0.9-1.8-2.2-4.4-1.2c-2.4,0.8-3.7,2.1-4,2.5c-0.1,0.2-0.2,0.4-0.2,0.5c0,0.6,2-1.3,4.2-0.5c0.3,0.1,1.9,3.4,0,6.1
		c-0.2,0.3-4,0.3-3.9,0.5C41.5,94.2,41.7,94.4,42.1,94.8L42.1,94.8z"/>
</g>
<g>
	<polygon fill="#485678" points="98.1,103.7 29,103.7 29,57.4 98.1,57.4 98.1,103.7 	"/>
	<polygon fill="#995B31" points="101.6,77.2 24.9,77.2 24.9,57.4 101.6,57.4 101.6,77.2 	"/>
	<polygon fill="#A4A5BF" points="67,72.2 31.1,72.2 31.1,62.4 67,62.4 67,72.2 	"/>
	<path fill="#68B8AB" d="M75.9,63c0,0.6-0.5,1.2-1.1,1.2c-0.6,0-1.2-0.5-1.2-1.2s0.5-1.1,1.2-1.1C75.4,61.8,75.9,62.3,75.9,63
		L75.9,63z"/>
	<path fill="#EBE962" d="M75.9,67.3c0,0.6-0.5,1.1-1.1,1.1c-0.6,0-1.2-0.5-1.2-1.1c0-0.6,0.5-1.1,1.2-1.1
		C75.4,66.1,75.9,66.7,75.9,67.3L75.9,67.3z"/>
	<path fill="#DB727A" d="M75.9,71.6c0,0.6-0.5,1.1-1.1,1.1c-0.6,0-1.2-0.5-1.2-1.1c0-0.6,0.5-1.2,1.2-1.2
		C75.4,70.5,75.9,71,75.9,71.6L75.9,71.6z"/>
	<polygon fill="#505156" points="81.4,72.2 80.4,72.2 80.4,62.4 81.4,62.4 81.4,72.2 	"/>
	<polygon fill="#505156" points="84.3,72.2 83.3,72.2 83.3,62.4 84.3,62.4 84.3,72.2 	"/>
	<polygon fill="#505156" points="87.2,72.2 86.2,72.2 86.2,62.4 87.2,62.4 87.2,72.2 	"/>
	<polygon fill="#505156" points="90.1,72.2 89.1,72.2 89.1,62.4 90.1,62.4 90.1,72.2 	"/>
	<polygon fill="#505156" points="93,72.2 92,72.2 92,62.4 93,62.4 93,72.2 	"/>
	<polygon fill="#505156" points="95.9,72.2 94.9,72.2 94.9,62.4 95.9,62.4 95.9,72.2 	"/>
	<polygon fill="#505156" points="98.7,72.2 97.8,72.2 97.8,62.4 98.7,62.4 98.7,72.2 	"/>
	<polygon fill="#995B31" points="101.6,99.4 24.9,99.4 24.9,79.6 101.6,79.6 101.6,99.4 	"/>
	<polygon fill="#A4A5BF" points="67,94.3 31.1,94.3 31.1,84.6 67,84.6 67,94.3 	"/>
	<path fill="#68B8AB" d="M75.9,85.2c0,0.6-0.5,1.2-1.1,1.2c-0.6,0-1.2-0.5-1.2-1.2c0-0.6,0.5-1.1,1.2-1.1
		C75.4,84,75.9,84.5,75.9,85.2L75.9,85.2z"/>
	<path fill="#EBE962" d="M75.9,89.5c0,0.6-0.5,1.1-1.1,1.1c-0.6,0-1.2-0.5-1.2-1.1c0-0.6,0.5-1.1,1.2-1.1
		C75.4,88.3,75.9,88.9,75.9,89.5L75.9,89.5z"/>
	<path fill="#505156" d="M75.9,93.8c0,0.6-0.5,1.1-1.1,1.1c-0.6,0-1.2-0.5-1.2-1.1c0-0.6,0.5-1.2,1.2-1.2
		C75.4,92.7,75.9,93.2,75.9,93.8L75.9,93.8z"/>
	<polygon fill="#505156" points="81.4,94.3 80.4,94.3 80.4,84.6 81.4,84.6 81.4,94.3 	"/>
	<polygon fill="#A4A5BF" points="84.3,94.3 83.3,94.3 83.3,84.6 84.3,84.6 84.3,94.3 	"/>
	<polygon fill="#505156" points="87.2,94.3 86.2,94.3 86.2,84.6 87.2,84.6 87.2,94.3 	"/>
	<polygon fill="#A4A5BF" points="90.1,94.3 89.1,94.3 89.1,84.6 90.1,84.6 90.1,94.3 	"/>
	<polygon fill="#505156" points="93,94.3 92,94.3 92,84.6 93,84.6 93,94.3 	"/>
	<polygon fill="#A4A5BF" points="95.9,94.3 94.9,94.3 94.9,84.6 95.9,84.6 95.9,94.3 	"/>
	<polygon fill="#A4A5BF" points="98.7,94.3 97.8,94.3 97.8,84.6 98.7,84.6 98.7,94.3 	"/>
	<g>
		<polygon fill="#485678" points="98.1,200 29,200 29,99.8 98.1,99.8 98.1,200 		"/>
		<polygon fill="#995B31" points="101.6,122 24.9,122 24.9,102.4 101.6,102.4 101.6,122 		"/>
		<polygon fill="#A4A5BF" points="67,117 31.1,117 31.1,107.4 67,107.4 67,117 		"/>
		<path fill="#68B8AB" d="M75.9,107.9c0,0.6-0.5,1.1-1.1,1.1c-0.6,0-1.2-0.5-1.2-1.1s0.5-1.1,1.2-1.1
			C75.4,106.8,75.9,107.3,75.9,107.9L75.9,107.9z"/>
		<path fill="#EBE962" d="M75.9,112.2c0,0.6-0.5,1.1-1.1,1.1c-0.6,0-1.2-0.5-1.2-1.1c0-0.6,0.5-1.1,1.2-1.1
			C75.4,111.1,75.9,111.6,75.9,112.2L75.9,112.2z"/>
		<path fill="#DB727A" d="M75.9,116.5c0,0.6-0.5,1.1-1.1,1.1c-0.6,0-1.2-0.5-1.2-1.1c0-0.6,0.5-1.1,1.2-1.1
			C75.4,115.4,75.9,115.9,75.9,116.5L75.9,116.5z"/>
		<polygon fill="#505156" points="81.4,117 80.4,117 80.4,107.4 81.4,107.4 81.4,117 		"/>
		<polygon fill="#505156" points="84.3,117 83.3,117 83.3,107.4 84.3,107.4 84.3,117 		"/>
		<polygon fill="#505156" points="87.2,117 86.2,117 86.2,107.4 87.2,107.4 87.2,117 		"/>
		<polygon fill="#505156" points="90.1,117 89.1,117 89.1,107.4 90.1,107.4 90.1,117 		"/>
		<polygon fill="#505156" points="93,117 92,117 92,107.4 93,107.4 93,117 		"/>
		<polygon fill="#505156" points="95.9,117 94.9,117 94.9,107.4 95.9,107.4 95.9,117 		"/>
		<polygon fill="#505156" points="98.7,117 97.8,117 97.8,107.4 98.7,107.4 98.7,117 		"/>
		<polygon fill="#995B31" points="101.6,144.1 24.9,144.1 24.9,124.4 101.6,124.4 101.6,144.1 		"/>
		<polygon fill="#A4A5BF" points="67,139.1 31.1,139.1 31.1,129.4 67,129.4 67,139.1 		"/>
		<path fill="#68B8AB" d="M75.9,130c0,0.6-0.5,1.1-1.1,1.1c-0.6,0-1.2-0.5-1.2-1.1c0-0.6,0.5-1.1,1.2-1.1
			C75.4,128.8,75.9,129.3,75.9,130L75.9,130z"/>
		<path fill="#EBE962" d="M75.9,134.3c0,0.6-0.5,1.1-1.1,1.1c-0.6,0-1.2-0.5-1.2-1.1c0-0.6,0.5-1.1,1.2-1.1
			C75.4,133.1,75.9,133.6,75.9,134.3L75.9,134.3z"/>
		<path fill="#505156" d="M75.9,138.5c0,0.6-0.5,1.1-1.1,1.1c-0.6,0-1.2-0.5-1.2-1.1c0-0.6,0.5-1.1,1.2-1.1
			C75.4,137.4,75.9,137.9,75.9,138.5L75.9,138.5z"/>
		<polygon fill="#505156" points="81.4,139.1 80.4,139.1 80.4,129.4 81.4,129.4 81.4,139.1 		"/>
		<polygon fill="#A4A5BF" points="84.3,139.1 83.3,139.1 83.3,129.4 84.3,129.4 84.3,139.1 		"/>
		<polygon fill="#505156" points="87.2,139.1 86.2,139.1 86.2,129.4 87.2,129.4 87.2,139.1 		"/>
		<polygon fill="#A4A5BF" points="90.1,139.1 89.1,139.1 89.1,129.4 90.1,129.4 90.1,139.1 		"/>
		<polygon fill="#505156" points="93,139.1 92,139.1 92,129.4 93,129.4 93,139.1 		"/>
		<polygon fill="#A4A5BF" points="95.9,139.1 94.9,139.1 94.9,129.4 95.9,129.4 95.9,139.1 		"/>
		<polygon fill="#A4A5BF" points="98.7,139.1 97.8,139.1 97.8,129.4 98.7,129.4 98.7,139.1 		"/>
		<polygon fill="#995B31" points="101.6,166.1 24.9,166.1 24.9,146.5 101.6,146.5 101.6,166.1 		"/>
		<polygon fill="#A4A5BF" points="67,161.1 31.1,161.1 31.1,151.5 67,151.5 67,161.1 		"/>
		<path fill="#68B8AB" d="M75.9,152c0,0.6-0.5,1.1-1.1,1.1c-0.6,0-1.2-0.5-1.2-1.1c0-0.6,0.5-1.1,1.2-1.1
			C75.4,150.9,75.9,151.4,75.9,152L75.9,152z"/>
		<path fill="#DB727A" d="M75.9,156.3c0,0.6-0.5,1.1-1.1,1.1c-0.6,0-1.2-0.5-1.2-1.1c0-0.6,0.5-1.1,1.2-1.1
			C75.4,155.1,75.9,155.6,75.9,156.3L75.9,156.3z"/>
		<path fill="#DB727A" d="M75.9,160.6c0,0.6-0.5,1.1-1.1,1.1c-0.6,0-1.2-0.5-1.2-1.1c0-0.6,0.5-1.1,1.2-1.1
			C75.4,159.4,75.9,159.9,75.9,160.6L75.9,160.6z"/>
		<polygon fill="#A4A5BF" points="81.4,161.1 80.4,161.1 80.4,151.5 81.4,151.5 81.4,161.1 		"/>
		<polygon fill="#A4A5BF" points="84.3,161.1 83.3,161.1 83.3,151.5 84.3,151.5 84.3,161.1 		"/>
		<polygon fill="#A4A5BF" points="87.2,161.1 86.2,161.1 86.2,151.5 87.2,151.5 87.2,161.1 		"/>
		<polygon fill="#A4A5BF" points="90.1,161.1 89.1,161.1 89.1,151.5 90.1,151.5 90.1,161.1 		"/>
		<polygon fill="#A4A5BF" points="93,161.1 92,161.1 92,151.5 93,151.5 93,161.1 		"/>
		<polygon fill="#A4A5BF" points="95.9,161.1 94.9,161.1 94.9,151.5 95.9,151.5 95.9,161.1 		"/>
		<polygon fill="#A4A5BF" points="98.7,161.1 97.8,161.1 97.8,151.5 98.7,151.5 98.7,161.1 		"/>
		<polygon fill="#995B31" points="101.6,188.1 24.9,188.1 24.9,168.5 101.6,168.5 101.6,188.1 		"/>
		<polygon fill="#A4A5BF" points="67,183.1 31.1,183.1 31.1,173.5 67,173.5 67,183.1 		"/>
		<path fill="#505156" d="M75.9,174c0,0.6-0.5,1.1-1.1,1.1c-0.6,0-1.2-0.5-1.2-1.1c0-0.6,0.5-1.1,1.2-1.1
			C75.4,172.9,75.9,173.4,75.9,174L75.9,174z"/>
		<path fill="#505156" d="M75.9,178.3c0,0.6-0.5,1.1-1.1,1.1c-0.6,0-1.2-0.5-1.2-1.1s0.5-1.1,1.2-1.1
			C75.4,177.2,75.9,177.7,75.9,178.3L75.9,178.3z"/>
		<path fill="#DB727A" d="M75.9,182.6c0,0.6-0.5,1.1-1.1,1.1c-0.6,0-1.2-0.5-1.2-1.1c0-0.6,0.5-1.1,1.2-1.1
			C75.4,181.5,75.9,182,75.9,182.6L75.9,182.6z"/>
		<polygon fill="#A4A5BF" points="81.4,183.1 80.4,183.1 80.4,173.5 81.4,173.5 81.4,183.1 		"/>
		<polygon fill="#A4A5BF" points="84.3,183.1 83.3,183.1 83.3,173.5 84.3,173.5 84.3,183.1 		"/>
		<polygon fill="#A4A5BF" points="87.2,183.1 86.2,183.1 86.2,173.5 87.2,173.5 87.2,183.1 		"/>
		<polygon fill="#A4A5BF" points="90.1,183.1 89.1,183.1 89.1,173.5 90.1,173.5 90.1,183.1 		"/>
		<polygon fill="#A4A5BF" points="93,183.1 92,183.1 92,173.5 93,173.5 93,183.1 		"/>
		<polygon fill="#A4A5BF" points="95.9,183.1 94.9,183.1 94.9,173.5 95.9,173.5 95.9,183.1 		"/>
		<polygon fill="#A4A5BF" points="98.7,183.1 97.8,183.1 97.8,173.5 98.7,173.5 98.7,183.1 		"/>
	</g>
</g>
<g>
	<polygon fill="#485678" points="193.8,129.1 142.8,129.1 142.8,94.9 193.8,94.9 193.8,129.1 	"/>
	<polygon fill="#995B31" points="196.4,109.5 139.8,109.5 139.8,94.9 196.4,94.9 196.4,109.5 	"/>
	<polygon fill="#A4A5BF" points="170.9,105.8 144.4,105.8 144.4,98.6 170.9,98.6 170.9,105.8 	"/>
	<path fill="#68B8AB" d="M177.4,99c0,0.5-0.4,0.8-0.8,0.8c-0.5,0-0.8-0.4-0.8-0.8c0-0.5,0.4-0.8,0.8-0.8
		C177,98.2,177.4,98.5,177.4,99L177.4,99z"/>
	<path fill="#EBE962" d="M177.4,102.2c0,0.5-0.4,0.8-0.8,0.8c-0.5,0-0.8-0.4-0.8-0.8c0-0.5,0.4-0.8,0.8-0.8
		C177,101.3,177.4,101.7,177.4,102.2L177.4,102.2z"/>
	<path fill="#DB727A" d="M177.4,105.4c0,0.5-0.4,0.8-0.8,0.8c-0.5,0-0.8-0.4-0.8-0.8c0-0.5,0.4-0.8,0.8-0.8
		C177,104.5,177.4,104.9,177.4,105.4L177.4,105.4z"/>
	<polygon fill="#505156" points="181.5,105.8 180.8,105.8 180.8,98.6 181.5,98.6 181.5,105.8 	"/>
	<polygon fill="#505156" points="183.6,105.8 182.9,105.8 182.9,98.6 183.6,98.6 183.6,105.8 	"/>
	<polygon fill="#505156" points="185.8,105.8 185,105.8 185,98.6 185.8,98.6 185.8,105.8 	"/>
	<polygon fill="#505156" points="187.9,105.8 187.2,105.8 187.2,98.6 187.9,98.6 187.9,105.8 	"/>
	<polygon fill="#505156" points="190,105.8 189.3,105.8 189.3,98.6 190,98.6 190,105.8 	"/>
	<polygon fill="#505156" points="192.2,105.8 191.5,105.8 191.5,98.6 192.2,98.6 192.2,105.8 	"/>
	<polygon fill="#505156" points="194.3,105.8 193.6,105.8 193.6,98.6 194.3,98.6 194.3,105.8 	"/>
	<polygon fill="#995B31" points="196.4,125.9 139.8,125.9 139.8,111.3 196.4,111.3 196.4,125.9 	"/>
	<polygon fill="#A4A5BF" points="170.9,122.1 144.4,122.1 144.4,115 170.9,115 170.9,122.1 	"/>
	<path fill="#68B8AB" d="M177.4,115.4c0,0.5-0.4,0.8-0.8,0.8c-0.5,0-0.8-0.4-0.8-0.8s0.4-0.8,0.8-0.8
		C177,114.5,177.4,114.9,177.4,115.4L177.4,115.4z"/>
	<path fill="#EBE962" d="M177.4,118.6c0,0.5-0.4,0.8-0.8,0.8c-0.5,0-0.8-0.4-0.8-0.8c0-0.5,0.4-0.8,0.8-0.8
		C177,117.7,177.4,118.1,177.4,118.6L177.4,118.6z"/>
	<path fill="#505156" d="M177.4,121.8c0,0.5-0.4,0.8-0.8,0.8c-0.5,0-0.8-0.4-0.8-0.8c0-0.5,0.4-0.8,0.8-0.8
		C177,120.9,177.4,121.3,177.4,121.8L177.4,121.8z"/>
	<polygon fill="#505156" points="181.5,122.1 180.8,122.1 180.8,115 181.5,115 181.5,122.1 	"/>
	<polygon fill="#A4A5BF" points="183.6,122.1 182.9,122.1 182.9,115 183.6,115 183.6,122.1 	"/>
	<polygon fill="#505156" points="185.8,122.1 185,122.1 185,115 185.8,115 185.8,122.1 	"/>
	<polygon fill="#A4A5BF" points="187.9,122.1 187.2,122.1 187.2,115 187.9,115 187.9,122.1 	"/>
	<polygon fill="#505156" points="190,122.1 189.3,122.1 189.3,115 190,115 190,122.1 	"/>
	<polygon fill="#A4A5BF" points="192.2,122.1 191.5,122.1 191.5,115 192.2,115 192.2,122.1 	"/>
	<polygon fill="#A4A5BF" points="194.3,122.1 193.6,122.1 193.6,115 194.3,115 194.3,122.1 	"/>
	<g>
		<polygon fill="#485678" points="193.8,200.1 142.8,200.1 142.8,126.2 193.8,126.2 193.8,200.1 		"/>
		<polygon fill="#995B31" points="196.4,142.6 139.8,142.6 139.8,128.1 196.4,128.1 196.4,142.6 		"/>
		<polygon fill="#A4A5BF" points="170.9,138.9 144.4,138.9 144.4,131.8 170.9,131.8 170.9,138.9 		"/>
		<path fill="#68B8AB" d="M177.4,132.2c0,0.5-0.4,0.8-0.8,0.8c-0.5,0-0.8-0.4-0.8-0.8c0-0.5,0.4-0.8,0.8-0.8
			C177,131.3,177.4,131.7,177.4,132.2L177.4,132.2z"/>
		<path fill="#EBE962" d="M177.4,135.3c0,0.5-0.4,0.8-0.8,0.8c-0.5,0-0.8-0.4-0.8-0.8s0.4-0.8,0.8-0.8
			C177,134.5,177.4,134.9,177.4,135.3L177.4,135.3z"/>
		<path fill="#DB727A" d="M177.4,138.5c0,0.5-0.4,0.8-0.8,0.8c-0.5,0-0.8-0.4-0.8-0.8s0.4-0.8,0.8-0.8
			C177,137.7,177.4,138,177.4,138.5L177.4,138.5z"/>
		<polygon fill="#505156" points="181.5,138.9 180.8,138.9 180.8,131.8 181.5,131.8 181.5,138.9 		"/>
		<polygon fill="#505156" points="183.6,138.9 182.9,138.9 182.9,131.8 183.6,131.8 183.6,138.9 		"/>
		<polygon fill="#505156" points="185.8,138.9 185,138.9 185,131.8 185.8,131.8 185.8,138.9 		"/>
		<polygon fill="#505156" points="187.9,138.9 187.2,138.9 187.2,131.8 187.9,131.8 187.9,138.9 		"/>
		<polygon fill="#505156" points="190,138.9 189.3,138.9 189.3,131.8 190,131.8 190,138.9 		"/>
		<polygon fill="#505156" points="192.2,138.9 191.5,138.9 191.5,131.8 192.2,131.8 192.2,138.9 		"/>
		<polygon fill="#505156" points="194.3,138.9 193.6,138.9 193.6,131.8 194.3,131.8 194.3,138.9 		"/>
		<polygon fill="#995B31" points="196.4,158.8 139.8,158.8 139.8,144.4 196.4,144.4 196.4,158.8 		"/>
		<polygon fill="#A4A5BF" points="170.9,155.2 144.4,155.2 144.4,148 170.9,148 170.9,155.2 		"/>
		<path fill="#68B8AB" d="M177.4,148.4c0,0.5-0.4,0.8-0.8,0.8c-0.5,0-0.8-0.4-0.8-0.8c0-0.5,0.4-0.8,0.8-0.8
			C177,147.6,177.4,148,177.4,148.4L177.4,148.4z"/>
		<path fill="#EBE962" d="M177.4,151.6c0,0.5-0.4,0.8-0.8,0.8c-0.5,0-0.8-0.4-0.8-0.8s0.4-0.8,0.8-0.8
			C177,150.8,177.4,151.1,177.4,151.6L177.4,151.6z"/>
		<path fill="#505156" d="M177.4,154.8c0,0.5-0.4,0.8-0.8,0.8c-0.5,0-0.8-0.4-0.8-0.8c0-0.5,0.4-0.8,0.8-0.8
			C177,153.9,177.4,154.3,177.4,154.8L177.4,154.8z"/>
		<polygon fill="#505156" points="181.5,155.2 180.8,155.2 180.8,148 181.5,148 181.5,155.2 		"/>
		<polygon fill="#A4A5BF" points="183.6,155.2 182.9,155.2 182.9,148 183.6,148 183.6,155.2 		"/>
		<polygon fill="#505156" points="185.8,155.2 185,155.2 185,148 185.8,148 185.8,155.2 		"/>
		<polygon fill="#A4A5BF" points="187.9,155.2 187.2,155.2 187.2,148 187.9,148 187.9,155.2 		"/>
		<polygon fill="#505156" points="190,155.2 189.3,155.2 189.3,148 190,148 190,155.2 		"/>
		<polygon fill="#A4A5BF" points="192.2,155.2 191.5,155.2 191.5,148 192.2,148 192.2,155.2 		"/>
		<polygon fill="#A4A5BF" points="194.3,155.2 193.6,155.2 193.6,148 194.3,148 194.3,155.2 		"/>
		<polygon fill="#995B31" points="196.4,175.1 139.8,175.1 139.8,160.6 196.4,160.6 196.4,175.1 		"/>
		<polygon fill="#A4A5BF" points="170.9,171.4 144.4,171.4 144.4,164.3 170.9,164.3 170.9,171.4 		"/>
		<path fill="#68B8AB" d="M177.4,164.7c0,0.5-0.4,0.8-0.8,0.8c-0.5,0-0.8-0.4-0.8-0.8c0-0.5,0.4-0.8,0.8-0.8
			C177,163.9,177.4,164.2,177.4,164.7L177.4,164.7z"/>
		<path fill="#DB727A" d="M177.4,167.9c0,0.5-0.4,0.8-0.8,0.8c-0.5,0-0.8-0.4-0.8-0.8c0-0.5,0.4-0.8,0.8-0.8
			C177,167,177.4,167.4,177.4,167.9L177.4,167.9z"/>
		<path fill="#DB727A" d="M177.4,171c0,0.5-0.4,0.8-0.8,0.8c-0.5,0-0.8-0.4-0.8-0.8c0-0.5,0.4-0.8,0.8-0.8
			C177,170.2,177.4,170.6,177.4,171L177.4,171z"/>
		<polygon fill="#A4A5BF" points="181.5,171.4 180.8,171.4 180.8,164.3 181.5,164.3 181.5,171.4 		"/>
		<polygon fill="#A4A5BF" points="183.6,171.4 182.9,171.4 182.9,164.3 183.6,164.3 183.6,171.4 		"/>
		<polygon fill="#A4A5BF" points="185.8,171.4 185,171.4 185,164.3 185.8,164.3 185.8,171.4 		"/>
		<polygon fill="#A4A5BF" points="187.9,171.4 187.2,171.4 187.2,164.3 187.9,164.3 187.9,171.4 		"/>
		<polygon fill="#A4A5BF" points="190,171.4 189.3,171.4 189.3,164.3 190,164.3 190,171.4 		"/>
		<polygon fill="#A4A5BF" points="192.2,171.4 191.5,171.4 191.5,164.3 192.2,164.3 192.2,171.4 		"/>
		<polygon fill="#A4A5BF" points="194.3,171.4 193.6,171.4 193.6,164.3 194.3,164.3 194.3,171.4 		"/>
		<polygon fill="#995B31" points="196.4,191.4 139.8,191.4 139.8,176.9 196.4,176.9 196.4,191.4 		"/>
		<polygon fill="#A4A5BF" points="170.9,187.7 144.4,187.7 144.4,180.6 170.9,180.6 170.9,187.7 		"/>
		<path fill="#505156" d="M177.4,180.9c0,0.5-0.4,0.8-0.8,0.8c-0.5,0-0.8-0.4-0.8-0.8c0-0.5,0.4-0.8,0.8-0.8
			C177,180.1,177.4,180.5,177.4,180.9L177.4,180.9z"/>
		<path fill="#505156" d="M177.4,184.1c0,0.5-0.4,0.8-0.8,0.8c-0.5,0-0.8-0.4-0.8-0.8c0-0.5,0.4-0.8,0.8-0.8
			C177,183.3,177.4,183.6,177.4,184.1L177.4,184.1z"/>
		<path fill="#DB727A" d="M177.4,187.3c0,0.5-0.4,0.8-0.8,0.8c-0.5,0-0.8-0.4-0.8-0.8c0-0.5,0.4-0.8,0.8-0.8
			C177,186.4,177.4,186.8,177.4,187.3L177.4,187.3z"/>
		<polygon fill="#A4A5BF" points="181.5,187.7 180.8,187.7 180.8,180.6 181.5,180.6 181.5,187.7 		"/>
		<polygon fill="#A4A5BF" points="183.6,187.7 182.9,187.7 182.9,180.6 183.6,180.6 183.6,187.7 		"/>
		<polygon fill="#A4A5BF" points="185.8,187.7 185,187.7 185,180.6 185.8,180.6 185.8,187.7 		"/>
		<polygon fill="#A4A5BF" points="187.9,187.7 187.2,187.7 187.2,180.6 187.9,180.6 187.9,187.7 		"/>
		<polygon fill="#A4A5BF" points="190,187.7 189.3,187.7 189.3,180.6 190,180.6 190,187.7 		"/>
		<polygon fill="#A4A5BF" points="192.2,187.7 191.5,187.7 191.5,180.6 192.2,180.6 192.2,187.7 		"/>
		<polygon fill="#A4A5BF" points="194.3,187.7 193.6,187.7 193.6,180.6 194.3,180.6 194.3,187.7 		"/>
	</g>
</g>
<g>
	<polygon fill="#485678" points="273.5,147.3 235.7,147.3 235.7,122 273.5,122 273.5,147.3 	"/>
	<polygon fill="#995B31" points="275.4,132.8 233.5,132.8 233.5,122 275.4,122 275.4,132.8 	"/>
	<polygon fill="#A4A5BF" points="256.5,130.1 236.8,130.1 236.8,124.8 256.5,124.8 256.5,130.1 	"/>
	<path fill="#68B8AB" d="M261.3,125.1c0,0.3-0.3,0.6-0.6,0.6c-0.3,0-0.6-0.3-0.6-0.6s0.3-0.6,0.6-0.6
		C261,124.4,261.3,124.7,261.3,125.1L261.3,125.1z"/>
	<path fill="#EBE962" d="M261.3,127.4c0,0.3-0.3,0.6-0.6,0.6c-0.3,0-0.6-0.3-0.6-0.6c0-0.3,0.3-0.6,0.6-0.6
		C261,126.8,261.3,127.1,261.3,127.4L261.3,127.4z"/>
	<path fill="#DB727A" d="M261.3,129.8c0,0.3-0.3,0.6-0.6,0.6c-0.3,0-0.6-0.3-0.6-0.6s0.3-0.6,0.6-0.6
		C261,129.2,261.3,129.5,261.3,129.8L261.3,129.8z"/>
	<polygon fill="#505156" points="264.3,130.1 263.8,130.1 263.8,124.8 264.3,124.8 264.3,130.1 	"/>
	<polygon fill="#505156" points="265.9,130.1 265.4,130.1 265.4,124.8 265.9,124.8 265.9,130.1 	"/>
	<polygon fill="#505156" points="267.5,130.1 267,130.1 267,124.8 267.5,124.8 267.5,130.1 	"/>
	<polygon fill="#505156" points="269.1,130.1 268.5,130.1 268.5,124.8 269.1,124.8 269.1,130.1 	"/>
	<polygon fill="#505156" points="270.7,130.1 270.1,130.1 270.1,124.8 270.7,124.8 270.7,130.1 	"/>
	<polygon fill="#505156" points="272.2,130.1 271.7,130.1 271.7,124.8 272.2,124.8 272.2,130.1 	"/>
	<polygon fill="#505156" points="273.8,130.1 273.3,130.1 273.3,124.8 273.8,124.8 273.8,130.1 	"/>
	<polygon fill="#995B31" points="275.4,145 233.5,145 233.5,134.2 275.4,134.2 275.4,145 	"/>
	<polygon fill="#A4A5BF" points="256.5,142.2 236.8,142.2 236.8,136.9 256.5,136.9 256.5,142.2 	"/>
	<path fill="#68B8AB" d="M261.3,137.2c0,0.3-0.3,0.6-0.6,0.6c-0.3,0-0.6-0.3-0.6-0.6c0-0.3,0.3-0.6,0.6-0.6
		C261,136.6,261.3,136.9,261.3,137.2L261.3,137.2z"/>
	<path fill="#EBE962" d="M261.3,139.6c0,0.3-0.3,0.6-0.6,0.6c-0.3,0-0.6-0.3-0.6-0.6c0-0.3,0.3-0.6,0.6-0.6
		C261,138.9,261.3,139.2,261.3,139.6L261.3,139.6z"/>
	<path fill="#505156" d="M261.3,141.9c0,0.3-0.3,0.6-0.6,0.6c-0.3,0-0.6-0.3-0.6-0.6c0-0.3,0.3-0.6,0.6-0.6
		C261,141.3,261.3,141.6,261.3,141.9L261.3,141.9z"/>
	<polygon fill="#505156" points="264.3,142.2 263.8,142.2 263.8,136.9 264.3,136.9 264.3,142.2 	"/>
	<polygon fill="#A4A5BF" points="265.9,142.2 265.4,142.2 265.4,136.9 265.9,136.9 265.9,142.2 	"/>
	<polygon fill="#505156" points="267.5,142.2 267,142.2 267,136.9 267.5,136.9 267.5,142.2 	"/>
	<polygon fill="#A4A5BF" points="269.1,142.2 268.5,142.2 268.5,136.9 269.1,136.9 269.1,142.2 	"/>
	<polygon fill="#505156" points="270.7,142.2 270.1,142.2 270.1,136.9 270.7,136.9 270.7,142.2 	"/>
	<polygon fill="#A4A5BF" points="272.2,142.2 271.7,142.2 271.7,136.9 272.2,136.9 272.2,142.2 	"/>
	<polygon fill="#A4A5BF" points="273.8,142.2 273.3,142.2 273.3,136.9 273.8,136.9 273.8,142.2 	"/>
	<g>
		<polygon fill="#485678" points="273.5,200 235.7,200 235.7,145.2 273.5,145.2 273.5,200 		"/>
		<polygon fill="#995B31" points="275.4,157.4 233.5,157.4 233.5,146.6 275.4,146.6 275.4,157.4 		"/>
		<polygon fill="#A4A5BF" points="256.5,154.6 236.8,154.6 236.8,149.4 256.5,149.4 256.5,154.6 		"/>
		<path fill="#68B8AB" d="M261.3,149.7c0,0.3-0.3,0.6-0.6,0.6c-0.3,0-0.6-0.3-0.6-0.6c0-0.3,0.3-0.6,0.6-0.6
			C261,149,261.3,149.3,261.3,149.7L261.3,149.7z"/>
		<path fill="#EBE962" d="M261.3,152c0,0.3-0.3,0.6-0.6,0.6c-0.3,0-0.6-0.3-0.6-0.6c0-0.3,0.3-0.6,0.6-0.6
			C261,151.4,261.3,151.7,261.3,152L261.3,152z"/>
		<path fill="#DB727A" d="M261.3,154.3c0,0.3-0.3,0.6-0.6,0.6c-0.3,0-0.6-0.3-0.6-0.6c0-0.3,0.3-0.6,0.6-0.6
			C261,153.7,261.3,154,261.3,154.3L261.3,154.3z"/>
		<polygon fill="#505156" points="264.3,154.6 263.8,154.6 263.8,149.4 264.3,149.4 264.3,154.6 		"/>
		<polygon fill="#505156" points="265.9,154.6 265.4,154.6 265.4,149.4 265.9,149.4 265.9,154.6 		"/>
		<polygon fill="#505156" points="267.5,154.6 267,154.6 267,149.4 267.5,149.4 267.5,154.6 		"/>
		<polygon fill="#505156" points="269.1,154.6 268.5,154.6 268.5,149.4 269.1,149.4 269.1,154.6 		"/>
		<polygon fill="#505156" points="270.7,154.6 270.1,154.6 270.1,149.4 270.7,149.4 270.7,154.6 		"/>
		<polygon fill="#505156" points="272.2,154.6 271.7,154.6 271.7,149.4 272.2,149.4 272.2,154.6 		"/>
		<polygon fill="#505156" points="273.8,154.6 273.3,154.6 273.3,149.4 273.8,149.4 273.8,154.6 		"/>
		<polygon fill="#995B31" points="275.4,169.4 233.5,169.4 233.5,158.7 275.4,158.7 275.4,169.4 		"/>
		<polygon fill="#A4A5BF" points="256.5,166.7 236.8,166.7 236.8,161.4 256.5,161.4 256.5,166.7 		"/>
		<path fill="#68B8AB" d="M261.3,161.7c0,0.3-0.3,0.6-0.6,0.6c-0.3,0-0.6-0.3-0.6-0.6c0-0.3,0.3-0.6,0.6-0.6
			C261,161.1,261.3,161.4,261.3,161.7L261.3,161.7z"/>
		<path fill="#EBE962" d="M261.3,164c0,0.3-0.3,0.6-0.6,0.6c-0.3,0-0.6-0.3-0.6-0.6c0-0.3,0.3-0.6,0.6-0.6
			C261,163.4,261.3,163.7,261.3,164L261.3,164z"/>
		<path fill="#505156" d="M261.3,166.4c0,0.3-0.3,0.6-0.6,0.6c-0.3,0-0.6-0.3-0.6-0.6c0-0.3,0.3-0.6,0.6-0.6
			C261,165.8,261.3,166,261.3,166.4L261.3,166.4z"/>
		<polygon fill="#505156" points="264.3,166.7 263.8,166.7 263.8,161.4 264.3,161.4 264.3,166.7 		"/>
		<polygon fill="#A4A5BF" points="265.9,166.7 265.4,166.7 265.4,161.4 265.9,161.4 265.9,166.7 		"/>
		<polygon fill="#505156" points="267.5,166.7 267,166.7 267,161.4 267.5,161.4 267.5,166.7 		"/>
		<polygon fill="#A4A5BF" points="269.1,166.7 268.5,166.7 268.5,161.4 269.1,161.4 269.1,166.7 		"/>
		<polygon fill="#505156" points="270.7,166.7 270.1,166.7 270.1,161.4 270.7,161.4 270.7,166.7 		"/>
		<polygon fill="#A4A5BF" points="272.2,166.7 271.7,166.7 271.7,161.4 272.2,161.4 272.2,166.7 		"/>
		<polygon fill="#A4A5BF" points="273.8,166.7 273.3,166.7 273.3,161.4 273.8,161.4 273.8,166.7 		"/>
		<polygon fill="#995B31" points="275.4,181.5 233.5,181.5 233.5,170.7 275.4,170.7 275.4,181.5 		"/>
		<polygon fill="#A4A5BF" points="256.5,178.7 236.8,178.7 236.8,173.5 256.5,173.5 256.5,178.7 		"/>
		<path fill="#68B8AB" d="M261.3,173.7c0,0.3-0.3,0.6-0.6,0.6c-0.3,0-0.6-0.3-0.6-0.6c0-0.3,0.3-0.6,0.6-0.6
			C261,173.1,261.3,173.4,261.3,173.7L261.3,173.7z"/>
		<path fill="#DB727A" d="M261.3,176.1c0,0.3-0.3,0.6-0.6,0.6c-0.3,0-0.6-0.3-0.6-0.6c0-0.3,0.3-0.6,0.6-0.6
			C261,175.5,261.3,175.7,261.3,176.1L261.3,176.1z"/>
		<path fill="#DB727A" d="M261.3,178.4c0,0.3-0.3,0.6-0.6,0.6c-0.3,0-0.6-0.3-0.6-0.6c0-0.3,0.3-0.6,0.6-0.6
			C261,177.8,261.3,178.1,261.3,178.4L261.3,178.4z"/>
		<polygon fill="#A4A5BF" points="264.3,178.7 263.8,178.7 263.8,173.5 264.3,173.5 264.3,178.7 		"/>
		<polygon fill="#A4A5BF" points="265.9,178.7 265.4,178.7 265.4,173.5 265.9,173.5 265.9,178.7 		"/>
		<polygon fill="#A4A5BF" points="267.5,178.7 267,178.7 267,173.5 267.5,173.5 267.5,178.7 		"/>
		<polygon fill="#A4A5BF" points="269.1,178.7 268.5,178.7 268.5,173.5 269.1,173.5 269.1,178.7 		"/>
		<polygon fill="#A4A5BF" points="270.7,178.7 270.1,178.7 270.1,173.5 270.7,173.5 270.7,178.7 		"/>
		<polygon fill="#A4A5BF" points="272.2,178.7 271.7,178.7 271.7,173.5 272.2,173.5 272.2,178.7 		"/>
		<polygon fill="#A4A5BF" points="273.8,178.7 273.3,178.7 273.3,173.5 273.8,173.5 273.8,178.7 		"/>
		<polygon fill="#995B31" points="275.4,193.5 233.5,193.5 233.5,182.8 275.4,182.8 275.4,193.5 		"/>
		<polygon fill="#A4A5BF" points="256.5,190.8 236.8,190.8 236.8,185.5 256.5,185.5 256.5,190.8 		"/>
		<path fill="#505156" d="M261.3,185.8c0,0.3-0.3,0.6-0.6,0.6c-0.3,0-0.6-0.3-0.6-0.6c0-0.3,0.3-0.6,0.6-0.6
			C261,185.2,261.3,185.4,261.3,185.8L261.3,185.8z"/>
		<path fill="#505156" d="M261.3,188.1c0,0.3-0.3,0.6-0.6,0.6c-0.3,0-0.6-0.3-0.6-0.6c0-0.3,0.3-0.6,0.6-0.6
			C261,187.5,261.3,187.8,261.3,188.1L261.3,188.1z"/>
		<path fill="#DB727A" d="M261.3,190.5c0,0.3-0.3,0.6-0.6,0.6c-0.3,0-0.6-0.3-0.6-0.6c0-0.3,0.3-0.6,0.6-0.6
			C261,189.9,261.3,190.1,261.3,190.5L261.3,190.5z"/>
		<polygon fill="#A4A5BF" points="264.3,190.8 263.8,190.8 263.8,185.5 264.3,185.5 264.3,190.8 		"/>
		<polygon fill="#A4A5BF" points="265.9,190.8 265.4,190.8 265.4,185.5 265.9,185.5 265.9,190.8 		"/>
		<polygon fill="#A4A5BF" points="267.5,190.8 267,190.8 267,185.5 267.5,185.5 267.5,190.8 		"/>
		<polygon fill="#A4A5BF" points="269.1,190.8 268.5,190.8 268.5,185.5 269.1,185.5 269.1,190.8 		"/>
		<polygon fill="#A4A5BF" points="270.7,190.8 270.1,190.8 270.1,185.5 270.7,185.5 270.7,190.8 		"/>
		<polygon fill="#A4A5BF" points="272.2,190.8 271.7,190.8 271.7,185.5 272.2,185.5 272.2,190.8 		"/>
		<polygon fill="#A4A5BF" points="273.8,190.8 273.3,190.8 273.3,185.5 273.8,185.5 273.8,190.8 		"/>
	</g>
</g>
</svg>
