<svg id="Layer_1" data-name="Layer 1" xmlns="http://www.w3.org/2000/svg" xmlns:xlink="http://www.w3.org/1999/xlink" viewBox="0 0 930 300"><defs><style>.cls-1{fill:none;}.cls-2{fill:#c3eb5c;}.cls-3{clip-path:url(#clip-path);}.cls-4{fill:#e2ff9c;}.cls-5{fill:#ffcc57;}.cls-6{clip-path:url(#clip-path-2);}.cls-7{fill:#708a8f;}.cls-8{fill:#7c9ca3;}.cls-9{fill:#ff3636;}.cls-10{fill:#c00;}.cls-11{fill:#384949;}.cls-12{fill:#293939;}.cls-13{fill:#ff8820;}.cls-14{fill:#fff;}.cls-15{fill:#00abe9;}.cls-16{fill:#0095ff;}.cls-17{fill:#25d9f8;}.cls-18{fill:#00c0f1;}.cls-19{fill:#d3d3d8;}.cls-20{fill:#e7e7e7;}.cls-21{fill:#e6e6e6;}.cls-22{fill:#4a696f;}.cls-23{fill:#3e5959;}.cls-24{fill:#ffbd86;}.cls-25{fill:#f6a96c;}.cls-26{fill:#f73;}.cls-27{fill:#ff9336;}.cls-28{fill:#fed2a4;}.cls-29{clip-path:url(#clip-path-4);}.cls-30{fill:#6b0;}.cls-31{fill:#5cac00;}</style><clipPath id="clip-path"><rect class="cls-1" width="930" height="300"/></clipPath><clipPath id="clip-path-2"><rect class="cls-1" x="615.58" y="43.03" width="165.02" height="164.63" transform="translate(119.12 535.02) rotate(-45.46)"/></clipPath><clipPath id="clip-path-4"><rect class="cls-1" x="730" y="63.06" width="173.47" height="173.88"/></clipPath></defs><title>обслуживание_атс-01</title><rect id="Background_1" data-name="Background 1" class="cls-2" width="930" height="300"/><g class="cls-3"><path class="cls-4" d="M466.37-39.85a145.65,145.65,0,0,0-7.15-26.76l21-15.63L459-119,434.9-108.65a147,147,0,0,0-19.57-19.58l10.36-24.06-36.76-21.23-15.64,21a144.91,144.91,0,0,0-26.76-7.15l-3.06-26H301l-3.06,26a145.65,145.65,0,0,0-26.76,7.15l-15.63-21-36.76,21.23,10.36,24.06a147,147,0,0,0-19.58,19.57L185.52-119,164.29-82.25l21,15.64a144.91,144.91,0,0,0-7.15,26.76l-26,3.06V5.66l26,3.06a145.65,145.65,0,0,0,7.15,26.76l-21,15.63,21.23,36.76,24.06-10.36A147,147,0,0,0,229.15,97.1l-10.36,24.06,36.76,21.23,15.64-21A144.74,144.74,0,0,0,298,128.57l3.06,26h42.46l3.06-26a145.79,145.79,0,0,0,26.77-7.15l15.63,21,36.76-21.23L415.33,97.1a147,147,0,0,0,19.58-19.58L459,87.88l21.23-36.76-21-15.64a144.91,144.91,0,0,0,7.15-26.76l26-3.06V-36.79ZM379.1-15.57a56.86,56.86,0,0,1-56.86,56.86,56.86,56.86,0,0,1-56.86-56.86,56.86,56.86,0,0,1,56.86-56.86A56.86,56.86,0,0,1,379.1-15.57Z"/><path class="cls-5" d="M401.75-15.57a79.5,79.5,0,0,0-79.5-79.5,79.5,79.5,0,0,0-79.5,79.5,79.5,79.5,0,0,0,79.5,79.5A79.5,79.5,0,0,0,401.75-15.57Zm-22.64,0a56.86,56.86,0,0,1-56.86,56.86,56.86,56.86,0,0,1-56.86-56.86,56.86,56.86,0,0,1,56.86-56.86A56.86,56.86,0,0,1,379.1-15.57Z"/><path class="cls-4" d="M948,282.13A202.47,202.47,0,0,0,934.75,246l27.07-24.27-34-48.24-32,17.35a204.29,204.29,0,0,0-29.55-24.66l11.33-34.6L824,106.78l-19,31a201.44,201.44,0,0,0-37.95-6.55l-7.49-35.61-58.78,5.31-1,36.38a202.47,202.47,0,0,0-36.16,13.25l-24.27-27.07-48.24,34,17.35,32A204.29,204.29,0,0,0,583.86,219l-34.6-11.33-24.78,53.55,31,19a201.44,201.44,0,0,0-6.55,37.95l-35.61,7.49,5.31,58.78,36.38,1a202.47,202.47,0,0,0,13.25,36.16L541.17,445.9l34,48.24,32-17.35a204.29,204.29,0,0,0,29.55,24.66L625.4,536,679,560.83l19-31a201.2,201.2,0,0,0,37.95,6.55L743.41,572l58.78-5.31,1-36.38a202.66,202.66,0,0,0,36.16-13.25l24.27,27.07,48.24-34-17.35-32a204.33,204.33,0,0,0,24.65-29.56l34.6,11.33,24.78-53.55-31-19a201.44,201.44,0,0,0,6.55-37.95l35.61-7.49-5.31-58.78ZM830.22,326.68a79,79,0,1,1-85.84-71.6A79,79,0,0,1,830.22,326.68Z"/><path class="cls-5" d="M861.57,323.85a110.52,110.52,0,1,0-100.12,120A110.52,110.52,0,0,0,861.57,323.85Zm-31.35,2.83a79,79,0,1,1-85.84-71.6A79,79,0,0,1,830.22,326.68Z"/><path class="cls-4" d="M119.81,258.43a99,99,0,0,0-4.86-18.19l14.25-10.63-14.43-25-16.35,7a99.88,99.88,0,0,0-13.3-13.31l7-16.35-25-14.43L56.54,181.83A98.49,98.49,0,0,0,38.35,177L36.28,159.3H7.42L5.34,177a99,99,0,0,0-18.19,4.86l-10.63-14.25-25,14.43,7,16.35a99.88,99.88,0,0,0-13.31,13.3l-16.35-7-14.43,25,14.25,10.63a98.49,98.49,0,0,0-4.86,18.19l-17.67,2.08v28.85l17.67,2.08a99,99,0,0,0,4.86,18.19L-85.5,320.26l14.43,25,16.35-7a99.88,99.88,0,0,0,13.3,13.31l-7,16.35,25,14.43L-12.84,368a98.37,98.37,0,0,0,18.19,4.86l2.08,17.67H36.28l2.08-17.67A99.09,99.09,0,0,0,56.55,368l10.63,14.25,25-14.43-7-16.35A99.9,99.9,0,0,0,98.42,338.2l16.35,7,14.43-25-14.25-10.63a98.49,98.49,0,0,0,4.86-18.19l17.67-2.08V260.51ZM60.5,274.93a38.65,38.65,0,1,1-38.65-38.65A38.65,38.65,0,0,1,60.5,274.93Z"/><path class="cls-5" d="M75.89,274.93a54,54,0,1,0-54,54A54,54,0,0,0,75.89,274.93Zm-15.39,0a38.65,38.65,0,1,1-38.65-38.65A38.65,38.65,0,0,1,60.5,274.93Z"/><path class="cls-5" d="M98.17,74.64l2.63,16.93L127,117.8l14.25,0,14-14.65L112.33,60.21,98.08,74.57Zm0,0"/><path class="cls-5" d="M5.51-18,6.84-2.4,31.06,21.81l17,2.86L62.39,10.26,19.47-32.66,5.15-18.23Zm0,0"/><path class="cls-4" d="M141.32,117.75,98.2,74.64,91.94,80.7a11.78,11.78,0,0,1-16.27,0L58.79,63.83,41.92,47a11.72,11.72,0,0,1-3.33-8.19,11.24,11.24,0,0,1,3.33-8l6.27-6.06L5.54-18,1-14.08a54.59,54.59,0,0,0,0,77.2l29.2,29.3h.1l29.21,29.2a54.2,54.2,0,0,0,38.7,16,53.58,53.58,0,0,0,38.2-15.66l4.62-3.86Zm0,0"/><path class="cls-5" d="M529.37,154.23l-15.13,8L498,195.64l4.69,13.46,18.42,8.39,26.49-54.61-18.24-8.77Zm0,0"/><path class="cls-5" d="M586.56,36.32,572.23,42.7,557.29,73.51l2.88,17,18.3,8.8L605,44.72l-18.32-8.81Zm0,0"/><path class="cls-4" d="M502.76,209.12l26.61-54.86-7.78-3.93A11.78,11.78,0,0,1,516.27,135l10.42-21.47L537.1,92a11.72,11.72,0,0,1,6.64-5.83,11.24,11.24,0,0,1,8.64.53l7.78,3.93,26.42-54.29-5.21-3a54.59,54.59,0,0,0-72.94,25.29L490.29,95.83l0,.09-18,37.16a54.2,54.2,0,0,0-2.41,41.8,53.58,53.58,0,0,0,27.31,31l5.16,3.1Zm0,0"/><path class="cls-5" d="M756.63,20.26l-11.11-13L709.44-1.4,697.3,6.08l-4.23,19.8,59,14.1,4.63-19.7Zm0,0"/><path class="cls-5" d="M884.09,50.7l-9.31-12.62-33.31-8-16,6.48-4.64,19.77,59,14.1,4.65-19.79Zm0,0"/><path class="cls-4" d="M697.3,6.11l59.3,14.16,2.16-8.45a11.78,11.78,0,0,1,13.86-8.52l23.21,5.54,23.21,5.54a11.72,11.72,0,0,1,7.13,5.23,11.24,11.24,0,0,1,1.34,8.55l-2.17,8.45,58.71,14.09L885.87,45A54.59,54.59,0,0,0,845.46-20.8l-40.22-9.68-.09.05L765-40a54.2,54.2,0,0,0-41.33,6.66A53.58,53.58,0,0,0,699.3,0l-1.91,5.71Zm0,0"/><path class="cls-5" d="M316.49,218.37l17,1.74,32-18.73,3.59-13.79-10.64-17.22L306.12,201l10.28,17.43Zm0,0"/><path class="cls-5" d="M203.37,284.52l15.45,2.67,29.56-17.29,7.08-15.75-10.32-17.49-52.39,30.65,10.33,17.51Zm0,0"/><path class="cls-4" d="M369.13,187.56,316.5,218.34l4.28,7.6a11.78,11.78,0,0,1-4.12,15.74l-20.6,12-20.6,12a11.72,11.72,0,0,1-8.76,1.15,11.24,11.24,0,0,1-6.88-5.25l-4.28-7.6-52.16,30.42,2.66,5.4a54.59,54.59,0,0,0,74.68,19.56l35.75-20.82,0-.1,35.65-20.85a54.2,54.2,0,0,0,25.25-33.39,53.58,53.58,0,0,0-5.47-40.92l-2.57-5.45Zm0,0"/></g><g class="cls-6"><path class="cls-7" d="M595.23,116.76l27.28-.22.15,19.18-27.28.22a28.28,28.28,0,0,0,6.93,10.74,28.68,28.68,0,0,0,47.59-11.47l96.42-.53a28.82,28.82,0,0,0,54.46-.44l-27.28.22-.15-19.18,27.28-.22a28.85,28.85,0,0,0-54.44.45l-96.53.61a28.9,28.9,0,0,0-54.42.64Zm0,0"/><path class="cls-8" d="M595.23,116.76l27.28-.22.08,9.35c45-.36,107-.61,150.84-1l-.08-9.64,27.28-.22a28.85,28.85,0,0,0-54.44.45l-96.53.61a28.9,28.9,0,0,0-54.42.64Zm0,0"/></g><path class="cls-9" d="M677.18,200.29l71.62-.62-.15-24-.29-24.1-71.56.58L669,162.29l.26,31.81Zm0,0"/><path class="cls-10" d="M669.08,176.36l79.56-.64-.29-24.1-71.56.58L669,162.29Zm0,0"/><path class="cls-7" d="M578.87,196.41l9.56-9.72,80.82-.7,2.52-9.66,2.53-9.76-86,.56-9.62-9.47-29.07,9.91.18,9.73.08,9.64Zm0,0"/><path class="cls-11" d="M657.9,200.45l19.28-.16-.39-48.1-19.18.16.1,24.1Zm0,0"/><path class="cls-8" d="M549.76,177.32l122-1,2.53-9.76-86,.56-9.62-9.47-29.07,9.91Zm0,0"/><path class="cls-12" d="M657.71,176.45l19.28-.15-.19-24.1-19.18.16Zm0,0"/><g class="cls-3"><circle class="cls-13" cx="824.64" cy="150" r="127.36"/><path class="cls-14" d="M824.64,36.23A113.78,113.78,0,1,1,710.86,150,113.77,113.77,0,0,1,824.64,36.23Z"/><path class="cls-15" d="M274.3,191.5c0,85.72-70.08,155.8-155.8,155.8S-37.3,277.22-37.3,191.5,32.78,35.7,118.5,35.7s155.8,70.08,155.8,155.8Zm0,0"/><path class="cls-16" d="M274.3,191.5c0,85.72-70.08,155.8-155.8,155.8V35.7c85.72,0,155.8,70.08,155.8,155.8Zm0,0"/><path class="cls-17" d="M118.5,26C27.54,26-47,100.54-47,191.5S27.54,357,118.5,357,284,282.46,284,191.5,209.46,26,118.5,26Zm116.17,78.23H193c-6.4-19.78-14.93-36.46-25-49.45a147.87,147.87,0,0,1,66.72,49.45ZM128.2,47.14c17.65,5.82,33.36,27.22,44,57.09h-44ZM-10.09,123.62H31.23V104.23H2.33A146.07,146.07,0,0,1,69.24,54.77c-8,10.08-14.93,22.69-20.75,37.43l18,7.18C77.38,71.45,92.7,52.57,108.8,47.14v57.09H70v19.39H108.8V181.8H51a305.11,305.11,0,0,1,5-46.94L37.23,131c-3.49,16.29-5,33.36-5.62,50.81H-27c1.35-20.95,7.63-40.53,16.94-58.18Zm0,135.76C-19.4,241.73-25.67,222.14-27,201.2H31.42a285.5,285.5,0,0,0,7.37,58.18ZM2.33,278.77H44.22C50.62,298.36,59,315.24,69,328A146.16,146.16,0,0,1,2.33,278.77ZM168,328.23c10.09-13,18.62-29.8,25-49.58h41.7A148.19,148.19,0,0,1,168,328.23Zm79.13-68.85H198.21a296,296,0,0,0,7-47.91l-19.39-1.17a270.62,270.62,0,0,1-7.56,49.07H137.89v19.27h34.33c-10.67,29.87-26.38,51.39-44,57.21V288.47H108.8v47.38c-17.65-5.62-33.55-27.41-44-57.08H99.11V259.38H58.76a282.87,282.87,0,0,1-8-58.18h58v48.49H128.2V201.2h48.49V181.8H128.2V123.62h50a270.8,270.8,0,0,1,7.56,49.07l19.39-1.17a295.91,295.91,0,0,0-7-47.9h48.87c9.31,17.65,15.58,37.24,16.94,58.18H215.47v19.27H264a145.26,145.26,0,0,1-16.94,58.31Zm0,0"/><path class="cls-18" d="M118.5,26V249.68h9.7V201.2h48.49V181.8H128.2V123.62h50a270.8,270.8,0,0,1,7.56,49.07l19.39-1.17a295.91,295.91,0,0,0-7-47.9h48.87c9.31,17.65,15.58,37.24,16.94,58.18H215.47v19.27H264a145.3,145.3,0,0,1-16.94,58.31H198.21a296,296,0,0,0,7-47.91l-19.39-1.17a270.62,270.62,0,0,1-7.56,49.07H137.89v19.27h34.33c-10.67,29.87-26.38,51.39-44,57.21V288.47h-9.7V357c91,0,165.5-74.54,165.5-165.5S209.46,26,118.5,26Zm9.7,78.23V47.14c17.65,5.82,33.36,27.22,44,57.09Zm64.78,0c-6.4-19.78-14.93-36.46-25-49.45a147.87,147.87,0,0,1,66.72,49.45Zm-25,224c10.09-13,18.62-29.8,25-49.58h41.7A148.19,148.19,0,0,1,168,328.23Zm0,0"/><path class="cls-19" d="M196.08,220.59a29.09,29.09,0,1,1,29.09-29.09,29.12,29.12,0,0,1-29.09,29.09Zm0,0"/><path class="cls-20" d="M118.5,240a29.09,29.09,0,1,0,29.09,29.09A29.05,29.05,0,0,0,118.5,240Zm0,0"/><path class="cls-20" d="M50.62,143a29.09,29.09,0,1,1,29.09-29.09A29.12,29.12,0,0,1,50.62,143Zm0,0"/><path class="cls-19" d="M147.59,269.08a29.05,29.05,0,0,1-29.09,29.09V240a29.05,29.05,0,0,1,29.09,29.09Zm0,0"/><rect class="cls-14" x="449.45" y="155" width="67.49" height="40.82"/><rect class="cls-21" x="483.2" y="155" width="33.75" height="40.82"/><path class="cls-11" d="M372,186.17V311.51H536.55V186.17Zm0,0"/><rect class="cls-12" x="483.2" y="186.17" width="53.35" height="125.34"/><rect class="cls-20" x="459.1" y="244.02" width="9.64" height="9.64"/><rect class="cls-20" x="459.1" y="263.31" width="9.64" height="9.64"/><rect class="cls-20" x="459.1" y="282.59" width="9.64" height="9.64"/><rect class="cls-20" x="478.38" y="244.02" width="9.64" height="9.64"/><rect class="cls-20" x="478.38" y="263.31" width="9.64" height="9.64"/><rect class="cls-20" x="478.38" y="282.59" width="9.64" height="9.64"/><rect class="cls-19" x="497.66" y="244.02" width="9.64" height="9.64"/><rect class="cls-19" x="497.66" y="263.31" width="9.64" height="9.64"/><rect class="cls-19" x="497.66" y="282.59" width="9.64" height="9.64"/><path class="cls-22" d="M438.37,187.62a32.12,32.12,0,0,0-45.31,0L391.6,189V308.72l1.45,1.35a31.89,31.89,0,0,0,45.31,0l1.45-1.35V189Zm0,0"/><rect class="cls-17" x="449.45" y="205.46" width="67.49" height="28.92"/><rect class="cls-19" x="483.2" y="244.02" width="4.82" height="9.64"/><rect class="cls-19" x="483.2" y="263.31" width="4.82" height="9.64"/><rect class="cls-19" x="483.2" y="282.59" width="4.82" height="9.64"/><rect class="cls-18" x="483.2" y="205.46" width="33.75" height="28.92"/><path class="cls-23" d="M439.81,189V308.72l-1.45,1.35a32,32,0,0,1-22.66,9.45V178.27a31.89,31.89,0,0,1,22.66,9.35Zm0,0"/><path class="cls-24" d="M335.5,261.62a46.59,46.59,0,0,1-82.27,2.81l7.21-17.1,1.07-.13,5.34-20.57,7.21,3.47a46.62,46.62,0,0,0,39,0l7.21-3.47,5.34,20.57,1.07.13Zm0,0"/><path class="cls-25" d="M335.5,261.62a46.83,46.83,0,0,1-41.94,26.18V234.38a46.63,46.63,0,0,0,19.5-4.27l7.21-3.47,5.34,20.57,1.07.13Zm0,0"/><path class="cls-11" d="M293.57,73.67A87,87,0,0,0,207,153.8l7.48,13.36h5.61v-6.68a73.83,73.83,0,0,1,21.3-51.8l.11-.11.11-.11a73.51,73.51,0,0,1,125.39,52v6.68h4.81l8.28-13.36a87,87,0,0,0-86.54-80.13Zm0,0"/><path class="cls-12" d="M293.57,73.67V87A73.54,73.54,0,0,1,367,160.48v6.68h4.81l8.28-13.36a87,87,0,0,0-86.54-80.13Zm0,0"/><path class="cls-26" d="M380.82,154.25H340v53.42H350l2.06,6,16.2-6h12.6s.13-51.28,0-53.42Zm0,0"/><path class="cls-27" d="M393.73,294.66a48.55,48.55,0,0,0-12.15-30c-6.94-7.48-17.1-12.42-28.85-14l-26-3.34L325,252.41a33.37,33.37,0,0,1-62.77,0l-1.74-5.08-26.18,3.34c-11.62,1.6-21.77,6.55-28.58,14a48.92,48.92,0,0,0-12.29,29.83l-.4,7.08H394Zm0,0"/><path class="cls-27" d="M207,153.8c-.13,2.14-.27,4.41-.27,6.68v47.19h40.07V153.8Zm0,0"/><path class="cls-28" d="M353.67,167.16v20.48a60,60,0,0,1-35,54.49,59,59,0,0,1-50.22,0,60,60,0,0,1-35-54.49V167.16l20.7-13.36h36.59l16.16-16.16,16.16,16.16h12.29Zm0,0"/><path class="cls-24" d="M318.67,242.13a58,58,0,0,1-25.11,5.61V151l13.36-13.36,16.16,16.16h12.29l18.3,13.36v20.48a60,60,0,0,1-35,54.49Zm0,0"/><path class="cls-26" d="M394,301.6H293.57V274.45a33.18,33.18,0,0,0,31.38-22l1.74-5.08,26,3.34c11.75,1.6,21.9,6.55,28.85,14a48.52,48.52,0,0,1,12.15,30Zm0,0"/><path class="cls-11" d="M293.57,100.38a60,60,0,0,0-60.1,60.1v6.68h62.9l10.55-10.55,10.55,10.55h36.19v-6.68a60.19,60.19,0,0,0-60.1-60.1Zm0,0"/><path class="cls-12" d="M353.67,160.48v6.68H317.47l-10.55-10.55-10.55,10.55h-2.8V100.38a60.19,60.19,0,0,1,60.1,60.1Zm0,0"/><path class="cls-23" d="M368.49,207.67A20,20,0,0,1,349.66,221H300.25V207.67Zm0,0"/></g><g class="cls-29"><path class="cls-11" d="M750.61,80.12,752,95.83l24.34,24.33L793.4,123l14.38-14.49L764.64,65.41l-14.39,14.5Zm0,0"/><path class="cls-15" d="M887.11,216.59l-43.33-43.33-6.3,6.09a11.84,11.84,0,0,1-16.35,0l-17-17-17-17a11.78,11.78,0,0,1-3.35-8.23,11.3,11.3,0,0,1,3.35-8l6.3-6.09-42.86-43-4.57,4a54.87,54.87,0,0,0,0,77.6l29.35,29.45h.1l29.35,29.35a54.47,54.47,0,0,0,38.9,16,53.85,53.85,0,0,0,38.39-15.74l4.64-3.88Zm0,0"/></g><path class="cls-30" d="M857.63,63.19a45.7,45.7,0,1,0,45.7,45.7,45.77,45.77,0,0,0-45.7-45.7Zm0,0"/><path class="cls-31" d="M903.34,108.9a45.77,45.77,0,0,1-45.7,45.7V63.19a45.77,45.77,0,0,1,45.7,45.7Zm0,0"/><path class="cls-20" d="M884.24,99.66l-31.69,31.69L831,109.81l7.21-7.21,14.32,14.32L877,92.45Zm0,0"/><path class="cls-12" d="M843.75,173.26l2.65,17,26.37,26.36,14.32,0,14-14.73L858,158.75l-14.33,14.43Zm0,0"/><path class="cls-19" d="M884.24,99.66l-26.61,26.61V111.85L877,92.45Zm0,0"/><path class="cls-16" d="M887.11,216.59l-43.33-43.33-6.3,6.09a11.84,11.84,0,0,1-16.35,0l-17-17-28.64,28.74,29.35,29.35a54.47,54.47,0,0,0,38.9,16,53.84,53.84,0,0,0,38.39-15.74l4.64-3.88Zm0,0"/></svg>