<svg id="Layer_1" data-name="Layer 1" xmlns="http://www.w3.org/2000/svg" xmlns:xlink="http://www.w3.org/1999/xlink" viewBox="0 0 930 300"><defs><style>.cls-1{fill:none;}.cls-2{fill:#424f70;}.cls-3{clip-path:url(#clip-path);}.cls-4{fill:#2c4169;}.cls-5{fill:#213054;}.cls-6{fill:#384670;}.cls-7{fill:#495478;}.cls-8{clip-path:url(#clip-path-2);}.cls-9{clip-path:url(#clip-path-3);}.cls-10{clip-path:url(#clip-path-4);}.cls-11{clip-path:url(#clip-path-5);}.cls-12{fill:#bdc3c7;}.cls-13{fill:#e6e6e6;}.cls-14{fill:#f7ad56;}.cls-15{fill:#f7931e;}.cls-16{fill:#384949;}.cls-17{fill:#293939;}.cls-18{fill:#c00;}.cls-19{clip-path:url(#clip-path-7);}.cls-20{fill:#8697cb;}.cls-21{fill:#556080;}.cls-22,.cls-36{fill:#fff;}.cls-23{fill:#e64c3c;}.cls-24{fill:#d0e8f9;}.cls-25{fill:#ff3636;}.cls-26{fill:#231f20;}.cls-26,.cls-32,.cls-35{opacity:0.1;}.cls-27{fill:#25d9f8;}.cls-28{fill:#00c0f1;}.cls-29{fill:#e2c59d;}.cls-30{fill:#f9d5a5;}.cls-31{opacity:0.2;}.cls-33{fill:#0b2e44;}.cls-34{fill:#00abe9;}.cls-35{fill-rule:evenodd;}.cls-36{opacity:0.5;}.cls-37{fill:#0095ff;}.cls-38{fill:#d3d3d8;}.cls-39{fill:#e7e7e7;}.cls-40{fill:#7d7e83;}.cls-41{fill:#ecf0f1;}.cls-42{fill:#d1d4d1;}.cls-43{fill:#9ca1b7;}.cls-44{fill:#575e6e;}.cls-45{fill:#3e5959;}.cls-46{fill:#4a696f;}.cls-47{fill:#cc2121;}</style><clipPath id="clip-path"><rect class="cls-1" width="930" height="300"/></clipPath><clipPath id="clip-path-2"><rect class="cls-1" x="489" width="234.25" height="185" transform="translate(30.82 304.57) rotate(-28.91)"/></clipPath><clipPath id="clip-path-3"><rect class="cls-1" x="-4.32" y="2.53" width="141.24" height="178.84" transform="translate(-46.25 105.53) rotate(-61.09)"/></clipPath><clipPath id="clip-path-4"><rect class="cls-1" x="302.23" y="199.34" width="306.54" height="242.09" transform="matrix(0.67, -0.74, 0.74, 0.67, -87.35, 444.67)"/></clipPath><clipPath id="clip-path-5"><rect class="cls-1" x="615.58" y="73.03" width="165.02" height="164.63" transform="translate(97.73 543.97) rotate(-45.46)"/></clipPath><clipPath id="clip-path-7"><path class="cls-1" d="M824.64,36.23A113.78,113.78,0,1,1,710.86,150,113.77,113.77,0,0,1,824.64,36.23Z"/></clipPath></defs><title>видео</title><rect id="Background_1" data-name="Background 1" class="cls-2" width="930" height="300"/><g class="cls-3"><path class="cls-4" d="M441.27-37.56a120.28,120.28,0,0,0-5.9-22.1l17.32-12.91-17.53-30.36-19.87,8.55a121.36,121.36,0,0,0-16.16-16.17l8.55-19.87-30.36-17.53-12.91,17.32a119.67,119.67,0,0,0-22.1-5.9L339.77-158H304.71l-2.53,21.47a120.28,120.28,0,0,0-22.1,5.9l-12.91-17.32-30.36,17.53,8.55,19.87A121.36,121.36,0,0,0,229.2-94.38l-19.87-8.55L191.8-72.57l17.32,12.91a119.67,119.67,0,0,0-5.9,22.1L181.74-35V0l21.47,2.53a120.28,120.28,0,0,0,5.9,22.1L191.8,37.57l17.53,30.36,19.87-8.55a121.36,121.36,0,0,0,16.16,16.17l-8.55,19.87,30.36,17.53,12.91-17.32a119.53,119.53,0,0,0,22.1,5.9L304.71,123h35.06l2.52-21.47a120.4,120.4,0,0,0,22.1-5.9l12.91,17.32,30.36-17.53-8.55-19.87a121.39,121.39,0,0,0,16.17-16.17l19.87,8.55,17.53-30.36L435.36,24.65a119.67,119.67,0,0,0,5.9-22.1L462.74,0V-35ZM369.2-17.5a47,47,0,0,1-47,47,47,47,0,0,1-47-47,47,47,0,0,1,47-47A47,47,0,0,1,369.2-17.5Z"/><path class="cls-5" d="M387.9-17.5a65.66,65.66,0,0,0-65.66-65.66A65.66,65.66,0,0,0,256.58-17.5a65.66,65.66,0,0,0,65.66,65.66A65.66,65.66,0,0,0,387.9-17.5Zm-18.7,0a47,47,0,0,1-47,47,47,47,0,0,1-47-47,47,47,0,0,1,47-47A47,47,0,0,1,369.2-17.5Z"/><path class="cls-4" d="M944.13,282.53a164.48,164.48,0,0,0-10.76-29.37l22-19.72-27.61-39.19-26,14.1a166,166,0,0,0-24-20l9.2-28.11-43.51-20.13L828,165.25a163.64,163.64,0,0,0-30.83-5.32L791.07,131l-47.75,4.32-.8,29.55a164.48,164.48,0,0,0-29.37,10.76l-19.72-22-39.19,27.61,14.1,26a166,166,0,0,0-20,24l-28.11-9.2-20.13,43.51L625.25,281a163.64,163.64,0,0,0-5.32,30.83L591,317.93l4.32,47.75,29.55.8a164.48,164.48,0,0,0,10.76,29.37l-22,19.72,27.61,39.19,26-14.1a166,166,0,0,0,24,20l-9.2,28.11,43.51,20.13L741,483.75a163.44,163.44,0,0,0,30.83,5.32L777.93,518l47.75-4.32.79-29.55a164.64,164.64,0,0,0,29.38-10.76l19.72,22,39.19-27.61-14.1-26a166,166,0,0,0,20-24l28.11,9.2,20.13-43.51L943.75,368a163.64,163.64,0,0,0,5.32-30.83L978,331.07l-4.32-47.75Zm-95.68,36.19a64.21,64.21,0,1,1-69.73-58.17A64.21,64.21,0,0,1,848.45,318.71Z"/><path class="cls-5" d="M873.92,316.41a89.78,89.78,0,1,0-81.33,97.5A89.78,89.78,0,0,0,873.92,316.41Zm-25.47,2.3a64.21,64.21,0,1,1-69.73-58.17A64.21,64.21,0,0,1,848.45,318.71Z"/><path class="cls-4" d="M119.81,258.43a99,99,0,0,0-4.86-18.19l14.25-10.63-14.43-25-16.35,7a99.88,99.88,0,0,0-13.3-13.31l7-16.35-25-14.43L56.54,181.83A98.49,98.49,0,0,0,38.35,177L36.28,159.3H7.42L5.34,177a99,99,0,0,0-18.19,4.86l-10.63-14.25-25,14.43,7,16.35a99.88,99.88,0,0,0-13.31,13.3l-16.35-7-14.43,25,14.25,10.63a98.49,98.49,0,0,0-4.86,18.19l-17.67,2.08v28.85l17.67,2.08a99,99,0,0,0,4.86,18.19L-85.5,320.26l14.43,25,16.35-7a99.88,99.88,0,0,0,13.3,13.31l-7,16.35,25,14.43L-12.84,368a98.37,98.37,0,0,0,18.19,4.86l2.08,17.67H36.28l2.08-17.67A99.09,99.09,0,0,0,56.55,368l10.63,14.25,25-14.43-7-16.35A99.9,99.9,0,0,0,98.42,338.2l16.35,7,14.43-25-14.25-10.63a98.49,98.49,0,0,0,4.86-18.19l17.67-2.08V260.51ZM60.5,274.93a38.65,38.65,0,1,1-38.65-38.65A38.65,38.65,0,0,1,60.5,274.93Z"/><path class="cls-5" d="M75.89,274.93a54,54,0,1,0-54,54A54,54,0,0,0,75.89,274.93Zm-15.39,0a38.65,38.65,0,1,1-38.65-38.65A38.65,38.65,0,0,1,60.5,274.93Z"/><path class="cls-6" d="M282.09,257.35c2.77,11.2-4.6,20.25-15.78,23s-21.95-1.8-24.72-13Zm0,0"/><path class="cls-4" d="M304.59,253.52l-80,19.79a12.41,12.41,0,0,1-15-9.07l-24.1-97.34a12.41,12.41,0,0,1,9.07-15l80-19.79c6.65-1.65,12.37,2.66,14,9.33l24.1,97.34c1.65,6.67-1.4,13.15-8,14.79Zm0,0"/><path class="cls-7" d="M287.28,183.59a41.72,41.72,0,1,1-50.52-30.47,41.72,41.72,0,0,1,50.52,30.47Zm0,0"/><path class="cls-6" d="M253.16,219.39a26.54,26.54,0,1,1,19.4-32.16,26.57,26.57,0,0,1-19.4,32.16Zm0,0"/><path class="cls-5" d="M277.25,143.09a3.8,3.8,0,1,1-4.59-2.75,3.79,3.79,0,0,1,4.59,2.75Zm0,0"/><path class="cls-5" d="M300.9,254.43l-73.62,18.22L225.39,265a11.1,11.1,0,0,1,8.1-13.45l52.09-12.89A11.1,11.1,0,0,1,299,246.81Zm0,0"/><path class="cls-7" d="M233,200.94a3.8,3.8,0,0,1-4.6-2.77,19,19,0,0,1,13.85-23,3.8,3.8,0,1,1,1.82,7.37,11.37,11.37,0,0,0-8.3,13.77,3.8,3.8,0,0,1-2.77,4.6Zm0,0"/><path class="cls-6" d="M901.23,107.84c-3.88,14.36-17.86,20-32.19,16.08S845.42,108.16,849.3,93.8Zm0,0"/><path class="cls-4" d="M929,117.59,826.45,89.86a16,16,0,0,1-11.28-19.65L848.92-54.61a16,16,0,0,1,19.65-11.28L971.11-38.16c8.53,2.31,12.28,10.74,10,19.29L947.32,106c-2.31,8.56-9.8,13.94-18.33,11.64Zm0,0"/><path class="cls-7" d="M953.24,27.91a53.79,53.79,0,1,1-37.89-66,53.8,53.8,0,0,1,37.89,66Zm0,0"/><path class="cls-6" d="M892.37,46.93a34.23,34.23,0,1,1,42-24.12,34.26,34.26,0,0,1-42,24.12Zm0,0"/><path class="cls-5" d="M924.27,116.31l-94.4-25.53L832.5,81A14.32,14.32,0,0,1,850,70.92L916.84,89a14.32,14.32,0,0,1,10.07,17.56Zm0,0"/><path class="cls-7" d="M881.16,13.49a4.9,4.9,0,0,1-3.45-6,24.5,24.5,0,0,1,30-17.22,4.9,4.9,0,0,1,3.45,6,4.9,4.9,0,0,1-6,3.45,14.66,14.66,0,0,0-18,10.32,4.9,4.9,0,0,1-6,3.45Zm0,0"/><path class="cls-4" d="M601.21-5.88,461,71.56s42.76-6.09,57.54,4.81l17.53-9.68c2.91,5.28,8.54,7.17,11.26,12.1,12.83,23.22,12.84,47.79,2.19,53.67l98.16-54.21c10.73-8.36,11.41-28.68-2.34-53.58S614-10.51,601.21-5.88Zm0,0"/><path class="cls-6" d="M742.16,117.55l-6.39,3.53a8.36,8.36,0,0,1-11.36-3.26l-28.7-52A8.36,8.36,0,0,1,699,54.48L705.37,51a8.36,8.36,0,0,1,11.37,3.28l28.69,51.94a8.36,8.36,0,0,1-3.28,11.37Zm0,0"/><rect class="cls-7" x="665.98" y="93.19" width="48.04" height="24.01" transform="translate(35.14 346.7) rotate(-28.91)"/><path class="cls-6" d="M626.64,89.86l21-11.62,27,49a8.15,8.15,0,0,1-3.21,11.06L664.73,142a8.13,8.13,0,0,1-11.05-3.19Zm0,0"/><path class="cls-7" d="M547.32,78.79a91,91,0,0,0-9-13.36l-19.8,10.94c-5.3-3.89-14.18-5.61-23.4-6.21.62,9.44,4,20.73,10.12,31.87,12.83,23.22,32.64,36.85,44.26,30.43,10.64-5.88,10.63-30.44-2.19-53.67Zm0,0"/><path class="cls-6" d="M609.94,76.21a4,4,0,1,1-5.45-1.57,4,4,0,0,1,5.45,1.57Zm0,0"/><path class="cls-6" d="M595.92,84a4,4,0,1,1-5.44-1.57A4,4,0,0,1,595.92,84Zm0,0"/><path class="cls-6" d="M581.9,91.69a4,4,0,1,1-5.45-1.57,4,4,0,0,1,5.45,1.57Zm0,0"/><path class="cls-5" d="M601.21-5.88,461,71.56s42.76-6.09,57.54,4.81l28.05-15.49,21.77,6.3,77-42.51C631.55-.26,614-10.51,601.21-5.88Zm0,0"/><path class="cls-4" d="M498.75,70.46l.6.07-.6-.07Zm0,0"/><g class="cls-8"><path class="cls-4" d="M502.26,70.88l-.09,0,.09,0Zm0,0"/><path class="cls-4" d="M495.13,70.15C478.61,69.07,461,71.56,461,71.56s7.57,22.8,35.51,7.8a59.19,59.19,0,0,1-1.38-9.2Zm0,0"/></g><path class="cls-4" d="M495.25,70.15a2.5,2.5,0,0,0,.39,0,2.5,2.5,0,0,1-.39,0Zm0,0"/><path class="cls-6" d="M530.72,81.83a40.69,40.69,0,0,0-6.34-8.69l-5.84,3.22A24.7,24.7,0,0,0,511.8,73c0,4.16,1.3,10,4.9,16.55,6.43,11.64,15.19,16,17.33,14.84s3.11-10.95-3.32-22.58Zm0,0"/><path class="cls-7" d="M530.33,98.53c-.94-1.7-3.11-4.09-5.78-2.62s-2.59,3.2-.88,6.3c3.06,5.55,7.23,7.64,8.26,7.07s1.46-5.2-1.61-10.75Zm0,0"/><path class="cls-4" d="M70,16.84c-9.77-3.53-23.16,4.29-33.68,23.31s-10,34.52-1.79,40.91l74.94,41.39c-8.13-4.49-8.12-23.24,1.67-41,2.08-3.76,6.37-5.21,8.6-9.24l13.38,7.39C144.44,71.32,177.09,76,177.09,76L70,16.84Zm0,0"/><rect class="cls-7" x="-6.9" y="83.3" width="18.33" height="36.68" transform="translate(-87.8 54.48) rotate(-61.09)"/><path class="cls-6" d="M30,127.32a6.21,6.21,0,0,1-8.44,2.43l-5.17-2.86a6.22,6.22,0,0,1-2.45-8.45L34.58,81.06l16.06,8.87ZM50.64,89.93"/><path class="cls-7" d="M111.19,81.48c-9.79,17.73-9.8,36.48-1.67,41,8.87,4.9,24-5.5,33.79-23.23,4.7-8.51,7.26-17.12,7.73-24.33-7,.46-13.82,1.78-17.87,4.74L118,71.28a69.48,69.48,0,0,0-6.86,10.2Zm0,0"/><path class="cls-6" d="M63.38,79.51a3.05,3.05,0,1,1,1.2,4.16,3.07,3.07,0,0,1-1.2-4.16Zm0,0"/><path class="cls-6" d="M74.09,85.42a3.06,3.06,0,1,1,1.2,4.16,3.06,3.06,0,0,1-1.2-4.16Zm0,0"/><path class="cls-6" d="M84.79,91.33A3.06,3.06,0,1,1,86,95.49a3.07,3.07,0,0,1-1.2-4.16Zm0,0"/><path class="cls-5" d="M70,16.84c-9.77-3.53-23.16,4.29-33.68,23.31L95.13,72.61l16.62-4.81,21.42,11.83C144.44,71.32,177.09,76,177.09,76L70,16.84Zm0,0"/><path class="cls-4" d="M148.27,75.12l-.46.05.46-.05Zm0,0"/><g class="cls-9"><path class="cls-4" d="M145.59,75.45h0Zm0,0"/><path class="cls-4" d="M151,74.89a45.19,45.19,0,0,1-1.05,7c21.33,11.46,27.11-6,27.11-6A147,147,0,0,0,151,74.89Zm0,0"/></g><path class="cls-4" d="M150.94,74.89a1.91,1.91,0,0,1-.3,0,1.91,1.91,0,0,0,.3,0Zm0,0"/><path class="cls-6" d="M123.87,83.81c-4.91,8.88-4.17,16.34-2.53,17.24s8.33-2.45,13.23-11.33a27.5,27.5,0,0,0,3.74-12.63,18.86,18.86,0,0,0-5.14,2.55l-4.46-2.46a31.07,31.07,0,0,0-4.84,6.64Zm0,0"/><path class="cls-7" d="M124.16,96.56c-2.34,4.23-2,7.78-1.23,8.21s4-1.16,6.31-5.4c1.31-2.36,1.38-3.67-.67-4.81s-3.69.71-4.41,2Zm0,0"/><path class="cls-4" d="M331.55,285c-9.69,14.93-1.81,40.33,25.87,65.27s53.77,30,67.61,18.84l98.15-109.07c-10.64,11.83-42,4.54-67.76-18.68-5.48-4.93-6.23-12.66-12.09-17.93L460.85,204c-9.51-22.06,10.9-74.76,10.9-74.76L331.55,285Zm0,0"/><path class="cls-7" d="M455.42,241.38c25.81,23.22,57.12,30.5,67.76,18.68,11.62-12.92.11-42.2-25.69-65.42-12.38-11.14-25.77-18.75-37.63-22.33-2,11.93-2.39,23.77,1,31.67l-19.8,22a119.09,119.09,0,0,0,14.37,15.41Zm0,0"/><path class="cls-6" d="M447.62,304.85a5.24,5.24,0,1,1,7.41-.39,5.25,5.25,0,0,1-7.41.39Zm0,0"/><path class="cls-6" d="M461.64,289.27a5.24,5.24,0,1,1,7.41-.39,5.25,5.25,0,0,1-7.41.39Zm0,0"/><path class="cls-5" d="M331.55,285c-9.69,14.93-1.81,40.33,25.87,65.27l77-85.53-1.58-29.61,28-31.17c-9.51-22.06,10.9-74.76,10.9-74.76L331.55,285Zm0,0"/><path class="cls-4" d="M459.18,177c0,.28-.06.53-.09.78,0-.26.05-.51.09-.78Zm0,0"/><g class="cls-10"><path class="cls-4" d="M458.68,181.6a.43.43,0,0,1,0-.13.43.43,0,0,0,0,.13Zm0,0"/><path class="cls-4" d="M459.86,172.3a77.46,77.46,0,0,1,11.32,4.48c27.4-31.17.57-47.57.57-47.57s-8.38,21.71-11.89,43.09Zm0,0"/></g><path class="cls-4" d="M459.83,172.44a3.27,3.27,0,0,1-.08.51,3.27,3.27,0,0,0,.08-.51Zm0,0"/><path class="cls-6" d="M464.22,221.11C477.15,232.74,489.89,234.4,492,232s-.86-14.85-13.79-26.49c-7.24-6.52-14.36-9.85-19.64-11.14a32.33,32.33,0,0,0,2.26,9.57L455,210.45a53.25,53.25,0,0,0,9.21,10.66Zm0,0"/><path class="cls-7" d="M485.62,225.56c6.16,5.55,12.22,6.35,13.22,5.23s-.41-7.08-6.57-12.63c-3.44-3.1-5.6-3.73-8.29-.74s-.25,6.44,1.63,8.14Zm0,0"/></g><g class="cls-11"><path class="cls-12" d="M595.23,146.76l27.28-.22.15,19.18-27.28.22a28.28,28.28,0,0,0,6.93,10.74,28.68,28.68,0,0,0,47.59-11.47l96.42-.53a28.82,28.82,0,0,0,54.46-.44l-27.28.22-.15-19.18,27.28-.22a28.85,28.85,0,0,0-54.44.45l-96.53.61a28.9,28.9,0,0,0-54.42.64Zm0,0"/><path class="cls-13" d="M595.23,146.76l27.28-.22.08,9.35c45-.36,107-.61,150.84-1l-.08-9.64,27.28-.22a28.85,28.85,0,0,0-54.44.45l-96.53.61a28.9,28.9,0,0,0-54.42.64Zm0,0"/></g><path class="cls-14" d="M669.23,188,669,219.79l7.82,10.09,71.56.58.29-24.1.15-24-71.62-.62Zm8-6.2"/><path class="cls-15" d="M669,219.79l7.82,10.09,71.56.58.29-24.1-79.56-.64Zm.11-14.07"/><path class="cls-12" d="M578.87,226.41l9.56-9.72,80.82-.7,2.52-9.66,2.53-9.76-86,.56-9.62-9.47-29.07,9.91.18,9.73.08,9.64Zm0,0"/><path class="cls-13" d="M549.76,207.32l122-1,2.53-9.76-86,.56-9.62-9.47-29.07,9.91Zm0,0"/><path class="cls-16" d="M657.71,205.62l-.1,24.1,19.18.16.39-48.1-19.28-.16Zm.19-24"/><path class="cls-17" d="M657.61,229.72l19.18.16.19-24.1-19.28-.15Zm.1-24.1"/><g class="cls-3"><circle class="cls-18" cx="824.64" cy="150" r="127.36"/><path class="cls-12" d="M824.64,36.23A113.78,113.78,0,1,1,710.86,150,113.77,113.77,0,0,1,824.64,36.23Z"/><g class="cls-19"><path class="cls-20" d="M875.67,206.64l.73-.73-32.75-47.66-14.89,6,34.86,52.3a19.42,19.42,0,0,1,12.06-9.87Zm0,0"/><path class="cls-20" d="M884.94,196.49a17.23,17.23,0,0,1,1.3,2.24,4.51,4.51,0,0,1,.23.47,16.59,16.59,0,0,1,.95,2.39h0a21.48,21.48,0,0,1,.58,2.53c0,.2.07.41.1.63a19.89,19.89,0,0,1,.2,2.65,10.62,10.62,0,0,1-.06,1.12,19.43,19.43,0,0,1-.41,3.05L933,199.95V182.07Zm0,0"/><path class="cls-21" d="M888.32,207.39A19.37,19.37,0,1,1,868.95,188a19.36,19.36,0,0,1,19.38,19.36Zm0,0"/><path class="cls-21" d="M849.59,151c0,9.06-7.33,14.57-16.37,14.57S816.82,160,816.82,151Zm0,0"/><path class="cls-22" d="M867.46,152.29H802.76a9.75,9.75,0,0,1-9.76-9.76V63.76A9.75,9.75,0,0,1,802.76,54h64.71c5.38,0,8.93,4.36,8.93,9.76v78.77c0,5.4-3.55,9.76-8.93,9.76Zm0,0"/><path class="cls-20" d="M867.46,95.7A32.77,32.77,0,1,1,834.7,62.93,32.77,32.77,0,0,1,867.46,95.7Zm0,0"/><path class="cls-21" d="M834.7,116.55A20.85,20.85,0,1,1,855.55,95.7a20.87,20.87,0,0,1-20.86,20.86Zm0,0"/><path class="cls-23" d="M867.46,62.93a3,3,0,1,1-3-3,3,3,0,0,1,3,3Zm0,0"/><path class="cls-13" d="M864.48,152.29H804.91v-6.17a8.72,8.72,0,0,1,8.71-8.73h42.15a8.72,8.72,0,0,1,8.71,8.73Zm0,0"/><path class="cls-24" d="M822.79,98.68a3,3,0,0,1-3-3A14.92,14.92,0,0,1,834.7,80.8a3,3,0,1,1,0,6,8.93,8.93,0,0,0-8.93,8.93,3,3,0,0,1-3,3Zm0,0"/><g id="Security"><path class="cls-15" d="M781.29,126.39,737,144.85,736.45,192s2.19,32.87,43.39,51.61c41.65-17.72,44.65-50.52,44.65-50.52l.58-47.15Z"/><path class="cls-25" d="M781.14,138.36l-35.21,14.69-.46,37.52s1.74,26.15,34.52,41.06c33.14-14.1,35.53-40.2,35.53-40.2l.46-37.52Z"/><path class="cls-26" d="M824.49,193.09l.58-47.15-43.79-19.56-1.45,117.23C821.49,225.9,824.49,193.09,824.49,193.09Z"/><polygon class="cls-22" points="755.96 191.03 765.03 182.03 776.1 193.19 799.99 170.38 808.81 179.62 775.9 211.05 755.96 191.03"/></g></g><path class="cls-27" d="M287.7,212.72a80.93,80.93,0,0,1,.09-114.43l6.73,6.74a71.5,71.5,0,0,0-.08,101l-6.74,6.73Zm0,0"/><path class="cls-27" d="M301.18,199.27a62.08,62.08,0,0,1,.07-87.5l6.73,6.74a52.33,52.33,0,0,0-.06,74l-6.74,6.73Zm0,0"/><path class="cls-27" d="M314.65,185.82a42.9,42.9,0,0,1,0-60.58l6.73,6.74a33.48,33.48,0,0,0,0,47.12l-6.74,6.73Zm0,0"/><path class="cls-27" d="M328.12,172.37a23.73,23.73,0,0,1,0-33.65l6.73,6.74a14.3,14.3,0,0,0,0,20.19l-6.74,6.73Zm0,0"/><path class="cls-28" d="M328.12,172.37a23.82,23.82,0,0,1-7-16.83h9.56a14.16,14.16,0,0,0,4.16,10.1Zm6.74-6.73"/><path class="cls-28" d="M314.65,185.82a42.59,42.59,0,0,1-12.5-30.3h9.56a32.94,32.94,0,0,0,9.67,23.57Zm6.74-6.73"/><path class="cls-28" d="M301.18,199.27a61.42,61.42,0,0,1-18-43.76h9.42a52.48,52.48,0,0,0,15.32,37Zm6.74-6.73"/><path class="cls-28" d="M287.7,212.72a80.73,80.73,0,0,1-23.65-57.23h9.56A71.08,71.08,0,0,0,294.44,206l-6.74,6.73Zm0,0"/><g id="Acces"><path class="cls-29" d="M367.79,212l-36.23-13-28.49,30.45L273,313.42l74.4,26.66,5.44-15.19s37.23-10.84,45.51-27.22c0,0-9.26-4.88-36.58-15.11s-24.23-26-36.42-39.83l11.54-15.65S358.49,235.48,367.79,212Z"/><path class="cls-30" d="M424,206.39c.78,4,6.06,6.42,11.78,5.31l15.13-2.92c5.73-1.11,9.74-5.28,9-9.31l-.47-2.44c-.78-4-6.05-6.42-11.78-5.31l-15.12,2.92c-5.73,1.1-9.74,5.27-9,9.31Z"/><path class="cls-31" d="M397.57,299a27.21,27.21,0,0,1-4.22,5.15l-78-27.94,2.43-16.62,20.72,7.42,2.07,1c4.12,5.41,10.19,10.42,21.17,14.53,19.23,7.2,29.5,11.74,33.91,13.81Z"/><path class="cls-32" d="M432.48,194.64l5.09-1-6.51,18.17c-3.67-.53-6.52-2.56-7.07-5.44l-.47-2.44C422.74,199.91,426.75,195.74,432.48,194.64Z"/><g id="Phone"><rect class="cls-33" x="294.4" y="156.96" width="170.04" height="97.72" rx="5.76" ry="5.76" transform="translate(57.68 493.58) rotate(-70.29)"/><rect class="cls-34" x="323.56" y="159.64" width="116.24" height="79.7" transform="translate(65.14 491.52) rotate(-70.29)"/><path class="cls-15" d="M422.56,182.52l-.16-.21a4.47,4.47,0,0,0-6.26-.79l-7.61,6a.94.94,0,0,1-1.3-.14l-8.34-9.93a5,5,0,0,0-3.2-1.74l-14.06-1.79a1.3,1.3,0,0,0-.93.24l-13.36,9.79a4.6,4.6,0,0,0-1.07,6.24,4.44,4.44,0,0,0,3.07,1.84h0a4.46,4.46,0,0,0,3.41-1l9.55-7.83,3,.38L362.92,203l-12.11-1.54a5.32,5.32,0,0,0-6,4.2,5.16,5.16,0,0,0,.92,4,5.22,5.22,0,0,0,3.54,2.09l18.07,2.3a1.3,1.3,0,0,0,1-.29l10.52-8.7,6.75,9.14-4.27,14.72A5.2,5.2,0,0,0,385.5,236a5.19,5.19,0,0,0,5.54-3.4l6.76-21a1.3,1.3,0,0,0-.21-1.2l-9.35-12.07,9.6-7.42,5.18,6.69a4.53,4.53,0,0,0,6.2.79l12.56-9.72a4.39,4.39,0,0,0,.78-6.16Z"/><path class="cls-15" d="M408.26,181.21a7.81,7.81,0,1,0-6.76-8.73A7.82,7.82,0,0,0,408.26,181.21Z"/><polygon class="cls-35" points="363.77 131.34 365.17 131.84 401.18 263.23 399.59 267.64 324.57 240.76 363.77 131.34"/></g><path class="cls-30" d="M295.42,226.73l28.49-30.45,36.23,13c-9.29,23.48-30.9,15.08-30.9,15.08L317.7,240c12.19,13.82,7,37,7,37S319,309.17,293,320.6l-27.7-9.92Z"/><path class="cls-30" d="M415,231.52a7.45,7.45,0,0,0,8.73,5.9l10.67-2.06a7.45,7.45,0,0,0,5.9-8.72l-.47-2.44a7.45,7.45,0,0,0-8.72-5.9l-10.67,2.06a7.45,7.45,0,0,0-5.9,8.72Z"/><path class="cls-36" d="M421,221.78l1-.2,2.6,14-.93.18a6.11,6.11,0,0,1-7.15-4.84l-.38-2A6.1,6.1,0,0,1,421,221.78Z"/><path class="cls-30" d="M406.68,254.69a7.45,7.45,0,0,0,8.72,5.9l10.67-2.06a7.45,7.45,0,0,0,5.9-8.72l-.47-2.44a7.45,7.45,0,0,0-8.72-5.9l-10.67,2.06a7.45,7.45,0,0,0-5.9,8.72Z"/><path class="cls-36" d="M412.69,245l1-.2,2.6,14-.93.18a6.1,6.1,0,0,1-7.15-4.84l-.38-2A6.1,6.1,0,0,1,412.69,245Z"/><path class="cls-30" d="M400.79,276.64a6.12,6.12,0,0,0,7.17,4.85l8.77-1.69a6.13,6.13,0,0,0,4.85-7.17l-.39-2a6.12,6.12,0,0,0-7.17-4.85l-8.77,1.69a6.13,6.13,0,0,0-4.85,7.17Z"/><path class="cls-36" d="M405.74,268.63l.85-.16L408.72,280l-.77.15a5,5,0,0,1-5.88-4l-.32-1.64A5,5,0,0,1,405.74,268.63Z"/><path class="cls-36" d="M344.28,204.09a4.23,4.23,0,0,1,.19-.45l13.67,4.9a4,4,0,0,1-.13.47c-1,2.85-4.92,4.06-8.72,2.7S343.25,206.94,344.28,204.09Z"/></g><path class="cls-34" d="M177.76,226.5A84.26,84.26,0,1,1,93.5,142.24a84.48,84.48,0,0,1,84.26,84.26Zm0,0"/><path class="cls-37" d="M177.76,226.5A84.48,84.48,0,0,1,93.5,310.76V142.24a84.48,84.48,0,0,1,84.26,84.26Zm0,0"/><path class="cls-27" d="M93.5,137C44.31,137,4,177.31,4,226.5S44.31,316,93.5,316,183,275.69,183,226.5,142.69,137,93.5,137Zm62.82,42.3H133.77c-3.46-10.7-8.08-19.72-13.53-26.74a80,80,0,0,1,36.08,26.74ZM98.74,148.43c9.54,3.15,18,14.72,23.81,30.87H98.74ZM24,189.79H46.3V179.3H30.67a79,79,0,0,1,36.18-26.74A80.22,80.22,0,0,0,55.64,172.8l9.75,3.88c5.87-15.1,14.16-25.31,22.86-28.25V179.3h-21v10.49h21v31.46H57a165,165,0,0,1,2.73-25.38l-10.17-2.1a156.41,156.41,0,0,0-3,27.48H14.8A78.18,78.18,0,0,1,24,189.79Zm0,73.42a78.19,78.19,0,0,1-9.16-31.46h31.6a154.4,154.4,0,0,0,4,31.46Zm6.71,10.49H53.33c3.46,10.59,8,19.72,13.43,26.64A79,79,0,0,1,30.67,273.7Zm89.57,26.74c5.45-7,10.07-16.12,13.53-26.81h22.55a80.14,80.14,0,0,1-36.08,26.81ZM163,263.21H136.61a160,160,0,0,0,3.77-25.91l-10.49-.63a146.35,146.35,0,0,1-4.09,26.54H104v10.42h18.56c-5.77,16.15-14.26,27.79-23.81,30.94V278.94H88.26v25.62c-9.54-3-18.14-14.82-23.81-30.87H83V263.21H61.2a153,153,0,0,1-4.3-31.46H88.26V258H98.74V231.74H125V221.26H98.74V189.79H125.8a146.44,146.44,0,0,1,4.09,26.53l10.49-.63a160,160,0,0,0-3.77-25.9H163a78.24,78.24,0,0,1,9.16,31.46H145.94v10.42H172.2A78.55,78.55,0,0,1,163,263.21Zm0,0"/><path class="cls-28" d="M93.5,137V258h5.24V231.74H125V221.26H98.74V189.79H125.8a146.44,146.44,0,0,1,4.09,26.53l10.49-.63a160,160,0,0,0-3.77-25.9H163a78.24,78.24,0,0,1,9.16,31.46H145.94v10.42H172.2A78.57,78.57,0,0,1,163,263.21H136.61a160,160,0,0,0,3.77-25.91l-10.49-.63a146.35,146.35,0,0,1-4.09,26.54H104v10.42h18.56c-5.77,16.15-14.26,27.79-23.81,30.94V278.94H93.5V316c49.19,0,89.5-40.31,89.5-89.5S142.69,137,93.5,137Zm5.24,42.3V148.43c9.54,3.15,18,14.72,23.81,30.87Zm35,0c-3.46-10.7-8.08-19.72-13.53-26.74a80,80,0,0,1,36.08,26.74ZM120.24,300.44c5.45-7,10.07-16.12,13.53-26.81h22.55a80.14,80.14,0,0,1-36.08,26.81Zm0,0"/><path class="cls-38" d="M135.45,242.23a15.73,15.73,0,1,1,15.73-15.73,15.75,15.75,0,0,1-15.73,15.73Zm0,0"/><path class="cls-39" d="M93.5,252.72a15.73,15.73,0,1,0,15.73,15.73A15.71,15.71,0,0,0,93.5,252.72Zm0,0"/><path class="cls-39" d="M56.79,200.28a15.73,15.73,0,1,1,15.73-15.73,15.75,15.75,0,0,1-15.73,15.73Zm0,0"/><path class="cls-38" d="M109.23,268.45A15.71,15.71,0,0,1,93.5,284.19V252.72a15.71,15.71,0,0,1,15.73,15.73Zm0,0"/><rect class="cls-40" x="51.16" y="17.9" width="259.68" height="44.77"/><path class="cls-41" d="M310.84,62.68C310.84,134.39,252.71,197,181,197S51.16,134.39,51.16,62.68Zm0,0"/><rect class="cls-42" x="64.58" width="228.35" height="17.9"/><rect class="cls-43" x="140.71" y="17.9" width="26.87" height="44.77"/><rect class="cls-44" x="167.58" y="17.9" width="26.87" height="44.77"/><rect class="cls-43" x="194.45" y="17.9" width="26.85" height="44.77"/><path class="cls-12" d="M181,197c44.58,0,83.89-24.2,107.28-59.73a129.83,129.83,0,0,0-214.53,0C97.11,172.8,136.42,197,181,197Zm0,0"/><path class="cls-20" d="M239.22,138.8A58.21,58.21,0,1,1,181,80.58a58.21,58.21,0,0,1,58.22,58.22Zm0,0"/><path class="cls-21" d="M221.29,138.8A40.29,40.29,0,1,1,181,98.51a40.29,40.29,0,0,1,40.29,40.29Zm0,0"/><path class="cls-22" d="M198.9,156.71a4.4,4.4,0,0,1-4.46-4.48,4.47,4.47,0,1,1,8.94,0,4.76,4.76,0,0,1-1.29,3.2,4.82,4.82,0,0,1-3.2,1.29Zm0,0"/><path class="cls-22" d="M176.52,120.9a4.44,4.44,0,0,1-4.45-4.48,4.47,4.47,0,1,1,8.94,0,4.44,4.44,0,0,1-4.48,4.48Zm0,0"/><path class="cls-22" d="M203.39,138.8a4.49,4.49,0,0,1-4.48-4.48c0-7.28-4.09-13.42-8.94-13.42a4.48,4.48,0,0,1,0-9c9.88,0,17.9,10,17.9,22.39a4.49,4.49,0,0,1-4.48,4.48Zm0,0"/><path class="cls-13" d="M403.56,44v86.51h12.36V164l33.49-33.49H515.2V44Zm0,0"/><rect class="cls-12" x="459.17" y="44" width="56.03" height="86.51"/><rect class="cls-45" x="485.86" y="93.43" width="12.36" height="12.36"/><rect class="cls-46" x="445.35" y="93.52" width="31.63" height="12.4"/><rect class="cls-47" x="421.03" y="101.44" width="12.21" height="12.21"/><rect class="cls-47" x="420.91" y="61.41" width="12.25" height="31.26"/><rect class="cls-46" x="445.35" y="68.72" width="53.08" height="12.4"/></g></svg>