<svg xmlns="http://www.w3.org/2000/svg" xmlns:xlink="http://www.w3.org/1999/xlink" viewBox="0 0 930 300"><defs><style>.cls-1{fill:none;}.cls-2{isolation:isolate;}.cls-3{fill:#6e9dbd;}.cls-4{clip-path:url(#clip-path);}.cls-5{fill:#487fa9;}.cls-6{fill:#4886ae;}.cls-7{fill:#5193b6;}.cls-8{fill:#4888af;}.cls-9{fill:#546a79;}.cls-10{fill:#081d3a;}.cls-11{fill:#ffd147;}.cls-12{fill:#08192d;}.cls-13{fill:#fff;}.cls-14,.cls-47{fill:#0056a3;}.cls-15{fill:#e2ff9c;}.cls-16{clip-path:url(#clip-path-3);}.cls-17{fill:#1abc9c;}.cls-18{fill:#17a388;}.cls-19{fill:#17ace8;}.cls-20{fill:#1689fc;}.cls-21{fill:#136ef1;}.cls-22{fill:#a8aff1;}.cls-23{fill:#8a93e6;}.cls-24{fill:#e1e4fb;}.cls-25{fill:#c5c9f7;}.cls-26{fill:#bf7a0e;}.cls-27,.cls-39{fill:#f39c12;}.cls-28{fill:#d3d3d3;opacity:0.6;mix-blend-mode:screen;}.cls-29,.cls-44{opacity:0.1;}.cls-30{fill:#4d4d4d;}.cls-31,.cls-43{opacity:0.2;}.cls-32{fill:#ffbd86;}.cls-33{fill:#f6a96c;}.cls-34{fill:#c3eb5c;}.cls-35{fill:#fed2a4;}.cls-36{fill:#abcf51;}.cls-37{fill:#384949;}.cls-38{fill:#293939;}.cls-39,.cls-41,.cls-42,.cls-43,.cls-44,.cls-46,.cls-47,.cls-48{fill-rule:evenodd;}.cls-40{fill:#e6e6e6;}.cls-41{fill:#474646;}.cls-42{fill:#d84848;}.cls-43,.cls-44{fill:#231f20;}.cls-45{fill:#369;}.cls-46,.cls-49{fill:#f63;}.cls-48,.cls-50{fill:#3c9;}.cls-51{fill:#dadada;}.cls-52{fill:#d13f3f;}.cls-53{fill:#f4821f;}.cls-54{fill:url(#linear-gradient);}</style><clipPath id="clip-path"><rect class="cls-1" width="930" height="300"/></clipPath><clipPath id="clip-path-3"><path class="cls-1" d="M824.64,36.23A113.78,113.78,0,1,1,710.86,150,113.77,113.77,0,0,1,824.64,36.23Z"/></clipPath><linearGradient id="linear-gradient" x1="-872.34" y1="-382.86" x2="-576.58" y2="-382.86" gradientTransform="matrix(0.18, 0, 0, -0.18, 176.76, 158.72)" gradientUnits="userSpaceOnUse"><stop offset="0" stop-color="#21672f"/><stop offset="0.49" stop-color="#578a32"/><stop offset="1" stop-color="#8eae36"/></linearGradient></defs><title>ИТ_аудит</title><g class="cls-2"><g id="Layer_1" data-name="Layer 1"><rect id="Background_1" data-name="Background 1" class="cls-3" width="930" height="300"/><g class="cls-4"><g id="Lens"><path class="cls-5" d="M125.66-1.12a22,22,0,0,1-1.56-31.05h0a22,22,0,0,1,31-1.56l89.14,80.61a22,22,0,0,1,1.56,31h0a22,22,0,0,1-31.05,1.56Z"/><path class="cls-6" d="M134.66,2.53a18.64,18.64,0,0,1-1.32-26.34h0a18.64,18.64,0,0,1,26.34-1.33l75.61,68.38a18.65,18.65,0,0,1,1.32,26.34h0a18.65,18.65,0,0,1-26.34,1.32Z"/><circle class="cls-7" cx="323.42" cy="148.09" r="67.28" transform="translate(-3.35 288.64) rotate(-47.88)"/><path class="cls-8" d="M231.3,84.08a18.69,18.69,0,0,0,19.36-19.2c-3.92-.42-9.3,2.18-13.63,7C233.41,75.86,231.39,80.43,231.3,84.08Z"/><path class="cls-5" d="M265.72,211.9A86,86,0,1,0,267,83.15l-16.55-15s-16.18.29-15.72,15.63L252.31,99.7A86,86,0,0,0,265.72,211.9ZM273.52,103a67.28,67.28,0,1,1,4.78,95A67.29,67.29,0,0,1,273.52,103Z"/><path class="cls-8" d="M345.5,212.08a67.27,67.27,0,0,0,27.32-109.55C401.41,159.82,367.5,196,345.5,212.08Z"/></g><g id="Lens-2" data-name="Lens"><circle class="cls-7" cx="549.02" cy="340.86" r="72.62" transform="translate(-97.04 355.48) rotate(-33.13)"/><path class="cls-5" d="M626.78,290.11a92.85,92.85,0,1,0-36.73,134l13.16,20.16s17,4.14,20.7-12l-14-21.4A92.85,92.85,0,0,0,626.78,290.11ZM588.71,401.67a72.62,72.62,0,1,1,21.12-100.5A72.62,72.62,0,0,1,588.71,401.67Z"/><path class="cls-8" d="M543.56,268A72.6,72.6,0,0,0,485,374.84C470.85,307.19,516.18,278.77,543.56,268Z"/></g><g id="Lens-3" data-name="Lens"><path class="cls-5" d="M884.47-41.48A26.53,26.53,0,0,1,918.3-25.23h0A26.54,26.54,0,0,1,902,8.59l-136.88,48a26.54,26.54,0,0,1-33.82-16.25h0A26.54,26.54,0,0,1,747.59,6.55Z"/><path class="cls-6" d="M875.42-34a22.5,22.5,0,0,1,28.69,13.79h0A22.5,22.5,0,0,1,890.33,8.43L774.22,49.18a22.51,22.51,0,0,1-28.7-13.79h0A22.52,22.52,0,0,1,759.31,6.7Z"/><path class="cls-7" d="M585.32,5.54a81.22,81.22,0,1,1-49.74,103.53A81.22,81.22,0,0,1,585.32,5.54Z"/><path class="cls-8" d="M733.21,21.41A22.56,22.56,0,0,0,742.4,53c2.71-3.92,3.05-11.11.47-18.47C740.72,28.38,737,23.6,733.21,21.41Z"/><path class="cls-5" d="M577.83-15.81A103.84,103.84,0,1,0,713.6,59.82L739,50.9s9-17.32-7.5-25.68l-27,9.46A103.84,103.84,0,0,0,577.83-15.81Zm111,71.09A81.22,81.22,0,1,1,585.32,5.54,81.22,81.22,0,0,1,688.85,55.28Z"/><path class="cls-8" d="M531.62,68.69A81.2,81.2,0,0,0,632,160.83C554.8,158.1,536,101.3,531.62,68.69Z"/></g><g id="Lens-4" data-name="Lens"><path class="cls-5" d="M759.84,187.34a22.86,22.86,0,0,1,28.95-14.39h0a22.86,22.86,0,0,1,14.38,28.95L763.38,320.34a22.86,22.86,0,0,1-28.94,14.39h0A22.86,22.86,0,0,1,720,305.78Z"/><path class="cls-6" d="M760.11,197.42a19.38,19.38,0,0,1,24.55-12.2h0a19.38,19.38,0,0,1,12.21,24.55L763.11,310.25a19.39,19.39,0,0,1-24.55,12.21h0a19.39,19.39,0,0,1-12.21-24.56Z"/></g><g id="Lens-5" data-name="Lens"><path class="cls-5" d="M149.91,191.8a22.86,22.86,0,0,1,4.91,32h0a22.86,22.86,0,0,1-31.95,4.91L22.12,154.76a22.86,22.86,0,0,1-4.91-31.95h0a22.86,22.86,0,0,1,31.95-4.91Z"/><path class="cls-6" d="M140.22,189a19.38,19.38,0,0,1,4.17,27.1h0a19.38,19.38,0,0,1-27.1,4.17L31.82,157.57a19.39,19.39,0,0,1-4.17-27.1h0a19.39,19.39,0,0,1,27.1-4.17Z"/><path class="cls-8" d="M31.6,114.9a19.43,19.43,0,0,0-18,21.91c4.1,0,9.39-3.24,13.36-8.65C30.3,123.64,31.9,118.69,31.6,114.9Z"/><path class="cls-5" d="M-17.57-13.63a89.44,89.44,0,0,0-125,19.22,89.44,89.44,0,0,0,19.22,125,89.44,89.44,0,0,0,118.13-11l18.7,13.72s16.7-2,14.6-17.83L8.22,101A89.44,89.44,0,0,0-17.57-13.63Zm3.51,113.5a70,70,0,0,1-97.78,15,70,70,0,0,1-15-97.78,70,70,0,0,1,97.78-15A70,70,0,0,1-14.07,99.87Z"/></g></g><path class="cls-9" d="M843.92,212.35a3,3,0,0,0,0,4.22l6.63,6.63a11.93,11.93,0,1,0,4.22-4.22l-4.52-4.52,29.53-29.53,4.52,4.52a11.93,11.93,0,1,0,4.22-4.22l-6.63-6.63a3,3,0,0,0-4.22,0l-14.77,14.77L846,176.49l-4.22,4.22,16.88,16.88ZM865,225a6,6,0,1,1-8.44,0A6,6,0,0,1,865,225Zm33.75-33.75a6,6,0,1,1-8.44,0A6,6,0,0,1,898.77,191.25Z"/><path class="cls-9" d="M776.42,94.21A11.92,11.92,0,0,0,790.88,96l4.52,4.52-29.53,29.53-4.52-4.52a11.93,11.93,0,1,0-4.22,4.22l6.63,6.63a3,3,0,0,0,4.22,0l14.77-14.77,16.88,16.88,4.22-4.22L787,117.42l14.77-14.77a3,3,0,0,0,0-4.22L795.1,91.8a11.91,11.91,0,1,0-18.69,2.41Zm-29.53,29.53a6,6,0,1,1,8.44,0A6,6,0,0,1,746.88,123.75Zm42.19-42.19a6,6,0,1,1-8.44,0A6,6,0,0,1,789.07,81.56Z"/><rect class="cls-10" x="436.97" y="119.32" width="21.78" height="21.78" transform="translate(243.63 549.52) rotate(-80.24)"/><path class="cls-11" d="M458.5,68.32a23.39,23.39,0,0,1,14.9,36.88c-3.62,5.1-13,16.12-13,16.12l-10.73-1.85L439,117.63s-5.13-13.51-6.83-19.53A23.39,23.39,0,0,1,458.5,68.32Z"/><rect class="cls-12" x="444.34" y="136.91" width="2.87" height="10.89" transform="translate(229.92 557.55) rotate(-80.24)"/><rect class="cls-12" x="443.85" y="140.94" width="2.87" height="8.48" transform="translate(226.73 559.42) rotate(-80.24)"/><rect class="cls-13" x="440.24" y="107.69" width="22.78" height="1.12" transform="matrix(0.17, -0.99, 0.99, 0.17, 268.4, 535.01)"/><rect class="cls-13" x="452.78" y="95.16" width="1.34" height="5.06" transform="translate(280.32 528.02) rotate(-80.24)"/><rect class="cls-13" x="452.41" y="97.33" width="1.34" height="5.06" transform="translate(277.87 529.46) rotate(-80.24)"/><rect class="cls-13" x="452.03" y="99.5" width="1.34" height="5.06" transform="translate(275.42 530.89) rotate(-80.24)"/><rect class="cls-13" x="415.93" y="79.23" width="3.71" height="13.09" rx="1.71" ry="1.71" transform="translate(262.44 482.98) rotate(-80.24)"/><path class="cls-13" d="M423.39,56.14a1.71,1.71,0,0,0-.41,2.38l5.58,7.9a1.71,1.71,0,0,0,2.38.41l.24-.17a1.71,1.71,0,0,0,.41-2.38L426,56.38a1.71,1.71,0,0,0-2.38-.41Z"/><path class="cls-13" d="M413.47,115a1.71,1.71,0,0,0,2.38.41l7.9-5.58a1.71,1.71,0,0,0,.41-2.38l-.17-.24a1.71,1.71,0,0,0-2.38-.41l-7.9,5.58a1.71,1.71,0,0,0-.41,2.38Z"/><path class="cls-13" d="M497.18,67.11a1.71,1.71,0,0,0-2.38-.41l-7.9,5.58a1.71,1.71,0,0,0-.41,2.38l.17.24a1.71,1.71,0,0,0,2.38.41l7.9-5.58a1.71,1.71,0,0,0,.41-2.38Z"/><path class="cls-13" d="M487,127.45a1.71,1.71,0,0,0,.41-2.38l-5.58-7.9a1.71,1.71,0,0,0-2.38-.41l-.24.17a1.71,1.71,0,0,0-.41,2.38l5.58,7.9a1.71,1.71,0,0,0,2.38.41Z"/><rect class="cls-13" x="454.85" y="49.65" width="13.09" height="3.71" rx="1.71" ry="1.71" transform="translate(332.44 497.49) rotate(-80.24)"/><rect class="cls-13" x="490.63" y="92.07" width="3.71" height="13.09" rx="1.71" ry="1.71" transform="translate(311.82 567.26) rotate(-80.24)"/><g class="cls-4"><circle class="cls-14" cx="824.64" cy="150" r="127.36"/><path class="cls-15" d="M824.64,36.23A113.78,113.78,0,1,1,710.86,150,113.77,113.77,0,0,1,824.64,36.23Z"/><g class="cls-16"><path class="cls-17" d="M733.2,242.5a5.64,5.64,0,0,1-5.64-5.64V213.93a5.64,5.64,0,1,1,11.28,0v22.93A5.64,5.64,0,0,1,733.2,242.5Z"/><path class="cls-17" d="M806.89,213.93v22.93a5.64,5.64,0,0,1-11.28,0V213.93a5.64,5.64,0,1,1,11.28,0Z"/><path class="cls-18" d="M869.3,242.5a5.64,5.64,0,0,1-5.64-5.64V213.93a5.64,5.64,0,1,1,11.28,0v22.93A5.64,5.64,0,0,1,869.3,242.5Z"/><path class="cls-18" d="M806.89,213.93v22.93a5.58,5.58,0,0,1-5.64,5.64V208.29A5.58,5.58,0,0,1,806.89,213.93Z"/><path class="cls-17" d="M806.89,135v45.12a5.64,5.64,0,1,1-11.28,0V135a5.64,5.64,0,0,1,11.28,0Z"/><path class="cls-18" d="M806.89,135v45.12a5.58,5.58,0,0,1-5.64,5.64v-56.4A5.58,5.58,0,0,1,806.89,135Z"/><path class="cls-17" d="M874.94,168.81v11.28a5.64,5.64,0,1,1-11.28,0V168.81a5.58,5.58,0,0,0-5.64-5.64H744.48a5.58,5.58,0,0,0-5.64,5.64v11.28a5.64,5.64,0,1,1-11.28,0V168.81a16.9,16.9,0,0,1,16.92-16.92H858A16.9,16.9,0,0,1,874.94,168.81Z"/><path class="cls-18" d="M874.94,168.81v11.28a5.64,5.64,0,1,1-11.28,0V168.81a5.58,5.58,0,0,0-5.64-5.64H801.25V151.89H858A16.9,16.9,0,0,1,874.94,168.81Z"/><path class="cls-19" d="M755.4,219.57H711a6,6,0,0,1-6-6V180.45a6,6,0,0,1,6-6h44.4a6,6,0,0,1,6,6v33.12A6,6,0,0,1,755.4,219.57Z"/><path class="cls-19" d="M823.45,174.45h-44.4a6,6,0,0,0-6,6v33.12a6,6,0,0,0,6,6h44.4a6,6,0,0,0,6-6V180.45A6,6,0,0,0,823.45,174.45Z"/><path class="cls-20" d="M891.5,219.57H847.1a6,6,0,0,1-6-6V180.45a6,6,0,0,1,6-6h44.4a6,6,0,0,1,6,6v33.12A6,6,0,0,1,891.5,219.57Z"/><path class="cls-20" d="M744.48,242.5H721.92a5.64,5.64,0,0,1,0-11.28h22.56a5.64,5.64,0,0,1,0,11.28Z"/><path class="cls-20" d="M818.17,236.86a5.58,5.58,0,0,1-5.64,5.64H790a5.64,5.64,0,0,1,0-11.28h22.56A5.58,5.58,0,0,1,818.17,236.86Z"/><path class="cls-21" d="M880.58,242.5H858a5.64,5.64,0,0,1,0-11.28h22.56a5.64,5.64,0,0,1,0,11.28Z"/><path class="cls-21" d="M818.17,236.86a5.58,5.58,0,0,1-5.64,5.64H801.25V231.22h11.28A5.58,5.58,0,0,1,818.17,236.86Z"/><path class="cls-20" d="M829.45,180.45v33.12a6,6,0,0,1-6,6h-22.2V174.45h22.2A6,6,0,0,1,829.45,180.45Z"/><path class="cls-22" d="M812.53,106.77H790a5.58,5.58,0,0,0-5.64,5.64V135a5.58,5.58,0,0,0,5.64,5.64h22.56a5.58,5.58,0,0,0,5.64-5.64V112.41A5.58,5.58,0,0,0,812.53,106.77Z"/><path class="cls-23" d="M818.17,112.41V135a5.58,5.58,0,0,1-5.64,5.64H801.25V106.77h11.28A5.58,5.58,0,0,1,818.17,112.41Z"/><path class="cls-24" d="M844.48,50H758a7.53,7.53,0,0,0-7.53,7.53v53a7.53,7.53,0,0,0,7.53,7.53h86.46a7.53,7.53,0,0,0,7.53-7.53v-53A7.53,7.53,0,0,0,844.48,50Z"/><path class="cls-25" d="M852,57.53v53a7.53,7.53,0,0,1-7.53,7.53H801.25V50h43.23A7.53,7.53,0,0,1,852,57.53Z"/><path class="cls-24" d="M823.81,129.33c4.93,0,8.21,6,3,11.28H775.72c-5.24-5.23-2-11.28,3-11.28Z"/><path class="cls-25" d="M826.78,140.61H801.25V129.33h22.56C828.74,129.33,832,135.38,826.78,140.61Z"/><path class="cls-17" d="M837.75,61.28h-73a3,3,0,0,0-3,3V103.8a3,3,0,0,0,3,3h73a3,3,0,0,0,3-3V64.25A3,3,0,0,0,837.75,61.28Z"/><path class="cls-18" d="M837.75,106.77h-36.5V61.28h36.5a3,3,0,0,1,3,3V103.8A3,3,0,0,1,837.75,106.77Z"/><g id="Lens-6" data-name="Lens"><path class="cls-26" d="M946.74,234A13.21,13.21,0,0,1,943,252.27h0a13.21,13.21,0,0,1-18.3-3.71l-39.9-60.17a13.21,13.21,0,0,1,3.71-18.3h0a13.21,13.21,0,0,1,18.31,3.71Z"/><path class="cls-27" d="M942,230.5A11.2,11.2,0,0,1,938.9,246h0a11.2,11.2,0,0,1-15.53-3.14l-33.85-51a11.2,11.2,0,0,1,3.14-15.53h0a11.21,11.21,0,0,1,15.53,3.14Z"/><circle class="cls-28" cx="853.81" cy="117.72" r="40.42" transform="translate(77.18 491.48) rotate(-33.55)"/><path class="cls-29" d="M897.92,168.67a11.23,11.23,0,0,0-14.12,8.3c2.22.83,5.74.12,9-2A12.2,12.2,0,0,0,897.92,168.67Z"/><path class="cls-30" d="M896.88,89.16A51.68,51.68,0,1,0,877,163.9l7.41,11.17s9.46,2.24,11.47-6.76L888,156.46A51.68,51.68,0,0,0,896.88,89.16Zm-20.73,62.24a40.42,40.42,0,1,1,11.35-56A40.42,40.42,0,0,1,876.15,151.41Z"/><path class="cls-31" d="M850.47,77.19a40.41,40.41,0,0,0-32.18,59.7C810.17,99.3,835.28,83.3,850.47,77.19Z"/></g></g><path class="cls-32" d="M138.48,182.53a48.87,48.87,0,0,1-86.3,2.94l7.56-17.93,1.12-.14,5.6-21.57L74,149.47a48.9,48.9,0,0,0,40.91,0l7.57-3.64,5.6,21.57,1.12.14Zm0,0"/><path class="cls-33" d="M138.48,182.53a49.12,49.12,0,0,1-44,27.46V154a48.91,48.91,0,0,0,20.45-4.48l7.57-3.64,5.6,21.57,1.12.14Zm0,0"/><path class="cls-34" d="M199.56,217.18a50.93,50.93,0,0,0-12.75-31.43c-7.28-7.85-17.93-13-30.26-14.71l-27.32-3.5-1.82,5.32a35,35,0,0,1-65.84,0l-1.82-5.32L32.29,171c-12.19,1.68-22.84,6.87-30,14.71A51.32,51.32,0,0,0-10.58,217L-11,310H199.84Zm0,0"/><path class="cls-35" d="M157.53,83.44v21.48a62.93,62.93,0,0,1-36.71,57.16,61.9,61.9,0,0,1-52.67,0,62.93,62.93,0,0,1-36.7-57.16V83.44l21.71-14H91.55l17-17,17,17h12.89Zm0,0"/><path class="cls-32" d="M120.83,162.08A60.82,60.82,0,0,1,94.49,168V66.49l14-14,17,17h12.89l19.19,14v21.48a62.93,62.93,0,0,1-36.71,57.16Zm0,0"/><path class="cls-36" d="M199.84,310H94.49V196a34.8,34.8,0,0,0,32.92-23.12l1.82-5.32,27.32,3.5c12.33,1.68,23,6.87,30.26,14.71a50.9,50.9,0,0,1,12.75,31.43Zm0-85.53"/><path class="cls-37" d="M94.49,13.39a62.89,62.89,0,0,0-63,63v7h66L108.5,72.37l11.07,11.07h38v-7a63.14,63.14,0,0,0-63-63Zm0,0"/><path class="cls-38" d="M157.53,76.43v7h-38L108.5,72.37,97.43,83.44H94.49v-70a63.14,63.14,0,0,1,63,63Zm0,0"/><g id="Concept"><g id="Board"><path class="cls-39" d="M124.74,193.9H243.1c4.47,0,8.11,3.94,8.11,8.76V357.22c0,4.82-3.65,8.78-8.11,8.78H124.74c-4.45,0-8.12-4-8.12-8.78V202.66c0-4.82,3.66-8.76,8.12-8.76Z"/><rect class="cls-40" x="123.16" y="201.54" width="121.52" height="156.8"/><polygon class="cls-41" points="158.69 176.68 209.16 176.68 209.16 201.54 206.35 201.54 206.35 179.86 161.33 179.86 161.33 201.54 158.69 201.54 158.69 176.68"/><path class="cls-42" d="M154.69,191.49h58.45a2.32,2.32,0,0,1,2.21,2.4V205a2.3,2.3,0,0,1-2.21,2.39H154.69a2.31,2.31,0,0,1-2.21-2.39V193.9a2.33,2.33,0,0,1,2.21-2.4Z"/><path class="cls-43" d="M182.5,191.49h30.64a2.32,2.32,0,0,1,2.21,2.4V205a2.3,2.3,0,0,1-2.21,2.39H182.5Z"/><path class="cls-44" d="M182.5,193.9H243.1c4.47,0,8.11,3.94,8.11,8.76V357.22c0,4.82-3.65,8.78-8.11,8.78H182.5Z"/></g><g id="Paragraph"><rect class="cls-30" x="138.23" y="283.97" width="88.56" height="2.87"/><rect class="cls-45" x="138.23" y="290.81" width="88.56" height="2.87"/><rect class="cls-30" x="138.23" y="297.19" width="88.56" height="2.87"/></g><g id="Diagram"><rect class="cls-30" x="136.34" y="269.14" width="88.56" height="2.36"/><path class="cls-46" d="M144.28,245h0A2.22,2.22,0,0,1,146.6,247v21.48h-4.65V247a2.21,2.21,0,0,1,2.33-2.07Z"/><path class="cls-47" d="M153.28,242.42h0a2.33,2.33,0,0,1,2.33,2.3v23.81H151V244.72a2.32,2.32,0,0,1,2.32-2.3Z"/><path class="cls-46" d="M162.28,245.06h0a2.23,2.23,0,0,1,2.33,2.07V268.7H160V247.13a2.21,2.21,0,0,1,2.32-2.07Z"/><path class="cls-47" d="M172,232.83h0c1.27,0,2.33,1.42,2.33,3.15V268.7h-4.65V236c0-1.73,1-3.15,2.33-3.15Z"/><path class="cls-46" d="M181.46,246.11h0a2.18,2.18,0,0,1,2.33,2v20.6h-4.65V248.1a2.19,2.19,0,0,1,2.33-2Z"/><path class="cls-47" d="M191,255.19h0c1.27,0,2.31.53,2.31,1.19V268.7h-4.64V256.38c0-.66,1-1.19,2.31-1.19Z"/><path class="cls-47" d="M200.94,232.95h0c1.29,0,2.32,1.42,2.32,3.15v32.6h-4.64V236.1c0-1.73,1-3.15,2.31-3.15Z"/><path class="cls-48" d="M209.5,235.32h0c1.27,0,2.33,1.33,2.33,2.94V268.7h-4.65V238.26c0-1.61,1.06-2.94,2.33-2.94Z"/><path class="cls-46" d="M217.32,227h0c1.29,0,2.33,1.64,2.33,3.65v38H215v-38c0-2,1.05-3.65,2.33-3.65Z"/><rect class="cls-49" x="230.42" y="234.66" width="8.27" height="7.37"/><rect class="cls-50" x="230.42" y="246.89" width="8.27" height="7.37"/><rect class="cls-14" x="230.42" y="259.39" width="8.27" height="7.37"/></g></g><g id="Gear"><g id="Gear-2" data-name="Gear"><g id="Gear-3" data-name="Gear"><path class="cls-40" d="M469.23,337.42a91.92,91.92,0,0,1-18.64,1.64l-9.45-18.6a71.92,71.92,0,0,1-10.91-2.5l-16.63,12.59a90.61,90.61,0,0,1-16-9.64l3.3-20.6a72.62,72.62,0,0,1-7.36-8.44l-20.86.43a89.77,89.77,0,0,1-7.3-17.2l14.8-14.74c-.3-1.83-.56-3.67-.72-5.55s-.23-3.74-.26-5.59L362,237.29a89.82,89.82,0,0,1,4.19-18.2l20.61-3.22a73.34,73.34,0,0,1,5.77-9.59l-6.85-19.71a91.44,91.44,0,0,1,14.1-12.29l18.58,9.49a72.46,72.46,0,0,1,10.31-4.37l6-20a91.9,91.9,0,0,1,18.63-1.64l9.45,18.6a71.9,71.9,0,0,1,10.91,2.5l16.63-12.59a91.16,91.16,0,0,1,16,9.64l-3.3,20.6A73,73,0,0,1,510.5,205l20.86-.43a90.29,90.29,0,0,1,7.3,17.19l-14.8,14.74c.3,1.83.56,3.67.73,5.55s.23,3.74.26,5.59L542,259.55a90.5,90.5,0,0,1-4.19,18.21L517.19,281a73.41,73.41,0,0,1-5.78,9.6l6.85,19.71a90.68,90.68,0,0,1-14.1,12.29l-18.57-9.49a72.17,72.17,0,0,1-10.31,4.37Z"/><circle class="cls-11" cx="452.01" cy="248.42" r="36.98" transform="translate(-20.03 40.57) rotate(-5.03)"/></g><path class="cls-11" d="M610.81,217.45a77.06,77.06,0,0,1-15.3,3.85l-10.34-14.23a61,61,0,0,1-9.42-.63l-12.17,12.7A76.87,76.87,0,0,1,549,213.25V195.65a62.1,62.1,0,0,1-7.25-6l-17.31,3.14A75.92,75.92,0,0,1,516,179.4l10.36-14.24c-.49-1.48-1-3-1.34-4.53s-.69-3.08-1-4.62l-15.86-7.65a75.74,75.74,0,0,1,1.06-15.71L526,127.22a62,62,0,0,1,3.53-8.76L521.22,103a76.66,76.66,0,0,1,10.1-12.11L548,96.29a61,61,0,0,1,8-5l2.38-17.43A77.42,77.42,0,0,1,573.72,70l10.34,14.23a60.49,60.49,0,0,1,9.42.63l12.17-12.7a76.86,76.86,0,0,1,14.63,5.89V95.65a62.06,62.06,0,0,1,7.26,6l17.3-3.13a75.59,75.59,0,0,1,8.37,13.34l-10.36,14.24c.49,1.48,1,3,1.34,4.53s.69,3.08,1,4.62L661,142.93a76.09,76.09,0,0,1-1.06,15.72l-16.73,5.43a61.5,61.5,0,0,1-3.53,8.76l8.33,15.5a76.6,76.6,0,0,1-10.1,12.12L621.19,195a61.26,61.26,0,0,1-8,5Z"/><path class="cls-14" d="M587.67,162a16.67,16.67,0,1,0-19.44-13.33A16.67,16.67,0,0,0,587.67,162Z"/></g><path class="cls-14" d="M350.68,222.85a41.37,41.37,0,0,1-8.37,1.15l-4.67-8.18a32.45,32.45,0,0,1-5-.89l-7.22,6a40.83,40.83,0,0,1-7.44-4l1-9.36a33.16,33.16,0,0,1-3.51-3.64l-9.4.66a40.55,40.55,0,0,1-3.68-7.59l6.35-7c-.18-.82-.33-1.64-.45-2.49s-.19-1.68-.24-2.51l-8-5a40.43,40.43,0,0,1,1.48-8.3l9.22-1.91a33.31,33.31,0,0,1,2.39-4.45l-3.53-8.74a41.18,41.18,0,0,1,6.09-5.86l8.59,3.87a32.53,32.53,0,0,1,4.55-2.2l2.29-9.14a41.56,41.56,0,0,1,8.37-1.16l4.67,8.18a32.42,32.42,0,0,1,5,.89l7.22-6.05a41.08,41.08,0,0,1,7.44,4l-1,9.36a33.2,33.2,0,0,1,3.51,3.64l9.4-.66a40.55,40.55,0,0,1,3.68,7.59l-6.35,7c.18.82.33,1.65.45,2.49s.19,1.68.24,2.52l8,5a40.88,40.88,0,0,1-1.48,8.31l-9.22,1.91a33,33,0,0,1-2.39,4.45l3.53,8.74a41,41,0,0,1-6.08,5.86l-8.59-3.87a32.57,32.57,0,0,1-4.55,2.2Z"/><circle class="cls-40" cx="340.94" cy="183.1" r="21.96" transform="translate(-33.48 280.96) rotate(-42.89)"/></g><g id="Arrow"><circle class="cls-51" cx="299.57" cy="241.88" r="22.82" transform="translate(-19.66 26.61) rotate(-4.92)"/><circle class="cls-52" cx="299.5" cy="241.82" r="16.78" transform="translate(-19.65 26.6) rotate(-4.92)"/><polygon class="cls-52" points="699.03 30.7 648.15 38.46 664.16 54.95 569.76 146.15 534.3 108.73 448.44 190.24 427.53 154.58 296.37 235.93 302.46 245.76 423.55 170.66 445.83 208.67 533.87 125.1 569.39 162.59 672.22 63.25 686.02 77.46 699.03 30.7"/></g></g><g id="Слой_1"><g id="_2524933709808" data-name=" 2524933709808"><path class="cls-53" d="M25.48,207.5c.57-1.47,1.41-2.41,4.44-2.41,1.82,0,3.5.23,4.44,2.41l7.16,17.29H34.93l-1.51-4h-7l-1.51,4H18.26Zm2.39,8.82h4l-1.78-4.91c-.06-.14-.16-.41-.2-.41s-.2.27-.27.41l-1.78,4.91Z"/><path class="cls-53" d="M50.6,218.52c.1.31.25.41.37.41s.2-.1.31-.41l4.6-13.17h6.67l-6.73,16.51C55.14,223.54,54,225,51,225s-4.23-1.45-4.91-3.13l-6.75-16.51H46l4.6,13.17Z"/><polygon class="cls-53" points="65.54 224.72 65.54 205.31 71.86 205.31 71.86 224.72 65.54 224.72"/></g><polygon class="cls-54" points="72 228.91 18.26 228.91 18.26 227.65 72 227.65 72 228.91"/></g></g></g></svg>