<svg id="Layer_1" data-name="Layer 1" xmlns="http://www.w3.org/2000/svg" xmlns:xlink="http://www.w3.org/1999/xlink" viewBox="0 0 930 300"><defs><style>.cls-1{fill:none;}.cls-2{fill:#4a7aff;}.cls-3{clip-path:url(#clip-path);}.cls-4{fill:#759aff;}.cls-5{fill:#638dff;}.cls-6{fill:#8fadff;}.cls-7{fill:#4a7bff;}.cls-8{fill:#3764de;}.cls-9{fill:#155fbf;}.cls-10{fill:#1355ab;}.cls-11{fill:#ff936b;}.cls-12{fill:#ff7045;}.cls-13{fill:#fff;}.cls-14{fill:#dce1eb;}.cls-15{fill:#ffbeaa;}.cls-16{fill:#e09380;}.cls-17{fill:#de4726;}.cls-18{fill:#ffb600;}.cls-19{fill:#ffce00;}.cls-20{fill:#bbdcff;}.cls-21{fill:#9abadb;}.cls-22{fill:#575f64;}.cls-23{fill:#32393f;}.cls-24{fill:#e0f4ff;}.cls-25{fill:#b5efff;}.cls-26{fill:#80dbff;}.cls-27{fill:#2864f0;}.cls-28{fill:#27488f;}.cls-29{fill:#384949;}.cls-30{fill:#293939;}.cls-31{fill:#ff3636;}.cls-32{fill:#ffbd86;}.cls-33{fill:#c00;}.cls-34{fill:#f6a96c;}.cls-35{fill:#fed2a4;}.cls-36{fill:#3e5959;}.cls-37{fill:#faa68e;}.cls-38{fill:#d47f6c;}.cls-39{fill:#707789;}.cls-40{fill:#555a66;}.cls-41{fill:#f4821f;}.cls-42{clip-path:url(#clip-path-3);}.cls-43{fill:#c6cbd4;}.cls-44{fill:#ff9336;}.cls-45{fill:#f73;}.cls-46{fill:#333940;}</style><clipPath id="clip-path"><rect class="cls-1" width="930" height="300"/></clipPath><clipPath id="clip-path-3"><path class="cls-1" d="M824.64,36.23A113.78,113.78,0,1,1,710.86,150,113.77,113.77,0,0,1,824.64,36.23Z"/></clipPath></defs><title>аутстаффинг</title><rect id="Background_1" data-name="Background 1" class="cls-2" width="930" height="300"/><g class="cls-3"><path class="cls-4" d="M429.07,282.28l2.69-32.49L407,243.59a112.45,112.45,0,0,0-14.45-45.06l16.52-19.43L388,154.24l-21.88,13.1a112.38,112.38,0,0,0-42.07-21.66L322,120.27l-32.48-2.69-6.2,24.72a112.47,112.47,0,0,0-45.06,14.45l-19.43-16.52L194,161.3l13.1,21.88a112.31,112.31,0,0,0-21.66,42.07L160,227.31l-2.69,32.49,24.72,6.2a112.36,112.36,0,0,0,14.45,45.06L180,330.48l21.07,24.87,21.88-13.1A112.39,112.39,0,0,0,265,363.91l2.05,25.4L299.54,392l6.21-24.72a112.38,112.38,0,0,0,45.06-14.45l19.43,16.52,24.87-21.07L382,326.41a112.5,112.5,0,0,0,21.66-42.07ZM219.52,248.59a75.27,75.27,0,1,1,68.81,81.22,75.27,75.27,0,0,1-68.81-81.22Zm0,0"/><path class="cls-5" d="M407,243.59a112.45,112.45,0,0,0-14.45-45.06l16.52-19.43L388,154.24l-21.88,13.1a112.38,112.38,0,0,0-42.07-21.66L322,120.27l-17.09-1.41-5,60.88.85,0a75.27,75.27,0,1,1-12.42,150l-.84-.09-5,60.87L299.54,392l6.21-24.72a112.38,112.38,0,0,0,45.06-14.45l19.43,16.52,24.87-21.07L382,326.41a112.5,112.5,0,0,0,21.66-42.07l25.4-2.05,2.69-32.49Zm0,0"/><path class="cls-6" d="M370.06,261a75.78,75.78,0,1,1-69.27-81.77A75.78,75.78,0,0,1,370.06,261Zm0,0"/><path class="cls-6" d="M300.8,179.27l-.85,0-12.5,151,.85.1a75.78,75.78,0,0,0,12.5-151Zm0,0"/><path class="cls-5" d="M328.66,241.71a32.92,32.92,0,1,1-30.09-35.52,32.92,32.92,0,0,1,30.09,35.52Zm0,0"/><path class="cls-7" d="M298.57,206.19l-.85,0-5.43,65.57.84.09a32.92,32.92,0,0,0,5.43-65.61Zm0,0"/><path class="cls-5" d="M237.86,305.09a75.78,75.78,0,0,0,104.33,8.63,56.4,56.4,0,0,0-104.33-8.63Zm0,0"/><path class="cls-7" d="M342.19,313.72a56.41,56.41,0,0,0-49.24-39.59l-.85,0-4.65,56.15.84.09a75.5,75.5,0,0,0,53.89-16.59Zm0,0"/><path class="cls-4" d="M722.91-128.52,712.39-91.76l27,12.79a131.9,131.9,0,0,0,6.33,55.14L722.29-5.25l18.55,33.43L769,18.11a131.82,131.82,0,0,0,43.45,34.54L809,82.35l36.76,10.52,12.79-27a131.92,131.92,0,0,0,55.15-6.32L932.29,83l33.43-18.55L955.64,36.25A131.74,131.74,0,0,0,990.18-7.2l29.7,3.44,10.52-36.76-27-12.79a131.8,131.8,0,0,0-6.32-55.15L1020.5-127,1002-160.45l-28.17,10.07a131.83,131.83,0,0,0-43.45-34.54l3.45-29.7L897-225.14l-12.79,27a131.82,131.82,0,0,0-55.14,6.32l-18.58-23.45-33.43,18.56,10.07,28.16a132,132,0,0,0-34.54,43.45ZM956.29-41.84A88.29,88.29,0,0,1,847.1,18.74,88.29,88.29,0,0,1,786.52-90.43,88.29,88.29,0,0,1,895.69-151a88.29,88.29,0,0,1,60.6,109.18Zm0,0"/><path class="cls-5" d="M739.41-79a131.9,131.9,0,0,0,6.33,55.14L722.29-5.25l18.55,33.43L769,18.11a131.82,131.82,0,0,0,43.45,34.54L809,82.35l19.33,5.53L848.06,19l-1-.25A88.3,88.3,0,0,1,786.51-90.44,88.29,88.29,0,0,1,895.69-151l.95.29,19.71-68.88L897-225.14l-12.79,27a131.82,131.82,0,0,0-55.14,6.32l-18.58-23.45-33.43,18.56,10.07,28.16a132,132,0,0,0-34.54,43.45l-29.69-3.45L712.39-91.76Zm0,0"/><path class="cls-6" d="M785.95-90.6a88.89,88.89,0,0,1,109.91-61,88.89,88.89,0,0,1,61,109.92,88.89,88.89,0,0,1-109.92,61,88.89,88.89,0,0,1-61-109.92Zm0,0"/><path class="cls-6" d="M846.94,19.32c.32.09.64.16,1,.25l48.9-170.86c-.32-.1-.63-.21-1-.3a88.89,88.89,0,0,0-109.91,61,88.89,88.89,0,0,0,61,109.92Zm0,0"/><path class="cls-6" d="M123.07,89.17A70.5,70.5,0,0,0,92.38-5.43L28.62,120.31a70.49,70.49,0,0,0,94.45-31.14Zm0,0"/><path class="cls-8" d="M166.45,128.17l13.71-27L161,87.11a104.66,104.66,0,0,0,3.36-43.89l21-10.94L176,3.45,152.58,7.06a104.48,104.48,0,0,0-28.64-33.42L131.08-49,104-62.68,90-43.56a104.47,104.47,0,0,0-43.89-3.36L35.18-68,6.36-58.54,10-35.1A104.59,104.59,0,0,0-23.46-6.45l-22.61-7.14-13.71,27,19.12,14A104.55,104.55,0,0,0-44,71.36l-21,10.94,9.42,28.82,23.45-3.61A104.61,104.61,0,0,0-3.55,140.94l-7.14,22.61,27,13.71,14-19.12a104.62,104.62,0,0,0,43.89,3.36l10.94,21L114,173.12l-3.61-23.45A104.55,104.55,0,0,0,143.84,121ZM-2.26,25.62a70,70,0,1,1,30.78,94.13A70,70,0,0,1-2.26,25.62Zm0,0"/><path class="cls-9" d="M161,87.11a104.66,104.66,0,0,0,3.36-43.89l21-10.94L176,3.45,152.58,7.06a104.48,104.48,0,0,0-28.64-33.42L131.08-49l-13.22-6.7L92.16-5A70,70,0,0,1,28.83,119.89L3.14,170.56l13.22,6.7,14-19.12a104.62,104.62,0,0,0,43.89,3.36l10.94,21L114,173.12l-3.61-23.45A104.55,104.55,0,0,0,143.84,121l22.61,7.14,13.71-27Zm0,0"/><path class="cls-6" d="M123.07,89.17a70.5,70.5,0,1,1-31-94.76,70.5,70.5,0,0,1,31,94.76Zm0,0"/><path class="cls-9" d="M94.18,58A30.62,30.62,0,1,1,80.71,16.82,30.62,30.62,0,0,1,94.18,58Zm0,0"/><path class="cls-10" d="M94.18,58A30.62,30.62,0,0,0,81,17L53.32,71.59A30.62,30.62,0,0,0,94.18,58Zm0,0"/><path class="cls-9" d="M-6.29,80.73a70.48,70.48,0,0,0,86.85,44,52.47,52.47,0,0,0-86.85-44Zm0,0"/><path class="cls-10" d="M52.33,73.55,28.62,120.31a70.24,70.24,0,0,0,51.95,4.46A52.48,52.48,0,0,0,52.33,73.55Zm0,0"/><path class="cls-6" d="M786.94,235.77a76,76,0,0,0-82.81-68L719.3,318.9a76,76,0,0,0,67.64-83.14Zm0,0"/><path class="cls-8" d="M849,246l-3.26-32.52-25.5-1.62A112.79,112.79,0,0,0,797.77,170l12.75-22.16-25.3-20.69L766,144.09a112.6,112.6,0,0,0-45.42-13.7L714,105.72,681.45,109l-1.62,25.5A112.58,112.58,0,0,0,638,156.94l-22.16-12.75-20.68,25.3,16.89,19.18a112.72,112.72,0,0,0-13.7,45.42l-24.67,6.65L577,273.26l25.5,1.62a112.68,112.68,0,0,0,22.45,41.79l-12.75,22.16,25.3,20.68,19.19-16.9a112.74,112.74,0,0,0,45.42,13.7L708.74,381l32.51-3.26,1.62-25.5a112.75,112.75,0,0,0,41.79-22.45l22.16,12.75,20.68-25.3L810.61,298a112.67,112.67,0,0,0,13.7-45.42Zm-212.73,4.92a75.47,75.47,0,1,1,82.62,67.56,75.47,75.47,0,0,1-82.62-67.56Zm0,0"/><path class="cls-9" d="M820.22,211.83A112.79,112.79,0,0,0,797.77,170l12.75-22.16-25.3-20.69L766,144.09a112.6,112.6,0,0,0-45.42-13.7L714,105.72l-15.89,1.59,6.11,60.93A75.46,75.46,0,0,1,719.25,318.4l6.11,60.92,15.89-1.59,1.62-25.5a112.75,112.75,0,0,0,41.79-22.45l22.16,12.75,20.68-25.3L810.61,298a112.67,112.67,0,0,0,13.7-45.42L849,246l-3.26-32.52Zm0,0"/><path class="cls-6" d="M786.94,235.77a76,76,0,1,1-83.18-68,76,76,0,0,1,83.18,68Zm0,0"/><path class="cls-9" d="M742.6,224.24a33,33,0,1,1-36.14-29.54,33,33,0,0,1,36.14,29.54Zm0,0"/><path class="cls-10" d="M742.6,224.24a33,33,0,0,0-35.77-29.57l6.59,65.66a33,33,0,0,0,29.18-36.09Zm0,0"/><path class="cls-9" d="M664.62,303.26A76,76,0,0,0,769,292.78a56.54,56.54,0,0,0-104.43,10.48Zm0,0"/><path class="cls-10" d="M713.66,262.68l5.64,56.23A75.7,75.7,0,0,0,769,292.78a56.55,56.55,0,0,0-55.39-30.1Zm0,0"/><path class="cls-6" d="M567.49-19.93a82.65,82.65,0,0,0-99.55-60.7L507.26,79.9a82.64,82.64,0,0,0,60.22-99.83Zm0,0"/><path class="cls-8" d="M635.86-18.38,627.4-52.91l-27.71,2.14a122.7,122.7,0,0,0-30.54-41.61l10.36-25.8-30.4-18.44L531-115.5a122.48,122.48,0,0,0-51-7.85L469.1-148.91l-34.52,8.46,2.13,27.72a122.47,122.47,0,0,0-41.6,30.53L369.3-92.57l-18.43,30.4L372-44.08a122.62,122.62,0,0,0-7.85,51L338.57,17.85,347,52.37l27.71-2.13a122.57,122.57,0,0,0,30.54,41.6l-10.36,25.81,30.39,18.43L443.41,115a122.64,122.64,0,0,0,51,7.85l10.92,25.56,34.52-8.46-2.13-27.71a122.65,122.65,0,0,0,41.6-30.54L605.13,92l18.43-30.39-21.12-18.1a122.57,122.57,0,0,0,7.85-51ZM407.48,19.27A82.09,82.09,0,0,1,467.68-80,82.09,82.09,0,0,1,567-19.8a82.1,82.1,0,0,1-60.21,99.27,82.09,82.09,0,0,1-99.27-60.21Zm0,0"/><path class="cls-9" d="M599.69-50.77a122.7,122.7,0,0,0-30.54-41.61l10.36-25.8-30.4-18.44L531-115.5a122.48,122.48,0,0,0-51-7.85L469.1-148.92l-16.87,4.13,15.85,64.7A82.09,82.09,0,0,1,567-19.8a82.09,82.09,0,0,1-59.82,99.17L523,144.06l16.87-4.13-2.13-27.71a122.65,122.65,0,0,0,41.6-30.54L605.13,92l18.43-30.39-21.12-18.1a122.57,122.57,0,0,0,7.85-51l25.56-10.92L627.4-52.91Zm0,0"/><path class="cls-6" d="M567.49-19.93A82.65,82.65,0,0,1,506.87,80,82.65,82.65,0,0,1,406.94,19.4a82.64,82.64,0,0,1,60.61-99.93,82.64,82.64,0,0,1,99.94,60.61Zm0,0"/><path class="cls-9" d="M518-25.6a35.9,35.9,0,0,1-26.33,43.41A35.9,35.9,0,0,1,448.23-8.52a35.9,35.9,0,0,1,26.33-43.41A35.9,35.9,0,0,1,518-25.6Zm0,0"/><path class="cls-10" d="M518-25.6a35.9,35.9,0,0,0-43-26.42L492,17.7A35.9,35.9,0,0,0,518-25.6Zm0,0"/><path class="cls-9" d="M446,71.36A82.35,82.35,0,0,0,506.87,80a82.33,82.33,0,0,0,50-35.81A61.51,61.51,0,0,0,446,71.36Zm0,0"/><path class="cls-10" d="M492.64,20.2,507.26,79.9a82.35,82.35,0,0,0,49.61-35.7,61.52,61.52,0,0,0-64.23-24Zm0,0"/></g><g class="cls-3"><rect class="cls-11" x="189.23" y="131.54" width="86.38" height="18.71"/><rect class="cls-12" x="189.23" y="131.54" width="86.38" height="9.61"/><path class="cls-11" d="M285.57,50V68.74H243V213.06h36v18.71H224.28V50Zm0,0"/><path class="cls-12" d="M224.28,141.15H243V68.74h42.57V50H224.28Zm0,0"/><path class="cls-13" d="M153.9,96.67a44.23,44.23,0,1,1-44.23,44.23A44.23,44.23,0,0,1,153.9,96.67Zm0,0"/><path class="cls-14" d="M109.67,140.9c0,.09,0,.17,0,.25h88.46c0-.08,0-.17,0-.25a44.23,44.23,0,0,0-88.47,0Zm0,0"/><path class="cls-15" d="M144.65,121.69a19.21,19.21,0,1,1-19.21,19.21,19.22,19.22,0,0,1,19.21-19.21Zm0,0"/><path class="cls-16" d="M125.43,140.9c0,.09,0,.17,0,.25h38.41c0-.08,0-.17,0-.25a19.21,19.21,0,1,0-38.43,0Zm0,0"/><path class="cls-12" d="M185.89,171.45a44.23,44.23,0,0,0,0-61.1,32.92,32.92,0,0,0,0,61.1Zm0,0"/><path class="cls-17" d="M185.89,110.35a32.92,32.92,0,0,0-20.66,30.55c0,.09,0,.17,0,.25h32.9c0-.08,0-.17,0-.25a44.08,44.08,0,0,0-12.25-30.55Zm0,0"/><path class="cls-18" d="M285.57,31a28.43,28.43,0,1,1-28.43,28.43A28.43,28.43,0,0,1,285.57,31Zm0,0"/><path class="cls-19" d="M285.57,194a28.43,28.43,0,1,1-28.43,28.43A28.43,28.43,0,0,1,285.57,194Zm0,0"/><path class="cls-19" d="M285.57,113.32a28.43,28.43,0,1,1-28.43,28.43,28.43,28.43,0,0,1,28.43-28.43Zm0,0"/><path class="cls-18" d="M257.14,141.75c0,.08,0,.15,0,.23H314c0-.08,0-.15,0-.23a28.43,28.43,0,1,0-56.86,0Zm0,0"/><path class="cls-20" d="M672.09,249.53l-7.25,7.25H576.66l-7.25-7.25a15.16,15.16,0,0,0,15.08-15.08V206H657v28.42A15.16,15.16,0,0,0,672.09,249.53Z"/><path class="cls-21" d="M672.09,249.53l-7.25,7.25H620.75V206H657v28.42A15.16,15.16,0,0,0,672.09,249.53Z"/><path class="cls-22" d="M744.5,32V191.52L730,206H511.5L497,191.52V32Z"/><path class="cls-23" d="M744.5,32V191.52L730,206H620.75V32Z"/><path class="cls-24" d="M497,191.52H744.5v29H497Z"/><path class="cls-20" d="M620.75,191.52H744.5v29H620.75Z"/><path class="cls-24" d="M555.49,249.53H686V264H555.49Z"/><path class="cls-20" d="M620.75,249.53H686V264H620.75Z"/><path class="cls-25" d="M511.5,46.5H730V177H511.5Z"/><path class="cls-26" d="M620.75,46.5H730V177H620.75Z"/><path class="cls-27" d="M587.61,145.05,547,111.16l40.66-33.89,7.53,9-29.83,24.86L595.14,136Z"/><path class="cls-28" d="M653.89,145.05l-7.53-9,29.83-24.86L646.36,86.31l7.53-9,40.66,33.89Z"/><path class="cls-27" d="M638.14,71.69l-17.39,60.86-6.11,21.38-11.28-3.29,17.39-60.86,6.11-21.38Z"/><path class="cls-28" d="M638.14,71.69l-17.39,60.86V89.78l6.11-21.38Z"/><path class="cls-29" d="M368,59c-48.47,0-89.17,37.67-92.87,85.29l8.72,14.21h6V151.4a78.59,78.59,0,0,1,22.67-55.14l.12-.12.12-.12A78.18,78.18,0,0,1,446.12,151.4v.19l-.19,6.92h5.11l9.76-14.21C457.12,96.67,416.51,59,368,59Zm0,0"/><path class="cls-30" d="M368,59V73.21a78.22,78.22,0,0,1,78.09,78.18v.19l-.19,6.92h5.11l9.76-14.21C457.12,96.67,416.51,59,368,59Zm0,0"/><path class="cls-29" d="M443.23,164.9,368,166.32l-75.91,1.42-9.38,107.75,85.29.71,86.71.71Zm0,0"/><path class="cls-30" d="M454.75,276.92,368,276.21V166.32l75.2-1.42Zm0,0"/><path class="cls-31" d="M274.79,144.29c-.14,2.27-.19,4.69-.19,7.11v49.75h43.31V144.29Zm0,0"/><path class="cls-32" d="M412.67,258.58c-8.24,16.77-25.45,28.81-44.63,28.81-17.91,0-34.26-10.61-42.93-25.82l7.68-18.2,1.14-.14,5.69-21.89,7.68,3.7a49.62,49.62,0,0,0,41.51,0l7.68-3.7,5.69,21.89,1.14.14Zm0,0"/><path class="cls-33" d="M460.81,144.29h-43.4v56.86H428l2.19,6.4,17.24-6.4h13.41s.14-54.59,0-56.86Zm0,0"/><path class="cls-34" d="M412.67,258.58c-8.24,16.77-25.45,28.81-44.63,28.81V229.58A49.63,49.63,0,0,0,388.79,225l7.68-3.7,5.69,21.89,1.14.14Zm0,0"/><path class="cls-35" d="M431.72,158.5l.1,21.32a64,64,0,0,1-21.13,47.34,62.22,62.22,0,0,1-42.5,16.63H368c-2.13,0-4.12-.14-6.25-.28-32.41-3.13-57.71-32.13-57.71-66.1V158.5l13.65-14.21H322a44.61,44.61,0,0,0,39.66-24.45L368,106.9l6.4,12.94a44.61,44.61,0,0,0,39.66,24.45h7.25Zm0,0"/><path class="cls-32" d="M431.72,158.5l.1,21.32a64,64,0,0,1-21.13,47.34,62.22,62.22,0,0,1-42.5,16.63H368V106.9l6.4,12.94a44.61,44.61,0,0,0,39.66,24.45h7.25Zm0,0"/><path class="cls-29" d="M368,87.43a63.82,63.82,0,0,0-64,64v7.11H322A57.94,57.94,0,0,0,368,136.19a57.93,57.93,0,0,0,46.06,22.32h17.62l.19-7.11a64,64,0,0,0-63.87-64Zm0,0"/><path class="cls-30" d="M431.91,151.4l-.19,7.11H414.09A57.93,57.93,0,0,1,368,136.19V87.43a64,64,0,0,1,63.87,64Zm0,0"/><path class="cls-36" d="M447.4,201.15a21.25,21.25,0,0,1-20,14.21H375.52V201.15Zm0,0"/><path class="cls-31" d="M474.74,294.21a53.07,53.07,0,0,0-13-32.36c-7.39-8-18.19-13.22-30.7-14.93l-27.72-3.55-1.85,5.4a35.51,35.51,0,0,1-66.81,0l-1.85-5.4-27.86,3.55c-12.37,1.71-23.17,7-30.42,14.93-7.82,8.53-12.37,20.56-13.08,32.22L261,301.6H475Zm0,0"/><path class="cls-33" d="M475,301.6H368V272.22a35.31,35.31,0,0,0,33.4-23.46l1.85-5.4L431,246.92c12.51,1.71,23.31,7,30.7,14.93a53.07,53.07,0,0,1,13,32.36Zm0,0"/><rect class="cls-25" x="44.09" y="57.72" width="159.16" height="225.28"/><rect class="cls-26" x="119.37" y="57.72" width="83.89" height="225.28"/><rect class="cls-13" x="14.38" y="28" width="159.16" height="224.78"/><rect class="cls-14" x="95.08" y="28" width="78.46" height="224.78"/><path class="cls-25" d="M87,91.87A32.66,32.66,0,1,1,54.34,59.21,32.66,32.66,0,0,1,87,91.87Zm0,0"/><path class="cls-26" d="M54.34,59.21h0v65.31h0a32.66,32.66,0,0,0,0-65.31Zm0,0"/><path class="cls-37" d="M68.53,85A14.19,14.19,0,1,1,54.34,70.86,14.18,14.18,0,0,1,68.53,85Zm0,0"/><path class="cls-38" d="M54.34,70.86h0V99.22h0a14.19,14.19,0,1,0,0-28.37Zm0,0"/><path class="cls-12" d="M31.79,115.48a32.65,32.65,0,0,0,45.11,0,24.3,24.3,0,0,0-45.11,0Zm0,0"/><path class="cls-17" d="M76.9,115.48a24.31,24.31,0,0,0-22.56-15.25h0v24.29h0a32.53,32.53,0,0,0,22.56-9Zm0,0"/><rect class="cls-39" x="33.73" y="146.76" width="120.46" height="20.4"/><rect class="cls-40" x="95.08" y="98.01" width="59.11" height="11.94"/><rect class="cls-40" x="95.08" y="78.01" width="59.11" height="11.94"/><rect class="cls-40" x="95.08" y="146.76" width="59.11" height="20.4"/><rect class="cls-39" x="33.73" y="177.89" width="120.46" height="20.4"/><rect class="cls-39" x="33.73" y="209.03" width="120.46" height="20.4"/><rect class="cls-40" x="95.08" y="177.89" width="59.11" height="20.4"/><rect class="cls-40" x="95.08" y="209.03" width="59.11" height="20.4"/><g id="_2524933709808" data-name=" 2524933709808"><path class="cls-41" d="M103,41.44c.62-1.59,1.52-2.6,4.78-2.6,2,0,3.77.24,4.78,2.6l7.71,18.62h-7.1l-1.63-4.34h-7.54l-1.63,4.34H95.26Zm2.58,9.5H110L108,45.65c-.07-.15-.18-.44-.22-.44s-.22.29-.29.44l-1.92,5.29Z"/><path class="cls-41" d="M130.1,53.32c.11.33.26.44.4.44s.22-.11.33-.44l5-14.19H143l-7.25,17.78c-.73,1.81-1.92,3.37-5.22,3.37s-4.56-1.56-5.29-3.37l-7.27-17.78h7.21l5,14.19Z"/><polygon class="cls-41" points="146.19 59.99 146.19 39.08 153 39.08 153 59.99 146.19 59.99"/></g><circle class="cls-31" cx="824.64" cy="150" r="127.36"/><path class="cls-13" d="M824.64,36.23A113.78,113.78,0,1,1,710.86,150,113.77,113.77,0,0,1,824.64,36.23Z"/><g class="cls-42"><path class="cls-13" d="M944,151A118.5,118.5,0,1,1,825.5,32.5,118.5,118.5,0,0,1,944,151Zm0,0"/><path class="cls-14" d="M915.05,153.78a36,36,0,1,1-36-36,36,36,0,0,1,36,36Zm0,0"/><path class="cls-43" d="M879.09,117.82H879v71.91h.05a36,36,0,0,0,0-71.92Zm0,0"/><path class="cls-15" d="M894.71,146.25a15.62,15.62,0,1,1-15.62-15.62,15.62,15.62,0,0,1,15.62,15.62Zm0,0"/><path class="cls-16" d="M879.09,130.63H879v31.24h.05a15.62,15.62,0,0,0,0-31.24Zm0,0"/><path class="cls-44" d="M854.26,179.78a36,36,0,0,0,49.67,0,26.76,26.76,0,0,0-49.67,0Zm0,0"/><path class="cls-45" d="M903.93,179.78A26.77,26.77,0,0,0,879.09,163H879v26.75h.05a35.84,35.84,0,0,0,24.84-10Zm0,0"/><path class="cls-27" d="M827.77,181l24.55-24.55,50.33,50.33L878.1,231.37Zm0,0"/><path class="cls-28" d="M839.79,169l12.53-12.53,50.33,50.33-12.53,12.53Zm0,0"/><path class="cls-40" d="M867.51,132.9a62.46,62.46,0,1,1-62.46-62.46,62.46,62.46,0,0,1,62.46,62.46Zm0,0"/><path class="cls-46" d="M867.51,132.9a62.45,62.45,0,0,0-107.3-43.46l88.31,88.31a62.27,62.27,0,0,0,19-44.85Zm0,0"/><path class="cls-13" d="M848.28,132.9a43.22,43.22,0,1,1-43.22-43.22,43.22,43.22,0,0,1,43.22,43.22Zm0,0"/><path class="cls-14" d="M805.06,89.68h-.41v86.43h.41a43.22,43.22,0,0,0,0-86.44Zm0,0"/><path class="cls-15" d="M823.83,123.86a18.77,18.77,0,1,1-18.77-18.77,18.77,18.77,0,0,1,18.77,18.77Zm0,0"/><path class="cls-16" d="M805.06,105.08h-.41v37.53h.41a18.77,18.77,0,1,0,0-37.55Zm0,0"/><path class="cls-44" d="M775.2,164.15a43.22,43.22,0,0,0,59.71,0,32.17,32.17,0,0,0-59.71,0Zm0,0"/><path class="cls-45" d="M834.91,164.15A32.17,32.17,0,0,0,805.06,144h-.41v32.14h.41a43.06,43.06,0,0,0,29.85-12Zm0,0"/></g></g></svg>